%TF.GenerationSoftware,KiCad,Pcbnew,(5.1.7)-1*%
%TF.CreationDate,2020-11-29T11:25:41+01:00*%
%TF.ProjectId,PickitUp,5069636b-6974-4557-902e-6b696361645f,rev?*%
%TF.SameCoordinates,Original*%
%TF.FileFunction,Legend,Bot*%
%TF.FilePolarity,Positive*%
%FSLAX46Y46*%
G04 Gerber Fmt 4.6, Leading zero omitted, Abs format (unit mm)*
G04 Created by KiCad (PCBNEW (5.1.7)-1) date 2020-11-29 11:25:41*
%MOMM*%
%LPD*%
G01*
G04 APERTURE LIST*
%ADD10C,0.300000*%
%ADD11C,0.150000*%
%ADD12C,0.750000*%
%ADD13C,0.010000*%
G04 APERTURE END LIST*
D10*
X171941000Y-87169428D02*
X172036238Y-87359904D01*
X172036238Y-87645619D01*
X171941000Y-87931333D01*
X171750523Y-88121809D01*
X171560047Y-88217047D01*
X171179095Y-88312285D01*
X170893380Y-88312285D01*
X170512428Y-88217047D01*
X170321952Y-88121809D01*
X170131476Y-87931333D01*
X170036238Y-87645619D01*
X170036238Y-87455142D01*
X170131476Y-87169428D01*
X170226714Y-87074190D01*
X170893380Y-87074190D01*
X170893380Y-87455142D01*
X170036238Y-86217047D02*
X172036238Y-86217047D01*
X170036238Y-85074190D01*
X172036238Y-85074190D01*
X172036238Y-84121809D02*
X170417190Y-84121809D01*
X170226714Y-84026571D01*
X170131476Y-83931333D01*
X170036238Y-83740857D01*
X170036238Y-83359904D01*
X170131476Y-83169428D01*
X170226714Y-83074190D01*
X170417190Y-82978952D01*
X172036238Y-82978952D01*
X168641000Y-86883714D02*
X168736238Y-87074190D01*
X168736238Y-87359904D01*
X168641000Y-87645619D01*
X168450523Y-87836095D01*
X168260047Y-87931333D01*
X167879095Y-88026571D01*
X167593380Y-88026571D01*
X167212428Y-87931333D01*
X167021952Y-87836095D01*
X166831476Y-87645619D01*
X166736238Y-87359904D01*
X166736238Y-87169428D01*
X166831476Y-86883714D01*
X166926714Y-86788476D01*
X167593380Y-86788476D01*
X167593380Y-87169428D01*
X166736238Y-85931333D02*
X168736238Y-85931333D01*
X168736238Y-85169428D01*
X168641000Y-84978952D01*
X168545761Y-84883714D01*
X168355285Y-84788476D01*
X168069571Y-84788476D01*
X167879095Y-84883714D01*
X167783857Y-84978952D01*
X167688619Y-85169428D01*
X167688619Y-85931333D01*
X166736238Y-82978952D02*
X166736238Y-83931333D01*
X168736238Y-83931333D01*
D11*
X171535333Y-105258285D02*
X171535333Y-104782095D01*
X171249619Y-105353523D02*
X172249619Y-105020190D01*
X171249619Y-104686857D01*
X172249619Y-104496380D02*
X171249619Y-104163047D01*
X172249619Y-103829714D01*
X171249619Y-102924952D02*
X171725809Y-103258285D01*
X171249619Y-103496380D02*
X172249619Y-103496380D01*
X172249619Y-103115428D01*
X172202000Y-103020190D01*
X172154380Y-102972571D01*
X172059142Y-102924952D01*
X171916285Y-102924952D01*
X171821047Y-102972571D01*
X171773428Y-103020190D01*
X171725809Y-103115428D01*
X171725809Y-103496380D01*
X171249619Y-100924952D02*
X171249619Y-100972571D01*
X171297238Y-101067809D01*
X171440095Y-101210666D01*
X171725809Y-101448761D01*
X171868666Y-101544000D01*
X172011523Y-101591619D01*
X172106761Y-101591619D01*
X172202000Y-101544000D01*
X172249619Y-101448761D01*
X172249619Y-101401142D01*
X172202000Y-101305904D01*
X172106761Y-101258285D01*
X172059142Y-101258285D01*
X171963904Y-101305904D01*
X171916285Y-101353523D01*
X171725809Y-101639238D01*
X171678190Y-101686857D01*
X171582952Y-101734476D01*
X171440095Y-101734476D01*
X171344857Y-101686857D01*
X171297238Y-101639238D01*
X171249619Y-101544000D01*
X171249619Y-101401142D01*
X171297238Y-101305904D01*
X171344857Y-101258285D01*
X171535333Y-101115428D01*
X171678190Y-101067809D01*
X171773428Y-101067809D01*
X171297238Y-99782095D02*
X171249619Y-99639238D01*
X171249619Y-99401142D01*
X171297238Y-99305904D01*
X171344857Y-99258285D01*
X171440095Y-99210666D01*
X171535333Y-99210666D01*
X171630571Y-99258285D01*
X171678190Y-99305904D01*
X171725809Y-99401142D01*
X171773428Y-99591619D01*
X171821047Y-99686857D01*
X171868666Y-99734476D01*
X171963904Y-99782095D01*
X172059142Y-99782095D01*
X172154380Y-99734476D01*
X172202000Y-99686857D01*
X172249619Y-99591619D01*
X172249619Y-99353523D01*
X172202000Y-99210666D01*
X171535333Y-98829714D02*
X171535333Y-98353523D01*
X171249619Y-98924952D02*
X172249619Y-98591619D01*
X171249619Y-98258285D01*
X171249619Y-97924952D02*
X172249619Y-97924952D01*
X171535333Y-97591619D01*
X172249619Y-97258285D01*
X171249619Y-97258285D01*
X171535333Y-96067809D02*
X171535333Y-95591619D01*
X171249619Y-96163047D02*
X172249619Y-95829714D01*
X171249619Y-95496380D01*
X171249619Y-94734476D02*
X172249619Y-94734476D01*
X171297238Y-94734476D02*
X171249619Y-94829714D01*
X171249619Y-95020190D01*
X171297238Y-95115428D01*
X171344857Y-95163047D01*
X171440095Y-95210666D01*
X171725809Y-95210666D01*
X171821047Y-95163047D01*
X171868666Y-95115428D01*
X171916285Y-95020190D01*
X171916285Y-94829714D01*
X171868666Y-94734476D01*
X171249619Y-93829714D02*
X171773428Y-93829714D01*
X171868666Y-93877333D01*
X171916285Y-93972571D01*
X171916285Y-94163047D01*
X171868666Y-94258285D01*
X171297238Y-93829714D02*
X171249619Y-93924952D01*
X171249619Y-94163047D01*
X171297238Y-94258285D01*
X171392476Y-94305904D01*
X171487714Y-94305904D01*
X171582952Y-94258285D01*
X171630571Y-94163047D01*
X171630571Y-93924952D01*
X171678190Y-93829714D01*
X171916285Y-93353523D02*
X170916285Y-93353523D01*
X171868666Y-93353523D02*
X171916285Y-93258285D01*
X171916285Y-93067809D01*
X171868666Y-92972571D01*
X171821047Y-92924952D01*
X171725809Y-92877333D01*
X171440095Y-92877333D01*
X171344857Y-92924952D01*
X171297238Y-92972571D01*
X171249619Y-93067809D01*
X171249619Y-93258285D01*
X171297238Y-93353523D01*
X171916285Y-92591619D02*
X171916285Y-92210666D01*
X172249619Y-92448761D02*
X171392476Y-92448761D01*
X171297238Y-92401142D01*
X171249619Y-92305904D01*
X171249619Y-92210666D01*
X171297238Y-91496380D02*
X171249619Y-91591619D01*
X171249619Y-91782095D01*
X171297238Y-91877333D01*
X171392476Y-91924952D01*
X171773428Y-91924952D01*
X171868666Y-91877333D01*
X171916285Y-91782095D01*
X171916285Y-91591619D01*
X171868666Y-91496380D01*
X171773428Y-91448761D01*
X171678190Y-91448761D01*
X171582952Y-91924952D01*
X171249619Y-91020190D02*
X171916285Y-91020190D01*
X171725809Y-91020190D02*
X171821047Y-90972571D01*
X171868666Y-90924952D01*
X171916285Y-90829714D01*
X171916285Y-90734476D01*
X170266285Y-104401142D02*
X170266285Y-104020190D01*
X169599619Y-104258285D02*
X170456761Y-104258285D01*
X170552000Y-104210666D01*
X170599619Y-104115428D01*
X170599619Y-104020190D01*
X169599619Y-103544000D02*
X169647238Y-103639238D01*
X169694857Y-103686857D01*
X169790095Y-103734476D01*
X170075809Y-103734476D01*
X170171047Y-103686857D01*
X170218666Y-103639238D01*
X170266285Y-103544000D01*
X170266285Y-103401142D01*
X170218666Y-103305904D01*
X170171047Y-103258285D01*
X170075809Y-103210666D01*
X169790095Y-103210666D01*
X169694857Y-103258285D01*
X169647238Y-103305904D01*
X169599619Y-103401142D01*
X169599619Y-103544000D01*
X169599619Y-102782095D02*
X170266285Y-102782095D01*
X170075809Y-102782095D02*
X170171047Y-102734476D01*
X170218666Y-102686857D01*
X170266285Y-102591619D01*
X170266285Y-102496380D01*
X169599619Y-101401142D02*
X170599619Y-101401142D01*
X170599619Y-101020190D01*
X170552000Y-100924952D01*
X170504380Y-100877333D01*
X170409142Y-100829714D01*
X170266285Y-100829714D01*
X170171047Y-100877333D01*
X170123428Y-100924952D01*
X170075809Y-101020190D01*
X170075809Y-101401142D01*
X169599619Y-100401142D02*
X170266285Y-100401142D01*
X170599619Y-100401142D02*
X170552000Y-100448761D01*
X170504380Y-100401142D01*
X170552000Y-100353523D01*
X170599619Y-100401142D01*
X170504380Y-100401142D01*
X169647238Y-99496380D02*
X169599619Y-99591619D01*
X169599619Y-99782095D01*
X169647238Y-99877333D01*
X169694857Y-99924952D01*
X169790095Y-99972571D01*
X170075809Y-99972571D01*
X170171047Y-99924952D01*
X170218666Y-99877333D01*
X170266285Y-99782095D01*
X170266285Y-99591619D01*
X170218666Y-99496380D01*
X169599619Y-99067809D02*
X170599619Y-99067809D01*
X169980571Y-98972571D02*
X169599619Y-98686857D01*
X170266285Y-98686857D02*
X169885333Y-99067809D01*
X169599619Y-98258285D02*
X170266285Y-98258285D01*
X170599619Y-98258285D02*
X170552000Y-98305904D01*
X170504380Y-98258285D01*
X170552000Y-98210666D01*
X170599619Y-98258285D01*
X170504380Y-98258285D01*
X170266285Y-97924952D02*
X170266285Y-97544000D01*
X170599619Y-97782095D02*
X169742476Y-97782095D01*
X169647238Y-97734476D01*
X169599619Y-97639238D01*
X169599619Y-97544000D01*
X170266285Y-96782095D02*
X169599619Y-96782095D01*
X170647238Y-97020190D02*
X169932952Y-97258285D01*
X169932952Y-96639238D01*
X170647238Y-95544000D02*
X169361523Y-96401142D01*
X169647238Y-95258285D02*
X169599619Y-95115428D01*
X169599619Y-94877333D01*
X169647238Y-94782095D01*
X169694857Y-94734476D01*
X169790095Y-94686857D01*
X169885333Y-94686857D01*
X169980571Y-94734476D01*
X170028190Y-94782095D01*
X170075809Y-94877333D01*
X170123428Y-95067809D01*
X170171047Y-95163047D01*
X170218666Y-95210666D01*
X170313904Y-95258285D01*
X170409142Y-95258285D01*
X170504380Y-95210666D01*
X170552000Y-95163047D01*
X170599619Y-95067809D01*
X170599619Y-94829714D01*
X170552000Y-94686857D01*
X169599619Y-94258285D02*
X170599619Y-94258285D01*
X169599619Y-93686857D01*
X170599619Y-93686857D01*
X169885333Y-93258285D02*
X169885333Y-92782095D01*
X169599619Y-93353523D02*
X170599619Y-93020190D01*
X169599619Y-92686857D01*
X169599619Y-92353523D02*
X170599619Y-92353523D01*
X170599619Y-91972571D01*
X170552000Y-91877333D01*
X170504380Y-91829714D01*
X170409142Y-91782095D01*
X170266285Y-91782095D01*
X170171047Y-91829714D01*
X170123428Y-91877333D01*
X170075809Y-91972571D01*
X170075809Y-92353523D01*
X168473428Y-101210666D02*
X168425809Y-101067809D01*
X168378190Y-101020190D01*
X168282952Y-100972571D01*
X168140095Y-100972571D01*
X168044857Y-101020190D01*
X167997238Y-101067809D01*
X167949619Y-101163047D01*
X167949619Y-101544000D01*
X168949619Y-101544000D01*
X168949619Y-101210666D01*
X168902000Y-101115428D01*
X168854380Y-101067809D01*
X168759142Y-101020190D01*
X168663904Y-101020190D01*
X168568666Y-101067809D01*
X168521047Y-101115428D01*
X168473428Y-101210666D01*
X168473428Y-101544000D01*
X168616285Y-100639238D02*
X167949619Y-100401142D01*
X168616285Y-100163047D02*
X167949619Y-100401142D01*
X167711523Y-100496380D01*
X167663904Y-100544000D01*
X167616285Y-100639238D01*
X168902000Y-98496380D02*
X168949619Y-98591619D01*
X168949619Y-98734476D01*
X168902000Y-98877333D01*
X168806761Y-98972571D01*
X168711523Y-99020190D01*
X168521047Y-99067809D01*
X168378190Y-99067809D01*
X168187714Y-99020190D01*
X168092476Y-98972571D01*
X167997238Y-98877333D01*
X167949619Y-98734476D01*
X167949619Y-98639238D01*
X167997238Y-98496380D01*
X168044857Y-98448761D01*
X168378190Y-98448761D01*
X168378190Y-98639238D01*
X167949619Y-97591619D02*
X168473428Y-97591619D01*
X168568666Y-97639238D01*
X168616285Y-97734476D01*
X168616285Y-97924952D01*
X168568666Y-98020190D01*
X167997238Y-97591619D02*
X167949619Y-97686857D01*
X167949619Y-97924952D01*
X167997238Y-98020190D01*
X168092476Y-98067809D01*
X168187714Y-98067809D01*
X168282952Y-98020190D01*
X168330571Y-97924952D01*
X168330571Y-97686857D01*
X168378190Y-97591619D01*
X167949619Y-97115428D02*
X168949619Y-97115428D01*
X168568666Y-97115428D02*
X168616285Y-97020190D01*
X168616285Y-96829714D01*
X168568666Y-96734476D01*
X168521047Y-96686857D01*
X168425809Y-96639238D01*
X168140095Y-96639238D01*
X168044857Y-96686857D01*
X167997238Y-96734476D01*
X167949619Y-96829714D01*
X167949619Y-97020190D01*
X167997238Y-97115428D01*
X167997238Y-96258285D02*
X167949619Y-96163047D01*
X167949619Y-95972571D01*
X167997238Y-95877333D01*
X168092476Y-95829714D01*
X168140095Y-95829714D01*
X168235333Y-95877333D01*
X168282952Y-95972571D01*
X168282952Y-96115428D01*
X168330571Y-96210666D01*
X168425809Y-96258285D01*
X168473428Y-96258285D01*
X168568666Y-96210666D01*
X168616285Y-96115428D01*
X168616285Y-95972571D01*
X168568666Y-95877333D01*
X168949619Y-95353523D02*
X168759142Y-95448761D01*
X167997238Y-94544000D02*
X167949619Y-94639238D01*
X167949619Y-94829714D01*
X167997238Y-94924952D01*
X168092476Y-94972571D01*
X168473428Y-94972571D01*
X168568666Y-94924952D01*
X168616285Y-94829714D01*
X168616285Y-94639238D01*
X168568666Y-94544000D01*
X168473428Y-94496380D01*
X168378190Y-94496380D01*
X168282952Y-94972571D01*
X167299619Y-101520190D02*
X166299619Y-101186857D01*
X167299619Y-100853523D01*
X166347238Y-100139238D02*
X166299619Y-100234476D01*
X166299619Y-100424952D01*
X166347238Y-100520190D01*
X166442476Y-100567809D01*
X166823428Y-100567809D01*
X166918666Y-100520190D01*
X166966285Y-100424952D01*
X166966285Y-100234476D01*
X166918666Y-100139238D01*
X166823428Y-100091619D01*
X166728190Y-100091619D01*
X166632952Y-100567809D01*
X166299619Y-99663047D02*
X166966285Y-99663047D01*
X166775809Y-99663047D02*
X166871047Y-99615428D01*
X166918666Y-99567809D01*
X166966285Y-99472571D01*
X166966285Y-99377333D01*
X166347238Y-99091619D02*
X166299619Y-98996380D01*
X166299619Y-98805904D01*
X166347238Y-98710666D01*
X166442476Y-98663047D01*
X166490095Y-98663047D01*
X166585333Y-98710666D01*
X166632952Y-98805904D01*
X166632952Y-98948761D01*
X166680571Y-99044000D01*
X166775809Y-99091619D01*
X166823428Y-99091619D01*
X166918666Y-99044000D01*
X166966285Y-98948761D01*
X166966285Y-98805904D01*
X166918666Y-98710666D01*
X166299619Y-98234476D02*
X166966285Y-98234476D01*
X167299619Y-98234476D02*
X167252000Y-98282095D01*
X167204380Y-98234476D01*
X167252000Y-98186857D01*
X167299619Y-98234476D01*
X167204380Y-98234476D01*
X166299619Y-97615428D02*
X166347238Y-97710666D01*
X166394857Y-97758285D01*
X166490095Y-97805904D01*
X166775809Y-97805904D01*
X166871047Y-97758285D01*
X166918666Y-97710666D01*
X166966285Y-97615428D01*
X166966285Y-97472571D01*
X166918666Y-97377333D01*
X166871047Y-97329714D01*
X166775809Y-97282095D01*
X166490095Y-97282095D01*
X166394857Y-97329714D01*
X166347238Y-97377333D01*
X166299619Y-97472571D01*
X166299619Y-97615428D01*
X166966285Y-96853523D02*
X166299619Y-96853523D01*
X166871047Y-96853523D02*
X166918666Y-96805904D01*
X166966285Y-96710666D01*
X166966285Y-96567809D01*
X166918666Y-96472571D01*
X166823428Y-96424952D01*
X166299619Y-96424952D01*
X166299619Y-94663047D02*
X166299619Y-95234476D01*
X166299619Y-94948761D02*
X167299619Y-94948761D01*
X167156761Y-95044000D01*
X167061523Y-95139238D01*
X167013904Y-95234476D01*
X165316285Y-107996380D02*
X164506761Y-107996380D01*
X164411523Y-108044000D01*
X164363904Y-108091619D01*
X164316285Y-108186857D01*
X164316285Y-108329714D01*
X164363904Y-108424952D01*
X164697238Y-107996380D02*
X164649619Y-108091619D01*
X164649619Y-108282095D01*
X164697238Y-108377333D01*
X164744857Y-108424952D01*
X164840095Y-108472571D01*
X165125809Y-108472571D01*
X165221047Y-108424952D01*
X165268666Y-108377333D01*
X165316285Y-108282095D01*
X165316285Y-108091619D01*
X165268666Y-107996380D01*
X164649619Y-107520190D02*
X165316285Y-107520190D01*
X165649619Y-107520190D02*
X165602000Y-107567809D01*
X165554380Y-107520190D01*
X165602000Y-107472571D01*
X165649619Y-107520190D01*
X165554380Y-107520190D01*
X165316285Y-107186857D02*
X165316285Y-106805904D01*
X165649619Y-107044000D02*
X164792476Y-107044000D01*
X164697238Y-106996380D01*
X164649619Y-106901142D01*
X164649619Y-106805904D01*
X164649619Y-106472571D02*
X165649619Y-106472571D01*
X164649619Y-106044000D02*
X165173428Y-106044000D01*
X165268666Y-106091619D01*
X165316285Y-106186857D01*
X165316285Y-106329714D01*
X165268666Y-106424952D01*
X165221047Y-106472571D01*
X165316285Y-105139238D02*
X164649619Y-105139238D01*
X165316285Y-105567809D02*
X164792476Y-105567809D01*
X164697238Y-105520190D01*
X164649619Y-105424952D01*
X164649619Y-105282095D01*
X164697238Y-105186857D01*
X164744857Y-105139238D01*
X164649619Y-104663047D02*
X165649619Y-104663047D01*
X165268666Y-104663047D02*
X165316285Y-104567809D01*
X165316285Y-104377333D01*
X165268666Y-104282095D01*
X165221047Y-104234476D01*
X165125809Y-104186857D01*
X164840095Y-104186857D01*
X164744857Y-104234476D01*
X164697238Y-104282095D01*
X164649619Y-104377333D01*
X164649619Y-104567809D01*
X164697238Y-104663047D01*
X164744857Y-103758285D02*
X164697238Y-103710666D01*
X164649619Y-103758285D01*
X164697238Y-103805904D01*
X164744857Y-103758285D01*
X164649619Y-103758285D01*
X164697238Y-102853523D02*
X164649619Y-102948761D01*
X164649619Y-103139238D01*
X164697238Y-103234476D01*
X164744857Y-103282095D01*
X164840095Y-103329714D01*
X165125809Y-103329714D01*
X165221047Y-103282095D01*
X165268666Y-103234476D01*
X165316285Y-103139238D01*
X165316285Y-102948761D01*
X165268666Y-102853523D01*
X164649619Y-102282095D02*
X164697238Y-102377333D01*
X164744857Y-102424952D01*
X164840095Y-102472571D01*
X165125809Y-102472571D01*
X165221047Y-102424952D01*
X165268666Y-102377333D01*
X165316285Y-102282095D01*
X165316285Y-102139238D01*
X165268666Y-102044000D01*
X165221047Y-101996380D01*
X165125809Y-101948761D01*
X164840095Y-101948761D01*
X164744857Y-101996380D01*
X164697238Y-102044000D01*
X164649619Y-102139238D01*
X164649619Y-102282095D01*
X164649619Y-101520190D02*
X165316285Y-101520190D01*
X165221047Y-101520190D02*
X165268666Y-101472571D01*
X165316285Y-101377333D01*
X165316285Y-101234476D01*
X165268666Y-101139238D01*
X165173428Y-101091619D01*
X164649619Y-101091619D01*
X165173428Y-101091619D02*
X165268666Y-101044000D01*
X165316285Y-100948761D01*
X165316285Y-100805904D01*
X165268666Y-100710666D01*
X165173428Y-100663047D01*
X164649619Y-100663047D01*
X165697238Y-99472571D02*
X164411523Y-100329714D01*
X165602000Y-98615428D02*
X165649619Y-98710666D01*
X165649619Y-98853523D01*
X165602000Y-98996380D01*
X165506761Y-99091619D01*
X165411523Y-99139238D01*
X165221047Y-99186857D01*
X165078190Y-99186857D01*
X164887714Y-99139238D01*
X164792476Y-99091619D01*
X164697238Y-98996380D01*
X164649619Y-98853523D01*
X164649619Y-98758285D01*
X164697238Y-98615428D01*
X164744857Y-98567809D01*
X165078190Y-98567809D01*
X165078190Y-98758285D01*
X164649619Y-97710666D02*
X165173428Y-97710666D01*
X165268666Y-97758285D01*
X165316285Y-97853523D01*
X165316285Y-98044000D01*
X165268666Y-98139238D01*
X164697238Y-97710666D02*
X164649619Y-97805904D01*
X164649619Y-98044000D01*
X164697238Y-98139238D01*
X164792476Y-98186857D01*
X164887714Y-98186857D01*
X164982952Y-98139238D01*
X165030571Y-98044000D01*
X165030571Y-97805904D01*
X165078190Y-97710666D01*
X164649619Y-97234476D02*
X165649619Y-97234476D01*
X165268666Y-97234476D02*
X165316285Y-97139238D01*
X165316285Y-96948761D01*
X165268666Y-96853523D01*
X165221047Y-96805904D01*
X165125809Y-96758285D01*
X164840095Y-96758285D01*
X164744857Y-96805904D01*
X164697238Y-96853523D01*
X164649619Y-96948761D01*
X164649619Y-97139238D01*
X164697238Y-97234476D01*
X164697238Y-96377333D02*
X164649619Y-96282095D01*
X164649619Y-96091619D01*
X164697238Y-95996380D01*
X164792476Y-95948761D01*
X164840095Y-95948761D01*
X164935333Y-95996380D01*
X164982952Y-96091619D01*
X164982952Y-96234476D01*
X165030571Y-96329714D01*
X165125809Y-96377333D01*
X165173428Y-96377333D01*
X165268666Y-96329714D01*
X165316285Y-96234476D01*
X165316285Y-96091619D01*
X165268666Y-95996380D01*
X164697238Y-95139238D02*
X164649619Y-95234476D01*
X164649619Y-95424952D01*
X164697238Y-95520190D01*
X164792476Y-95567809D01*
X165173428Y-95567809D01*
X165268666Y-95520190D01*
X165316285Y-95424952D01*
X165316285Y-95234476D01*
X165268666Y-95139238D01*
X165173428Y-95091619D01*
X165078190Y-95091619D01*
X164982952Y-95567809D01*
X165697238Y-93948761D02*
X164411523Y-94805904D01*
X164649619Y-93615428D02*
X165649619Y-93615428D01*
X165649619Y-93234476D01*
X165602000Y-93139238D01*
X165554380Y-93091619D01*
X165459142Y-93044000D01*
X165316285Y-93044000D01*
X165221047Y-93091619D01*
X165173428Y-93139238D01*
X165125809Y-93234476D01*
X165125809Y-93615428D01*
X164649619Y-92615428D02*
X165316285Y-92615428D01*
X165649619Y-92615428D02*
X165602000Y-92663047D01*
X165554380Y-92615428D01*
X165602000Y-92567809D01*
X165649619Y-92615428D01*
X165554380Y-92615428D01*
X164697238Y-91710666D02*
X164649619Y-91805904D01*
X164649619Y-91996380D01*
X164697238Y-92091619D01*
X164744857Y-92139238D01*
X164840095Y-92186857D01*
X165125809Y-92186857D01*
X165221047Y-92139238D01*
X165268666Y-92091619D01*
X165316285Y-91996380D01*
X165316285Y-91805904D01*
X165268666Y-91710666D01*
X164649619Y-91282095D02*
X165649619Y-91282095D01*
X164649619Y-90710666D02*
X165221047Y-91139238D01*
X165649619Y-90710666D02*
X165078190Y-91282095D01*
X164649619Y-90282095D02*
X165316285Y-90282095D01*
X165649619Y-90282095D02*
X165602000Y-90329714D01*
X165554380Y-90282095D01*
X165602000Y-90234476D01*
X165649619Y-90282095D01*
X165554380Y-90282095D01*
X165316285Y-89948761D02*
X165316285Y-89567809D01*
X165649619Y-89805904D02*
X164792476Y-89805904D01*
X164697238Y-89758285D01*
X164649619Y-89663047D01*
X164649619Y-89567809D01*
X165649619Y-89234476D02*
X164840095Y-89234476D01*
X164744857Y-89186857D01*
X164697238Y-89139238D01*
X164649619Y-89044000D01*
X164649619Y-88853523D01*
X164697238Y-88758285D01*
X164744857Y-88710666D01*
X164840095Y-88663047D01*
X165649619Y-88663047D01*
X164649619Y-88186857D02*
X165649619Y-88186857D01*
X165649619Y-87805904D01*
X165602000Y-87710666D01*
X165554380Y-87663047D01*
X165459142Y-87615428D01*
X165316285Y-87615428D01*
X165221047Y-87663047D01*
X165173428Y-87710666D01*
X165125809Y-87805904D01*
X165125809Y-88186857D01*
D12*
X182935428Y-115551952D02*
X182935428Y-111980523D01*
X185078285Y-114123380D02*
X178649714Y-115551952D01*
X180792571Y-112456714D02*
X180792571Y-116028142D01*
X178649714Y-113885285D02*
X185078285Y-112456714D01*
X179602095Y-110313857D02*
X184602095Y-110313857D01*
X184602095Y-108409095D01*
X184364000Y-107932904D01*
X184125904Y-107694809D01*
X183649714Y-107456714D01*
X182935428Y-107456714D01*
X182459238Y-107694809D01*
X182221142Y-107932904D01*
X181983047Y-108409095D01*
X181983047Y-110313857D01*
X179602095Y-105313857D02*
X182935428Y-105313857D01*
X184602095Y-105313857D02*
X184364000Y-105551952D01*
X184125904Y-105313857D01*
X184364000Y-105075761D01*
X184602095Y-105313857D01*
X184125904Y-105313857D01*
X179840190Y-100790047D02*
X179602095Y-101266238D01*
X179602095Y-102218619D01*
X179840190Y-102694809D01*
X180078285Y-102932904D01*
X180554476Y-103171000D01*
X181983047Y-103171000D01*
X182459238Y-102932904D01*
X182697333Y-102694809D01*
X182935428Y-102218619D01*
X182935428Y-101266238D01*
X182697333Y-100790047D01*
X179602095Y-98647190D02*
X184602095Y-98647190D01*
X179602095Y-95790047D02*
X182459238Y-97932904D01*
X184602095Y-95790047D02*
X181744952Y-98647190D01*
X179602095Y-93647190D02*
X182935428Y-93647190D01*
X184602095Y-93647190D02*
X184364000Y-93885285D01*
X184125904Y-93647190D01*
X184364000Y-93409095D01*
X184602095Y-93647190D01*
X184125904Y-93647190D01*
X182935428Y-91980523D02*
X182935428Y-90075761D01*
X184602095Y-91266238D02*
X180316380Y-91266238D01*
X179840190Y-91028142D01*
X179602095Y-90551952D01*
X179602095Y-90075761D01*
X184602095Y-88409095D02*
X180554476Y-88409095D01*
X180078285Y-88171000D01*
X179840190Y-87932904D01*
X179602095Y-87456714D01*
X179602095Y-86504333D01*
X179840190Y-86028142D01*
X180078285Y-85790047D01*
X180554476Y-85551952D01*
X184602095Y-85551952D01*
X182935428Y-83171000D02*
X177935428Y-83171000D01*
X182697333Y-83171000D02*
X182935428Y-82694809D01*
X182935428Y-81742428D01*
X182697333Y-81266238D01*
X182459238Y-81028142D01*
X181983047Y-80790047D01*
X180554476Y-80790047D01*
X180078285Y-81028142D01*
X179840190Y-81266238D01*
X179602095Y-81742428D01*
X179602095Y-82694809D01*
X179840190Y-83171000D01*
D13*
%TO.C,REF\u002A\u002A*%
G36*
X172048652Y-110640090D02*
G01*
X172048222Y-110561546D01*
X172047058Y-110504702D01*
X172044793Y-110465895D01*
X172041060Y-110441462D01*
X172035494Y-110427738D01*
X172027727Y-110421060D01*
X172017395Y-110417764D01*
X172016057Y-110417444D01*
X171991921Y-110412438D01*
X171944299Y-110403171D01*
X171878259Y-110390608D01*
X171798872Y-110375713D01*
X171711204Y-110359449D01*
X171708125Y-110358881D01*
X171622211Y-110342590D01*
X171546304Y-110327348D01*
X171484955Y-110314139D01*
X171442718Y-110303946D01*
X171424145Y-110297752D01*
X171423816Y-110297457D01*
X171414747Y-110279212D01*
X171399633Y-110241595D01*
X171381738Y-110192729D01*
X171381642Y-110192457D01*
X171358507Y-110130907D01*
X171329035Y-110058343D01*
X171299403Y-109989943D01*
X171297938Y-109986706D01*
X171247374Y-109875298D01*
X171415840Y-109628601D01*
X171467197Y-109552923D01*
X171513111Y-109484369D01*
X171550970Y-109426912D01*
X171578163Y-109384524D01*
X171592079Y-109361175D01*
X171593111Y-109358958D01*
X171588516Y-109341990D01*
X171566345Y-109310299D01*
X171525553Y-109262648D01*
X171465095Y-109197802D01*
X171400773Y-109131603D01*
X171337388Y-109067786D01*
X171279549Y-109010671D01*
X171230825Y-108963695D01*
X171194790Y-108930297D01*
X171175016Y-108913915D01*
X171173998Y-108913306D01*
X171160428Y-108911495D01*
X171138267Y-108918317D01*
X171104522Y-108935460D01*
X171056200Y-108964607D01*
X170990308Y-109007445D01*
X170905483Y-109064552D01*
X170830823Y-109115234D01*
X170763860Y-109160539D01*
X170708484Y-109197850D01*
X170668580Y-109224548D01*
X170648038Y-109238015D01*
X170646644Y-109238863D01*
X170626962Y-109237219D01*
X170588707Y-109224755D01*
X170539111Y-109203952D01*
X170523272Y-109196538D01*
X170452710Y-109164186D01*
X170372647Y-109129672D01*
X170303371Y-109101635D01*
X170251955Y-109081432D01*
X170212881Y-109065385D01*
X170192459Y-109056112D01*
X170190886Y-109054959D01*
X170188279Y-109037904D01*
X170181137Y-108997702D01*
X170170477Y-108939698D01*
X170157315Y-108869237D01*
X170142667Y-108791665D01*
X170127551Y-108712328D01*
X170112982Y-108636569D01*
X170099978Y-108569736D01*
X170089555Y-108517172D01*
X170082730Y-108484224D01*
X170080801Y-108476143D01*
X170076038Y-108467795D01*
X170065282Y-108461494D01*
X170044902Y-108456955D01*
X170011266Y-108453896D01*
X169960745Y-108452033D01*
X169889708Y-108451082D01*
X169794524Y-108450760D01*
X169755508Y-108450743D01*
X169438201Y-108450743D01*
X169423161Y-108526943D01*
X169415005Y-108569337D01*
X169403101Y-108632600D01*
X169388884Y-108709038D01*
X169373790Y-108790957D01*
X169369645Y-108813600D01*
X169354947Y-108889194D01*
X169340495Y-108955047D01*
X169327625Y-109005634D01*
X169317678Y-109035426D01*
X169314713Y-109040388D01*
X169293717Y-109052574D01*
X169253033Y-109070047D01*
X169200678Y-109089423D01*
X169189400Y-109093266D01*
X169119477Y-109118661D01*
X169040582Y-109150183D01*
X168969734Y-109181031D01*
X168969405Y-109181183D01*
X168858267Y-109232553D01*
X168609747Y-109063601D01*
X168361228Y-108894648D01*
X168143942Y-109111571D01*
X168079274Y-109177181D01*
X168022267Y-109237021D01*
X167975967Y-109287733D01*
X167943416Y-109325954D01*
X167927657Y-109348325D01*
X167926657Y-109351534D01*
X167934531Y-109370374D01*
X167956422Y-109408820D01*
X167989733Y-109462670D01*
X168031869Y-109527724D01*
X168079057Y-109598060D01*
X168127190Y-109669445D01*
X168169072Y-109733092D01*
X168202129Y-109784959D01*
X168223782Y-109821005D01*
X168231457Y-109837133D01*
X168224963Y-109856811D01*
X168207850Y-109894125D01*
X168183674Y-109941379D01*
X168180987Y-109946388D01*
X168149073Y-110010023D01*
X168133421Y-110053659D01*
X168133255Y-110080798D01*
X168147796Y-110094943D01*
X168148000Y-110095025D01*
X168165221Y-110102095D01*
X168206101Y-110118958D01*
X168267475Y-110144305D01*
X168346181Y-110176829D01*
X168439053Y-110215222D01*
X168542928Y-110258178D01*
X168643498Y-110299778D01*
X168754484Y-110345496D01*
X168857297Y-110387474D01*
X168948785Y-110424452D01*
X169025799Y-110455173D01*
X169085185Y-110478378D01*
X169123791Y-110492810D01*
X169138200Y-110497257D01*
X169154728Y-110486104D01*
X169181070Y-110456931D01*
X169210113Y-110418029D01*
X169301961Y-110307243D01*
X169407241Y-110220649D01*
X169523734Y-110159284D01*
X169649224Y-110124185D01*
X169781493Y-110116392D01*
X169842543Y-110122057D01*
X169969205Y-110152922D01*
X170081059Y-110206080D01*
X170176999Y-110278233D01*
X170255924Y-110366083D01*
X170316730Y-110466335D01*
X170358313Y-110575690D01*
X170379572Y-110690853D01*
X170379401Y-110808525D01*
X170356699Y-110925410D01*
X170310362Y-111038211D01*
X170239287Y-111143631D01*
X170199089Y-111187632D01*
X170095871Y-111272021D01*
X169983075Y-111330778D01*
X169863990Y-111364296D01*
X169741905Y-111372965D01*
X169620107Y-111357177D01*
X169501884Y-111317322D01*
X169390525Y-111253793D01*
X169289316Y-111166979D01*
X169210113Y-111069971D01*
X169179838Y-111029563D01*
X169153781Y-111001018D01*
X169138175Y-110990743D01*
X169121157Y-110996123D01*
X169080500Y-111011425D01*
X169019358Y-111035388D01*
X168940881Y-111066756D01*
X168848220Y-111104268D01*
X168744528Y-111146667D01*
X168643474Y-111188337D01*
X168532393Y-111234310D01*
X168429459Y-111276893D01*
X168337835Y-111314779D01*
X168260684Y-111346660D01*
X168201169Y-111371229D01*
X168162456Y-111387180D01*
X168148000Y-111393090D01*
X168133315Y-111407052D01*
X168133358Y-111434060D01*
X168148901Y-111477587D01*
X168180716Y-111541110D01*
X168180987Y-111541612D01*
X168205677Y-111589440D01*
X168223662Y-111628103D01*
X168231386Y-111649905D01*
X168231457Y-111650867D01*
X168223622Y-111667279D01*
X168201835Y-111703513D01*
X168168672Y-111755526D01*
X168126709Y-111819275D01*
X168079057Y-111889940D01*
X168030809Y-111961884D01*
X167988849Y-112026726D01*
X167955773Y-112080265D01*
X167934179Y-112118303D01*
X167926657Y-112136467D01*
X167936543Y-112153192D01*
X167964174Y-112186820D01*
X168006505Y-112233990D01*
X168060495Y-112291342D01*
X168123101Y-112355516D01*
X168144017Y-112376503D01*
X168361377Y-112593501D01*
X168603780Y-112428332D01*
X168678219Y-112378136D01*
X168745028Y-112334081D01*
X168800335Y-112298638D01*
X168840271Y-112274281D01*
X168860964Y-112263478D01*
X168862437Y-112263162D01*
X168881942Y-112268857D01*
X168921178Y-112284174D01*
X168973570Y-112306463D01*
X169008645Y-112322107D01*
X169075799Y-112351359D01*
X169143642Y-112378906D01*
X169200966Y-112400263D01*
X169218428Y-112406065D01*
X169265062Y-112422548D01*
X169301095Y-112438660D01*
X169314713Y-112447510D01*
X169323048Y-112467040D01*
X169334863Y-112509666D01*
X169348819Y-112569855D01*
X169363578Y-112642078D01*
X169369645Y-112674400D01*
X169384727Y-112756478D01*
X169399331Y-112835205D01*
X169412020Y-112902891D01*
X169421358Y-112951840D01*
X169423161Y-112961057D01*
X169438201Y-113037257D01*
X169755508Y-113037257D01*
X169859846Y-113037086D01*
X169938787Y-113036384D01*
X169995962Y-113034866D01*
X170035001Y-113032251D01*
X170059535Y-113028254D01*
X170073195Y-113022591D01*
X170079611Y-113014980D01*
X170080801Y-113011857D01*
X170085020Y-112993022D01*
X170093438Y-112951412D01*
X170105039Y-112892370D01*
X170118805Y-112821243D01*
X170133720Y-112743375D01*
X170148768Y-112664113D01*
X170162931Y-112588802D01*
X170175194Y-112522787D01*
X170184539Y-112471413D01*
X170189950Y-112440025D01*
X170190886Y-112433041D01*
X170203404Y-112426715D01*
X170236754Y-112412710D01*
X170284623Y-112393645D01*
X170303371Y-112386366D01*
X170375805Y-112357004D01*
X170455830Y-112322429D01*
X170523272Y-112291463D01*
X170574841Y-112268677D01*
X170617215Y-112253518D01*
X170643166Y-112248458D01*
X170646644Y-112249264D01*
X170663064Y-112259959D01*
X170699583Y-112284380D01*
X170752313Y-112319905D01*
X170817365Y-112363913D01*
X170890849Y-112413783D01*
X170905355Y-112423644D01*
X170991296Y-112481508D01*
X171056739Y-112524044D01*
X171104696Y-112552946D01*
X171138180Y-112569910D01*
X171160205Y-112576633D01*
X171173783Y-112574810D01*
X171173869Y-112574764D01*
X171191703Y-112560414D01*
X171226183Y-112528677D01*
X171273732Y-112482990D01*
X171330778Y-112426796D01*
X171393745Y-112363532D01*
X171400773Y-112356398D01*
X171477980Y-112276670D01*
X171534670Y-112215143D01*
X171571890Y-112170579D01*
X171590685Y-112141743D01*
X171593111Y-112129042D01*
X171582529Y-112110506D01*
X171558084Y-112072039D01*
X171522388Y-112017614D01*
X171478053Y-111951202D01*
X171427689Y-111876775D01*
X171415840Y-111859399D01*
X171247374Y-111612703D01*
X171297938Y-111501294D01*
X171327405Y-111433543D01*
X171357041Y-111360817D01*
X171380670Y-111298297D01*
X171381642Y-111295543D01*
X171399543Y-111246640D01*
X171414680Y-111208943D01*
X171423790Y-111190575D01*
X171423816Y-111190544D01*
X171440283Y-111184715D01*
X171480781Y-111174808D01*
X171540758Y-111161805D01*
X171615660Y-111146691D01*
X171700936Y-111130448D01*
X171708125Y-111129119D01*
X171795986Y-111112825D01*
X171875740Y-111097867D01*
X171942319Y-111085209D01*
X171990653Y-111075814D01*
X172015675Y-111070646D01*
X172016057Y-111070556D01*
X172026701Y-111067411D01*
X172034738Y-111061296D01*
X172040533Y-111048547D01*
X172044453Y-111025500D01*
X172046865Y-110988491D01*
X172048135Y-110933856D01*
X172048629Y-110857933D01*
X172048714Y-110757056D01*
X172048714Y-110744000D01*
X172048652Y-110640090D01*
G37*
X172048652Y-110640090D02*
X172048222Y-110561546D01*
X172047058Y-110504702D01*
X172044793Y-110465895D01*
X172041060Y-110441462D01*
X172035494Y-110427738D01*
X172027727Y-110421060D01*
X172017395Y-110417764D01*
X172016057Y-110417444D01*
X171991921Y-110412438D01*
X171944299Y-110403171D01*
X171878259Y-110390608D01*
X171798872Y-110375713D01*
X171711204Y-110359449D01*
X171708125Y-110358881D01*
X171622211Y-110342590D01*
X171546304Y-110327348D01*
X171484955Y-110314139D01*
X171442718Y-110303946D01*
X171424145Y-110297752D01*
X171423816Y-110297457D01*
X171414747Y-110279212D01*
X171399633Y-110241595D01*
X171381738Y-110192729D01*
X171381642Y-110192457D01*
X171358507Y-110130907D01*
X171329035Y-110058343D01*
X171299403Y-109989943D01*
X171297938Y-109986706D01*
X171247374Y-109875298D01*
X171415840Y-109628601D01*
X171467197Y-109552923D01*
X171513111Y-109484369D01*
X171550970Y-109426912D01*
X171578163Y-109384524D01*
X171592079Y-109361175D01*
X171593111Y-109358958D01*
X171588516Y-109341990D01*
X171566345Y-109310299D01*
X171525553Y-109262648D01*
X171465095Y-109197802D01*
X171400773Y-109131603D01*
X171337388Y-109067786D01*
X171279549Y-109010671D01*
X171230825Y-108963695D01*
X171194790Y-108930297D01*
X171175016Y-108913915D01*
X171173998Y-108913306D01*
X171160428Y-108911495D01*
X171138267Y-108918317D01*
X171104522Y-108935460D01*
X171056200Y-108964607D01*
X170990308Y-109007445D01*
X170905483Y-109064552D01*
X170830823Y-109115234D01*
X170763860Y-109160539D01*
X170708484Y-109197850D01*
X170668580Y-109224548D01*
X170648038Y-109238015D01*
X170646644Y-109238863D01*
X170626962Y-109237219D01*
X170588707Y-109224755D01*
X170539111Y-109203952D01*
X170523272Y-109196538D01*
X170452710Y-109164186D01*
X170372647Y-109129672D01*
X170303371Y-109101635D01*
X170251955Y-109081432D01*
X170212881Y-109065385D01*
X170192459Y-109056112D01*
X170190886Y-109054959D01*
X170188279Y-109037904D01*
X170181137Y-108997702D01*
X170170477Y-108939698D01*
X170157315Y-108869237D01*
X170142667Y-108791665D01*
X170127551Y-108712328D01*
X170112982Y-108636569D01*
X170099978Y-108569736D01*
X170089555Y-108517172D01*
X170082730Y-108484224D01*
X170080801Y-108476143D01*
X170076038Y-108467795D01*
X170065282Y-108461494D01*
X170044902Y-108456955D01*
X170011266Y-108453896D01*
X169960745Y-108452033D01*
X169889708Y-108451082D01*
X169794524Y-108450760D01*
X169755508Y-108450743D01*
X169438201Y-108450743D01*
X169423161Y-108526943D01*
X169415005Y-108569337D01*
X169403101Y-108632600D01*
X169388884Y-108709038D01*
X169373790Y-108790957D01*
X169369645Y-108813600D01*
X169354947Y-108889194D01*
X169340495Y-108955047D01*
X169327625Y-109005634D01*
X169317678Y-109035426D01*
X169314713Y-109040388D01*
X169293717Y-109052574D01*
X169253033Y-109070047D01*
X169200678Y-109089423D01*
X169189400Y-109093266D01*
X169119477Y-109118661D01*
X169040582Y-109150183D01*
X168969734Y-109181031D01*
X168969405Y-109181183D01*
X168858267Y-109232553D01*
X168609747Y-109063601D01*
X168361228Y-108894648D01*
X168143942Y-109111571D01*
X168079274Y-109177181D01*
X168022267Y-109237021D01*
X167975967Y-109287733D01*
X167943416Y-109325954D01*
X167927657Y-109348325D01*
X167926657Y-109351534D01*
X167934531Y-109370374D01*
X167956422Y-109408820D01*
X167989733Y-109462670D01*
X168031869Y-109527724D01*
X168079057Y-109598060D01*
X168127190Y-109669445D01*
X168169072Y-109733092D01*
X168202129Y-109784959D01*
X168223782Y-109821005D01*
X168231457Y-109837133D01*
X168224963Y-109856811D01*
X168207850Y-109894125D01*
X168183674Y-109941379D01*
X168180987Y-109946388D01*
X168149073Y-110010023D01*
X168133421Y-110053659D01*
X168133255Y-110080798D01*
X168147796Y-110094943D01*
X168148000Y-110095025D01*
X168165221Y-110102095D01*
X168206101Y-110118958D01*
X168267475Y-110144305D01*
X168346181Y-110176829D01*
X168439053Y-110215222D01*
X168542928Y-110258178D01*
X168643498Y-110299778D01*
X168754484Y-110345496D01*
X168857297Y-110387474D01*
X168948785Y-110424452D01*
X169025799Y-110455173D01*
X169085185Y-110478378D01*
X169123791Y-110492810D01*
X169138200Y-110497257D01*
X169154728Y-110486104D01*
X169181070Y-110456931D01*
X169210113Y-110418029D01*
X169301961Y-110307243D01*
X169407241Y-110220649D01*
X169523734Y-110159284D01*
X169649224Y-110124185D01*
X169781493Y-110116392D01*
X169842543Y-110122057D01*
X169969205Y-110152922D01*
X170081059Y-110206080D01*
X170176999Y-110278233D01*
X170255924Y-110366083D01*
X170316730Y-110466335D01*
X170358313Y-110575690D01*
X170379572Y-110690853D01*
X170379401Y-110808525D01*
X170356699Y-110925410D01*
X170310362Y-111038211D01*
X170239287Y-111143631D01*
X170199089Y-111187632D01*
X170095871Y-111272021D01*
X169983075Y-111330778D01*
X169863990Y-111364296D01*
X169741905Y-111372965D01*
X169620107Y-111357177D01*
X169501884Y-111317322D01*
X169390525Y-111253793D01*
X169289316Y-111166979D01*
X169210113Y-111069971D01*
X169179838Y-111029563D01*
X169153781Y-111001018D01*
X169138175Y-110990743D01*
X169121157Y-110996123D01*
X169080500Y-111011425D01*
X169019358Y-111035388D01*
X168940881Y-111066756D01*
X168848220Y-111104268D01*
X168744528Y-111146667D01*
X168643474Y-111188337D01*
X168532393Y-111234310D01*
X168429459Y-111276893D01*
X168337835Y-111314779D01*
X168260684Y-111346660D01*
X168201169Y-111371229D01*
X168162456Y-111387180D01*
X168148000Y-111393090D01*
X168133315Y-111407052D01*
X168133358Y-111434060D01*
X168148901Y-111477587D01*
X168180716Y-111541110D01*
X168180987Y-111541612D01*
X168205677Y-111589440D01*
X168223662Y-111628103D01*
X168231386Y-111649905D01*
X168231457Y-111650867D01*
X168223622Y-111667279D01*
X168201835Y-111703513D01*
X168168672Y-111755526D01*
X168126709Y-111819275D01*
X168079057Y-111889940D01*
X168030809Y-111961884D01*
X167988849Y-112026726D01*
X167955773Y-112080265D01*
X167934179Y-112118303D01*
X167926657Y-112136467D01*
X167936543Y-112153192D01*
X167964174Y-112186820D01*
X168006505Y-112233990D01*
X168060495Y-112291342D01*
X168123101Y-112355516D01*
X168144017Y-112376503D01*
X168361377Y-112593501D01*
X168603780Y-112428332D01*
X168678219Y-112378136D01*
X168745028Y-112334081D01*
X168800335Y-112298638D01*
X168840271Y-112274281D01*
X168860964Y-112263478D01*
X168862437Y-112263162D01*
X168881942Y-112268857D01*
X168921178Y-112284174D01*
X168973570Y-112306463D01*
X169008645Y-112322107D01*
X169075799Y-112351359D01*
X169143642Y-112378906D01*
X169200966Y-112400263D01*
X169218428Y-112406065D01*
X169265062Y-112422548D01*
X169301095Y-112438660D01*
X169314713Y-112447510D01*
X169323048Y-112467040D01*
X169334863Y-112509666D01*
X169348819Y-112569855D01*
X169363578Y-112642078D01*
X169369645Y-112674400D01*
X169384727Y-112756478D01*
X169399331Y-112835205D01*
X169412020Y-112902891D01*
X169421358Y-112951840D01*
X169423161Y-112961057D01*
X169438201Y-113037257D01*
X169755508Y-113037257D01*
X169859846Y-113037086D01*
X169938787Y-113036384D01*
X169995962Y-113034866D01*
X170035001Y-113032251D01*
X170059535Y-113028254D01*
X170073195Y-113022591D01*
X170079611Y-113014980D01*
X170080801Y-113011857D01*
X170085020Y-112993022D01*
X170093438Y-112951412D01*
X170105039Y-112892370D01*
X170118805Y-112821243D01*
X170133720Y-112743375D01*
X170148768Y-112664113D01*
X170162931Y-112588802D01*
X170175194Y-112522787D01*
X170184539Y-112471413D01*
X170189950Y-112440025D01*
X170190886Y-112433041D01*
X170203404Y-112426715D01*
X170236754Y-112412710D01*
X170284623Y-112393645D01*
X170303371Y-112386366D01*
X170375805Y-112357004D01*
X170455830Y-112322429D01*
X170523272Y-112291463D01*
X170574841Y-112268677D01*
X170617215Y-112253518D01*
X170643166Y-112248458D01*
X170646644Y-112249264D01*
X170663064Y-112259959D01*
X170699583Y-112284380D01*
X170752313Y-112319905D01*
X170817365Y-112363913D01*
X170890849Y-112413783D01*
X170905355Y-112423644D01*
X170991296Y-112481508D01*
X171056739Y-112524044D01*
X171104696Y-112552946D01*
X171138180Y-112569910D01*
X171160205Y-112576633D01*
X171173783Y-112574810D01*
X171173869Y-112574764D01*
X171191703Y-112560414D01*
X171226183Y-112528677D01*
X171273732Y-112482990D01*
X171330778Y-112426796D01*
X171393745Y-112363532D01*
X171400773Y-112356398D01*
X171477980Y-112276670D01*
X171534670Y-112215143D01*
X171571890Y-112170579D01*
X171590685Y-112141743D01*
X171593111Y-112129042D01*
X171582529Y-112110506D01*
X171558084Y-112072039D01*
X171522388Y-112017614D01*
X171478053Y-111951202D01*
X171427689Y-111876775D01*
X171415840Y-111859399D01*
X171247374Y-111612703D01*
X171297938Y-111501294D01*
X171327405Y-111433543D01*
X171357041Y-111360817D01*
X171380670Y-111298297D01*
X171381642Y-111295543D01*
X171399543Y-111246640D01*
X171414680Y-111208943D01*
X171423790Y-111190575D01*
X171423816Y-111190544D01*
X171440283Y-111184715D01*
X171480781Y-111174808D01*
X171540758Y-111161805D01*
X171615660Y-111146691D01*
X171700936Y-111130448D01*
X171708125Y-111129119D01*
X171795986Y-111112825D01*
X171875740Y-111097867D01*
X171942319Y-111085209D01*
X171990653Y-111075814D01*
X172015675Y-111070646D01*
X172016057Y-111070556D01*
X172026701Y-111067411D01*
X172034738Y-111061296D01*
X172040533Y-111048547D01*
X172044453Y-111025500D01*
X172046865Y-110988491D01*
X172048135Y-110933856D01*
X172048629Y-110857933D01*
X172048714Y-110757056D01*
X172048714Y-110744000D01*
X172048652Y-110640090D01*
G36*
X167324034Y-107590405D02*
G01*
X167286503Y-107532979D01*
X167252904Y-107505281D01*
X167191936Y-107483338D01*
X167143692Y-107481595D01*
X167079184Y-107485543D01*
X167014066Y-107634314D01*
X166980798Y-107706651D01*
X166954036Y-107753916D01*
X166930856Y-107778493D01*
X166908333Y-107782763D01*
X166883545Y-107769111D01*
X166867114Y-107754057D01*
X166840765Y-107710254D01*
X166838919Y-107662611D01*
X166859454Y-107618855D01*
X166900248Y-107586711D01*
X166914653Y-107580962D01*
X166959644Y-107553424D01*
X166978818Y-107521742D01*
X166995221Y-107478286D01*
X166933034Y-107478286D01*
X166890717Y-107482128D01*
X166855031Y-107497177D01*
X166814057Y-107528720D01*
X166808733Y-107533408D01*
X166772280Y-107568494D01*
X166752717Y-107598653D01*
X166743717Y-107636385D01*
X166740770Y-107667665D01*
X166740035Y-107723615D01*
X166749340Y-107763445D01*
X166763154Y-107788292D01*
X166793533Y-107827344D01*
X166826387Y-107854375D01*
X166867706Y-107871483D01*
X166923479Y-107880762D01*
X166999695Y-107884307D01*
X167038378Y-107884590D01*
X167084753Y-107883628D01*
X167084753Y-107795993D01*
X167059874Y-107794977D01*
X167055800Y-107792444D01*
X167061335Y-107775726D01*
X167075983Y-107739751D01*
X167096810Y-107691669D01*
X167101286Y-107681614D01*
X167132186Y-107620848D01*
X167159343Y-107587368D01*
X167184780Y-107580010D01*
X167210519Y-107597609D01*
X167221891Y-107612144D01*
X167244636Y-107664590D01*
X167240878Y-107713678D01*
X167213116Y-107754773D01*
X167163848Y-107783242D01*
X167124743Y-107792369D01*
X167084753Y-107795993D01*
X167084753Y-107883628D01*
X167128751Y-107882715D01*
X167195616Y-107875804D01*
X167244305Y-107862116D01*
X167280151Y-107839904D01*
X167308487Y-107807426D01*
X167317645Y-107793267D01*
X167341493Y-107728947D01*
X167342994Y-107658527D01*
X167324034Y-107590405D01*
G37*
X167324034Y-107590405D02*
X167286503Y-107532979D01*
X167252904Y-107505281D01*
X167191936Y-107483338D01*
X167143692Y-107481595D01*
X167079184Y-107485543D01*
X167014066Y-107634314D01*
X166980798Y-107706651D01*
X166954036Y-107753916D01*
X166930856Y-107778493D01*
X166908333Y-107782763D01*
X166883545Y-107769111D01*
X166867114Y-107754057D01*
X166840765Y-107710254D01*
X166838919Y-107662611D01*
X166859454Y-107618855D01*
X166900248Y-107586711D01*
X166914653Y-107580962D01*
X166959644Y-107553424D01*
X166978818Y-107521742D01*
X166995221Y-107478286D01*
X166933034Y-107478286D01*
X166890717Y-107482128D01*
X166855031Y-107497177D01*
X166814057Y-107528720D01*
X166808733Y-107533408D01*
X166772280Y-107568494D01*
X166752717Y-107598653D01*
X166743717Y-107636385D01*
X166740770Y-107667665D01*
X166740035Y-107723615D01*
X166749340Y-107763445D01*
X166763154Y-107788292D01*
X166793533Y-107827344D01*
X166826387Y-107854375D01*
X166867706Y-107871483D01*
X166923479Y-107880762D01*
X166999695Y-107884307D01*
X167038378Y-107884590D01*
X167084753Y-107883628D01*
X167084753Y-107795993D01*
X167059874Y-107794977D01*
X167055800Y-107792444D01*
X167061335Y-107775726D01*
X167075983Y-107739751D01*
X167096810Y-107691669D01*
X167101286Y-107681614D01*
X167132186Y-107620848D01*
X167159343Y-107587368D01*
X167184780Y-107580010D01*
X167210519Y-107597609D01*
X167221891Y-107612144D01*
X167244636Y-107664590D01*
X167240878Y-107713678D01*
X167213116Y-107754773D01*
X167163848Y-107783242D01*
X167124743Y-107792369D01*
X167084753Y-107795993D01*
X167084753Y-107883628D01*
X167128751Y-107882715D01*
X167195616Y-107875804D01*
X167244305Y-107862116D01*
X167280151Y-107839904D01*
X167308487Y-107807426D01*
X167317645Y-107793267D01*
X167341493Y-107728947D01*
X167342994Y-107658527D01*
X167324034Y-107590405D01*
G36*
X167332248Y-108091400D02*
G01*
X167324666Y-108074052D01*
X167291872Y-108032644D01*
X167244453Y-107997235D01*
X167193849Y-107975336D01*
X167168902Y-107971771D01*
X167134073Y-107983721D01*
X167115643Y-108009933D01*
X167104484Y-108038036D01*
X167102428Y-108050905D01*
X167117351Y-108057171D01*
X167149825Y-108069544D01*
X167164498Y-108074972D01*
X167215256Y-108105410D01*
X167240573Y-108149480D01*
X167239794Y-108205990D01*
X167238797Y-108210175D01*
X167224493Y-108240345D01*
X167196607Y-108262524D01*
X167151713Y-108277673D01*
X167086385Y-108286750D01*
X166997196Y-108290714D01*
X166949739Y-108291086D01*
X166874929Y-108291270D01*
X166823931Y-108292478D01*
X166791529Y-108295691D01*
X166772505Y-108301891D01*
X166761644Y-108312060D01*
X166753728Y-108327181D01*
X166753330Y-108328054D01*
X166741019Y-108357172D01*
X166736486Y-108371597D01*
X166750191Y-108373814D01*
X166788075Y-108375711D01*
X166845285Y-108377153D01*
X166916973Y-108378002D01*
X166969435Y-108378171D01*
X167070953Y-108377308D01*
X167147968Y-108373930D01*
X167204977Y-108366858D01*
X167246474Y-108354912D01*
X167276957Y-108336910D01*
X167300920Y-108311673D01*
X167317645Y-108286753D01*
X167339903Y-108226829D01*
X167344924Y-108157089D01*
X167332248Y-108091400D01*
G37*
X167332248Y-108091400D02*
X167324666Y-108074052D01*
X167291872Y-108032644D01*
X167244453Y-107997235D01*
X167193849Y-107975336D01*
X167168902Y-107971771D01*
X167134073Y-107983721D01*
X167115643Y-108009933D01*
X167104484Y-108038036D01*
X167102428Y-108050905D01*
X167117351Y-108057171D01*
X167149825Y-108069544D01*
X167164498Y-108074972D01*
X167215256Y-108105410D01*
X167240573Y-108149480D01*
X167239794Y-108205990D01*
X167238797Y-108210175D01*
X167224493Y-108240345D01*
X167196607Y-108262524D01*
X167151713Y-108277673D01*
X167086385Y-108286750D01*
X166997196Y-108290714D01*
X166949739Y-108291086D01*
X166874929Y-108291270D01*
X166823931Y-108292478D01*
X166791529Y-108295691D01*
X166772505Y-108301891D01*
X166761644Y-108312060D01*
X166753728Y-108327181D01*
X166753330Y-108328054D01*
X166741019Y-108357172D01*
X166736486Y-108371597D01*
X166750191Y-108373814D01*
X166788075Y-108375711D01*
X166845285Y-108377153D01*
X166916973Y-108378002D01*
X166969435Y-108378171D01*
X167070953Y-108377308D01*
X167147968Y-108373930D01*
X167204977Y-108366858D01*
X167246474Y-108354912D01*
X167276957Y-108336910D01*
X167300920Y-108311673D01*
X167317645Y-108286753D01*
X167339903Y-108226829D01*
X167344924Y-108157089D01*
X167332248Y-108091400D01*
G36*
X167334665Y-108599124D02*
G01*
X167315656Y-108557333D01*
X167292622Y-108524531D01*
X167266867Y-108500497D01*
X167233642Y-108483903D01*
X167188200Y-108473423D01*
X167125793Y-108467729D01*
X167041673Y-108465493D01*
X166986279Y-108465257D01*
X166770174Y-108465257D01*
X166753330Y-108502226D01*
X166741019Y-108531344D01*
X166736486Y-108545769D01*
X166749975Y-108548528D01*
X166786347Y-108550718D01*
X166839458Y-108552058D01*
X166881628Y-108552343D01*
X166942553Y-108553566D01*
X166990885Y-108556864D01*
X167020482Y-108561679D01*
X167026771Y-108565504D01*
X167020348Y-108591217D01*
X167003875Y-108631582D01*
X166981542Y-108678321D01*
X166957543Y-108723155D01*
X166936070Y-108757807D01*
X166921315Y-108773998D01*
X166921155Y-108774062D01*
X166893848Y-108772670D01*
X166867781Y-108760182D01*
X166846608Y-108738257D01*
X166839526Y-108706257D01*
X166840351Y-108678908D01*
X166840958Y-108640174D01*
X166831884Y-108619842D01*
X166807908Y-108607631D01*
X166803387Y-108606091D01*
X166769194Y-108600797D01*
X166748432Y-108614953D01*
X166738538Y-108651852D01*
X166736708Y-108691711D01*
X166750273Y-108763438D01*
X166769645Y-108800568D01*
X166815155Y-108846424D01*
X166871017Y-108870744D01*
X166930043Y-108872927D01*
X166985047Y-108852371D01*
X167019514Y-108821451D01*
X167038811Y-108790580D01*
X167063241Y-108742058D01*
X167088015Y-108685515D01*
X167091801Y-108676090D01*
X167119209Y-108613981D01*
X167143366Y-108578178D01*
X167167381Y-108566663D01*
X167194365Y-108577420D01*
X167215457Y-108595886D01*
X167241428Y-108639531D01*
X167243376Y-108687554D01*
X167223363Y-108731594D01*
X167183449Y-108763291D01*
X167173152Y-108767451D01*
X167135276Y-108791673D01*
X167107158Y-108827035D01*
X167084083Y-108871657D01*
X167149515Y-108871657D01*
X167189494Y-108869031D01*
X167221003Y-108857770D01*
X167254622Y-108832801D01*
X167280516Y-108808831D01*
X167317183Y-108771559D01*
X167336879Y-108742599D01*
X167344780Y-108711495D01*
X167346086Y-108676287D01*
X167334665Y-108599124D01*
G37*
X167334665Y-108599124D02*
X167315656Y-108557333D01*
X167292622Y-108524531D01*
X167266867Y-108500497D01*
X167233642Y-108483903D01*
X167188200Y-108473423D01*
X167125793Y-108467729D01*
X167041673Y-108465493D01*
X166986279Y-108465257D01*
X166770174Y-108465257D01*
X166753330Y-108502226D01*
X166741019Y-108531344D01*
X166736486Y-108545769D01*
X166749975Y-108548528D01*
X166786347Y-108550718D01*
X166839458Y-108552058D01*
X166881628Y-108552343D01*
X166942553Y-108553566D01*
X166990885Y-108556864D01*
X167020482Y-108561679D01*
X167026771Y-108565504D01*
X167020348Y-108591217D01*
X167003875Y-108631582D01*
X166981542Y-108678321D01*
X166957543Y-108723155D01*
X166936070Y-108757807D01*
X166921315Y-108773998D01*
X166921155Y-108774062D01*
X166893848Y-108772670D01*
X166867781Y-108760182D01*
X166846608Y-108738257D01*
X166839526Y-108706257D01*
X166840351Y-108678908D01*
X166840958Y-108640174D01*
X166831884Y-108619842D01*
X166807908Y-108607631D01*
X166803387Y-108606091D01*
X166769194Y-108600797D01*
X166748432Y-108614953D01*
X166738538Y-108651852D01*
X166736708Y-108691711D01*
X166750273Y-108763438D01*
X166769645Y-108800568D01*
X166815155Y-108846424D01*
X166871017Y-108870744D01*
X166930043Y-108872927D01*
X166985047Y-108852371D01*
X167019514Y-108821451D01*
X167038811Y-108790580D01*
X167063241Y-108742058D01*
X167088015Y-108685515D01*
X167091801Y-108676090D01*
X167119209Y-108613981D01*
X167143366Y-108578178D01*
X167167381Y-108566663D01*
X167194365Y-108577420D01*
X167215457Y-108595886D01*
X167241428Y-108639531D01*
X167243376Y-108687554D01*
X167223363Y-108731594D01*
X167183449Y-108763291D01*
X167173152Y-108767451D01*
X167135276Y-108791673D01*
X167107158Y-108827035D01*
X167084083Y-108871657D01*
X167149515Y-108871657D01*
X167189494Y-108869031D01*
X167221003Y-108857770D01*
X167254622Y-108832801D01*
X167280516Y-108808831D01*
X167317183Y-108771559D01*
X167336879Y-108742599D01*
X167344780Y-108711495D01*
X167346086Y-108676287D01*
X167334665Y-108599124D01*
G36*
X167332337Y-108964167D02*
G01*
X167294150Y-108961952D01*
X167236114Y-108960216D01*
X167162820Y-108959101D01*
X167085945Y-108958743D01*
X166825804Y-108958743D01*
X166779873Y-109004674D01*
X166751571Y-109036325D01*
X166740107Y-109064110D01*
X166740832Y-109102085D01*
X166742679Y-109117160D01*
X166748052Y-109164274D01*
X166751131Y-109203244D01*
X166751415Y-109212743D01*
X166749555Y-109244767D01*
X166744886Y-109290568D01*
X166742679Y-109308326D01*
X166739265Y-109351943D01*
X166746680Y-109381255D01*
X166769573Y-109410320D01*
X166779873Y-109420812D01*
X166825804Y-109466743D01*
X167312398Y-109466743D01*
X167329242Y-109429774D01*
X167341718Y-109397941D01*
X167346086Y-109379317D01*
X167332282Y-109374542D01*
X167293714Y-109370079D01*
X167234644Y-109366225D01*
X167159337Y-109363278D01*
X167095714Y-109361857D01*
X166845343Y-109357886D01*
X166840444Y-109323241D01*
X166843869Y-109291732D01*
X166854959Y-109276292D01*
X166875692Y-109271977D01*
X166919855Y-109268292D01*
X166981854Y-109265531D01*
X167056091Y-109263988D01*
X167094294Y-109263765D01*
X167314217Y-109263543D01*
X167330151Y-109217834D01*
X167340985Y-109185482D01*
X167346038Y-109167885D01*
X167346086Y-109167377D01*
X167332352Y-109165612D01*
X167294270Y-109163671D01*
X167236518Y-109161718D01*
X167163773Y-109159916D01*
X167095714Y-109158657D01*
X166845343Y-109154686D01*
X166845343Y-109067600D01*
X167073760Y-109063604D01*
X167302178Y-109059608D01*
X167324132Y-109017153D01*
X167339207Y-108985808D01*
X167346049Y-108967256D01*
X167346086Y-108966721D01*
X167332337Y-108964167D01*
G37*
X167332337Y-108964167D02*
X167294150Y-108961952D01*
X167236114Y-108960216D01*
X167162820Y-108959101D01*
X167085945Y-108958743D01*
X166825804Y-108958743D01*
X166779873Y-109004674D01*
X166751571Y-109036325D01*
X166740107Y-109064110D01*
X166740832Y-109102085D01*
X166742679Y-109117160D01*
X166748052Y-109164274D01*
X166751131Y-109203244D01*
X166751415Y-109212743D01*
X166749555Y-109244767D01*
X166744886Y-109290568D01*
X166742679Y-109308326D01*
X166739265Y-109351943D01*
X166746680Y-109381255D01*
X166769573Y-109410320D01*
X166779873Y-109420812D01*
X166825804Y-109466743D01*
X167312398Y-109466743D01*
X167329242Y-109429774D01*
X167341718Y-109397941D01*
X167346086Y-109379317D01*
X167332282Y-109374542D01*
X167293714Y-109370079D01*
X167234644Y-109366225D01*
X167159337Y-109363278D01*
X167095714Y-109361857D01*
X166845343Y-109357886D01*
X166840444Y-109323241D01*
X166843869Y-109291732D01*
X166854959Y-109276292D01*
X166875692Y-109271977D01*
X166919855Y-109268292D01*
X166981854Y-109265531D01*
X167056091Y-109263988D01*
X167094294Y-109263765D01*
X167314217Y-109263543D01*
X167330151Y-109217834D01*
X167340985Y-109185482D01*
X167346038Y-109167885D01*
X167346086Y-109167377D01*
X167332352Y-109165612D01*
X167294270Y-109163671D01*
X167236518Y-109161718D01*
X167163773Y-109159916D01*
X167095714Y-109158657D01*
X166845343Y-109154686D01*
X166845343Y-109067600D01*
X167073760Y-109063604D01*
X167302178Y-109059608D01*
X167324132Y-109017153D01*
X167339207Y-108985808D01*
X167346049Y-108967256D01*
X167346086Y-108966721D01*
X167332337Y-108964167D01*
G36*
X167225642Y-109553883D02*
G01*
X167117163Y-109554067D01*
X167033713Y-109554781D01*
X166971296Y-109556325D01*
X166925915Y-109558999D01*
X166893571Y-109563106D01*
X166870267Y-109568945D01*
X166852005Y-109576818D01*
X166841582Y-109582779D01*
X166785055Y-109632145D01*
X166749623Y-109694736D01*
X166736910Y-109763987D01*
X166748537Y-109833332D01*
X166769432Y-109874625D01*
X166805578Y-109917975D01*
X166849724Y-109947519D01*
X166907538Y-109965345D01*
X166984687Y-109973537D01*
X167041286Y-109974698D01*
X167045353Y-109974542D01*
X167045353Y-109873143D01*
X166980450Y-109872524D01*
X166937486Y-109869686D01*
X166909378Y-109863160D01*
X166889047Y-109851477D01*
X166873712Y-109837517D01*
X166844110Y-109790635D01*
X166841581Y-109740299D01*
X166866295Y-109692724D01*
X166869644Y-109689021D01*
X166887065Y-109673217D01*
X166907791Y-109663307D01*
X166938638Y-109657942D01*
X166986423Y-109655772D01*
X167039252Y-109655429D01*
X167105619Y-109656173D01*
X167149894Y-109659252D01*
X167178991Y-109665939D01*
X167199827Y-109677504D01*
X167210893Y-109686987D01*
X167238802Y-109731040D01*
X167242157Y-109781776D01*
X167220841Y-109830204D01*
X167212927Y-109839550D01*
X167195353Y-109855460D01*
X167174413Y-109865390D01*
X167143218Y-109870722D01*
X167094878Y-109872837D01*
X167045353Y-109873143D01*
X167045353Y-109974542D01*
X167132432Y-109971190D01*
X167200914Y-109959274D01*
X167252400Y-109936865D01*
X167292557Y-109901876D01*
X167313139Y-109874625D01*
X167335375Y-109825093D01*
X167345696Y-109767684D01*
X167342933Y-109714318D01*
X167331788Y-109684457D01*
X167328617Y-109672739D01*
X167340443Y-109664963D01*
X167372134Y-109659535D01*
X167420407Y-109655429D01*
X167474171Y-109650933D01*
X167506518Y-109644687D01*
X167525015Y-109633324D01*
X167537230Y-109613472D01*
X167542638Y-109601000D01*
X167562399Y-109553829D01*
X167225642Y-109553883D01*
G37*
X167225642Y-109553883D02*
X167117163Y-109554067D01*
X167033713Y-109554781D01*
X166971296Y-109556325D01*
X166925915Y-109558999D01*
X166893571Y-109563106D01*
X166870267Y-109568945D01*
X166852005Y-109576818D01*
X166841582Y-109582779D01*
X166785055Y-109632145D01*
X166749623Y-109694736D01*
X166736910Y-109763987D01*
X166748537Y-109833332D01*
X166769432Y-109874625D01*
X166805578Y-109917975D01*
X166849724Y-109947519D01*
X166907538Y-109965345D01*
X166984687Y-109973537D01*
X167041286Y-109974698D01*
X167045353Y-109974542D01*
X167045353Y-109873143D01*
X166980450Y-109872524D01*
X166937486Y-109869686D01*
X166909378Y-109863160D01*
X166889047Y-109851477D01*
X166873712Y-109837517D01*
X166844110Y-109790635D01*
X166841581Y-109740299D01*
X166866295Y-109692724D01*
X166869644Y-109689021D01*
X166887065Y-109673217D01*
X166907791Y-109663307D01*
X166938638Y-109657942D01*
X166986423Y-109655772D01*
X167039252Y-109655429D01*
X167105619Y-109656173D01*
X167149894Y-109659252D01*
X167178991Y-109665939D01*
X167199827Y-109677504D01*
X167210893Y-109686987D01*
X167238802Y-109731040D01*
X167242157Y-109781776D01*
X167220841Y-109830204D01*
X167212927Y-109839550D01*
X167195353Y-109855460D01*
X167174413Y-109865390D01*
X167143218Y-109870722D01*
X167094878Y-109872837D01*
X167045353Y-109873143D01*
X167045353Y-109974542D01*
X167132432Y-109971190D01*
X167200914Y-109959274D01*
X167252400Y-109936865D01*
X167292557Y-109901876D01*
X167313139Y-109874625D01*
X167335375Y-109825093D01*
X167345696Y-109767684D01*
X167342933Y-109714318D01*
X167331788Y-109684457D01*
X167328617Y-109672739D01*
X167340443Y-109664963D01*
X167372134Y-109659535D01*
X167420407Y-109655429D01*
X167474171Y-109650933D01*
X167506518Y-109644687D01*
X167525015Y-109633324D01*
X167537230Y-109613472D01*
X167542638Y-109601000D01*
X167562399Y-109553829D01*
X167225642Y-109553883D01*
G36*
X167341245Y-110214074D02*
G01*
X167316916Y-110148142D01*
X167273883Y-110094727D01*
X167243591Y-110073836D01*
X167188006Y-110051061D01*
X167147814Y-110051534D01*
X167120783Y-110075438D01*
X167116187Y-110084283D01*
X167101856Y-110122470D01*
X167105528Y-110141972D01*
X167129593Y-110148578D01*
X167142886Y-110148914D01*
X167191790Y-110161008D01*
X167226001Y-110192529D01*
X167242524Y-110236341D01*
X167238366Y-110285305D01*
X167216773Y-110325106D01*
X167204456Y-110338550D01*
X167189513Y-110348079D01*
X167166925Y-110354515D01*
X167131672Y-110358683D01*
X167078734Y-110361403D01*
X167003093Y-110363498D01*
X166979143Y-110364040D01*
X166897210Y-110366019D01*
X166839545Y-110368269D01*
X166801392Y-110371643D01*
X166777996Y-110376994D01*
X166764602Y-110385176D01*
X166756455Y-110397041D01*
X166752856Y-110404638D01*
X166740548Y-110436898D01*
X166736486Y-110455889D01*
X166750052Y-110462164D01*
X166791066Y-110465994D01*
X166860001Y-110467400D01*
X166957331Y-110466402D01*
X166972343Y-110466092D01*
X167061141Y-110463899D01*
X167125981Y-110461307D01*
X167171933Y-110457618D01*
X167204065Y-110452136D01*
X167227447Y-110444165D01*
X167247148Y-110433007D01*
X167255590Y-110427170D01*
X167292943Y-110393704D01*
X167321997Y-110356273D01*
X167324533Y-110351691D01*
X167344557Y-110284574D01*
X167341245Y-110214074D01*
G37*
X167341245Y-110214074D02*
X167316916Y-110148142D01*
X167273883Y-110094727D01*
X167243591Y-110073836D01*
X167188006Y-110051061D01*
X167147814Y-110051534D01*
X167120783Y-110075438D01*
X167116187Y-110084283D01*
X167101856Y-110122470D01*
X167105528Y-110141972D01*
X167129593Y-110148578D01*
X167142886Y-110148914D01*
X167191790Y-110161008D01*
X167226001Y-110192529D01*
X167242524Y-110236341D01*
X167238366Y-110285305D01*
X167216773Y-110325106D01*
X167204456Y-110338550D01*
X167189513Y-110348079D01*
X167166925Y-110354515D01*
X167131672Y-110358683D01*
X167078734Y-110361403D01*
X167003093Y-110363498D01*
X166979143Y-110364040D01*
X166897210Y-110366019D01*
X166839545Y-110368269D01*
X166801392Y-110371643D01*
X166777996Y-110376994D01*
X166764602Y-110385176D01*
X166756455Y-110397041D01*
X166752856Y-110404638D01*
X166740548Y-110436898D01*
X166736486Y-110455889D01*
X166750052Y-110462164D01*
X166791066Y-110465994D01*
X166860001Y-110467400D01*
X166957331Y-110466402D01*
X166972343Y-110466092D01*
X167061141Y-110463899D01*
X167125981Y-110461307D01*
X167171933Y-110457618D01*
X167204065Y-110452136D01*
X167227447Y-110444165D01*
X167247148Y-110433007D01*
X167255590Y-110427170D01*
X167292943Y-110393704D01*
X167321997Y-110356273D01*
X167324533Y-110351691D01*
X167344557Y-110284574D01*
X167341245Y-110214074D01*
G36*
X167340032Y-110704256D02*
G01*
X167318913Y-110647384D01*
X167318507Y-110646733D01*
X167292620Y-110611560D01*
X167262367Y-110585593D01*
X167222942Y-110567330D01*
X167169538Y-110555268D01*
X167097349Y-110547904D01*
X167001568Y-110543736D01*
X166987922Y-110543371D01*
X166782158Y-110538124D01*
X166759322Y-110582284D01*
X166743890Y-110614237D01*
X166736577Y-110633530D01*
X166736486Y-110634422D01*
X166749978Y-110637761D01*
X166786374Y-110640413D01*
X166839548Y-110642044D01*
X166882607Y-110642400D01*
X166952359Y-110642408D01*
X166996163Y-110645597D01*
X167017056Y-110656712D01*
X167018075Y-110680499D01*
X167002259Y-110721704D01*
X166973185Y-110783914D01*
X166949037Y-110829659D01*
X166928087Y-110853187D01*
X166905253Y-110860104D01*
X166904123Y-110860114D01*
X166864788Y-110848701D01*
X166843538Y-110814908D01*
X166840461Y-110763191D01*
X166840994Y-110725939D01*
X166830265Y-110706297D01*
X166804495Y-110694048D01*
X166771663Y-110686998D01*
X166753034Y-110697158D01*
X166750368Y-110700983D01*
X166739660Y-110736999D01*
X166738144Y-110787434D01*
X166745241Y-110839374D01*
X166758212Y-110876178D01*
X166801415Y-110927062D01*
X166861554Y-110955986D01*
X166908538Y-110961714D01*
X166950918Y-110957343D01*
X166985512Y-110941525D01*
X167016237Y-110910203D01*
X167047010Y-110859322D01*
X167081748Y-110784824D01*
X167083712Y-110780286D01*
X167114713Y-110713179D01*
X167140138Y-110671768D01*
X167162986Y-110654019D01*
X167186255Y-110657893D01*
X167212944Y-110681357D01*
X167219086Y-110688373D01*
X167242900Y-110735370D01*
X167241897Y-110784067D01*
X167218549Y-110826478D01*
X167175325Y-110854616D01*
X167166840Y-110857231D01*
X167125692Y-110882692D01*
X167105872Y-110914999D01*
X167086230Y-110961714D01*
X167137050Y-110961714D01*
X167210918Y-110947504D01*
X167278673Y-110905325D01*
X167301339Y-110883376D01*
X167330431Y-110833483D01*
X167343600Y-110770033D01*
X167340032Y-110704256D01*
G37*
X167340032Y-110704256D02*
X167318913Y-110647384D01*
X167318507Y-110646733D01*
X167292620Y-110611560D01*
X167262367Y-110585593D01*
X167222942Y-110567330D01*
X167169538Y-110555268D01*
X167097349Y-110547904D01*
X167001568Y-110543736D01*
X166987922Y-110543371D01*
X166782158Y-110538124D01*
X166759322Y-110582284D01*
X166743890Y-110614237D01*
X166736577Y-110633530D01*
X166736486Y-110634422D01*
X166749978Y-110637761D01*
X166786374Y-110640413D01*
X166839548Y-110642044D01*
X166882607Y-110642400D01*
X166952359Y-110642408D01*
X166996163Y-110645597D01*
X167017056Y-110656712D01*
X167018075Y-110680499D01*
X167002259Y-110721704D01*
X166973185Y-110783914D01*
X166949037Y-110829659D01*
X166928087Y-110853187D01*
X166905253Y-110860104D01*
X166904123Y-110860114D01*
X166864788Y-110848701D01*
X166843538Y-110814908D01*
X166840461Y-110763191D01*
X166840994Y-110725939D01*
X166830265Y-110706297D01*
X166804495Y-110694048D01*
X166771663Y-110686998D01*
X166753034Y-110697158D01*
X166750368Y-110700983D01*
X166739660Y-110736999D01*
X166738144Y-110787434D01*
X166745241Y-110839374D01*
X166758212Y-110876178D01*
X166801415Y-110927062D01*
X166861554Y-110955986D01*
X166908538Y-110961714D01*
X166950918Y-110957343D01*
X166985512Y-110941525D01*
X167016237Y-110910203D01*
X167047010Y-110859322D01*
X167081748Y-110784824D01*
X167083712Y-110780286D01*
X167114713Y-110713179D01*
X167140138Y-110671768D01*
X167162986Y-110654019D01*
X167186255Y-110657893D01*
X167212944Y-110681357D01*
X167219086Y-110688373D01*
X167242900Y-110735370D01*
X167241897Y-110784067D01*
X167218549Y-110826478D01*
X167175325Y-110854616D01*
X167166840Y-110857231D01*
X167125692Y-110882692D01*
X167105872Y-110914999D01*
X167086230Y-110961714D01*
X167137050Y-110961714D01*
X167210918Y-110947504D01*
X167278673Y-110905325D01*
X167301339Y-110883376D01*
X167330431Y-110833483D01*
X167343600Y-110770033D01*
X167340032Y-110704256D01*
G36*
X167439711Y-111368114D02*
G01*
X167380387Y-111363861D01*
X167345428Y-111358975D01*
X167330180Y-111352205D01*
X167329985Y-111342298D01*
X167331805Y-111339086D01*
X167344985Y-111296356D01*
X167344215Y-111240773D01*
X167330667Y-111184263D01*
X167313139Y-111148918D01*
X167285139Y-111112679D01*
X167253451Y-111086187D01*
X167213187Y-111068001D01*
X167159457Y-111056678D01*
X167087374Y-111050778D01*
X166992049Y-111048857D01*
X166973763Y-111048823D01*
X166768354Y-111048800D01*
X166752420Y-111094509D01*
X166741580Y-111126973D01*
X166736532Y-111144785D01*
X166736486Y-111145309D01*
X166750172Y-111147063D01*
X166787924Y-111148556D01*
X166844776Y-111149674D01*
X166915766Y-111150303D01*
X166958927Y-111150400D01*
X167044027Y-111150602D01*
X167105019Y-111151642D01*
X167146823Y-111154169D01*
X167174358Y-111158836D01*
X167192544Y-111166293D01*
X167206302Y-111177189D01*
X167212927Y-111183993D01*
X167239625Y-111230728D01*
X167241625Y-111281728D01*
X167219045Y-111327999D01*
X167210893Y-111336556D01*
X167195564Y-111349107D01*
X167177382Y-111357812D01*
X167151091Y-111363369D01*
X167111438Y-111366474D01*
X167053168Y-111367824D01*
X166972827Y-111368114D01*
X166768354Y-111368114D01*
X166752420Y-111413823D01*
X166741580Y-111446287D01*
X166736532Y-111464099D01*
X166736486Y-111464623D01*
X166750377Y-111465963D01*
X166789561Y-111467172D01*
X166850300Y-111468199D01*
X166928859Y-111468998D01*
X167021502Y-111469519D01*
X167124491Y-111469714D01*
X167521658Y-111469714D01*
X167541556Y-111422543D01*
X167561453Y-111375371D01*
X167439711Y-111368114D01*
G37*
X167439711Y-111368114D02*
X167380387Y-111363861D01*
X167345428Y-111358975D01*
X167330180Y-111352205D01*
X167329985Y-111342298D01*
X167331805Y-111339086D01*
X167344985Y-111296356D01*
X167344215Y-111240773D01*
X167330667Y-111184263D01*
X167313139Y-111148918D01*
X167285139Y-111112679D01*
X167253451Y-111086187D01*
X167213187Y-111068001D01*
X167159457Y-111056678D01*
X167087374Y-111050778D01*
X166992049Y-111048857D01*
X166973763Y-111048823D01*
X166768354Y-111048800D01*
X166752420Y-111094509D01*
X166741580Y-111126973D01*
X166736532Y-111144785D01*
X166736486Y-111145309D01*
X166750172Y-111147063D01*
X166787924Y-111148556D01*
X166844776Y-111149674D01*
X166915766Y-111150303D01*
X166958927Y-111150400D01*
X167044027Y-111150602D01*
X167105019Y-111151642D01*
X167146823Y-111154169D01*
X167174358Y-111158836D01*
X167192544Y-111166293D01*
X167206302Y-111177189D01*
X167212927Y-111183993D01*
X167239625Y-111230728D01*
X167241625Y-111281728D01*
X167219045Y-111327999D01*
X167210893Y-111336556D01*
X167195564Y-111349107D01*
X167177382Y-111357812D01*
X167151091Y-111363369D01*
X167111438Y-111366474D01*
X167053168Y-111367824D01*
X166972827Y-111368114D01*
X166768354Y-111368114D01*
X166752420Y-111413823D01*
X166741580Y-111446287D01*
X166736532Y-111464099D01*
X166736486Y-111464623D01*
X166750377Y-111465963D01*
X166789561Y-111467172D01*
X166850300Y-111468199D01*
X166928859Y-111468998D01*
X167021502Y-111469519D01*
X167124491Y-111469714D01*
X167521658Y-111469714D01*
X167541556Y-111422543D01*
X167561453Y-111375371D01*
X167439711Y-111368114D01*
G36*
X167359761Y-112575697D02*
G01*
X167321265Y-112518473D01*
X167265665Y-112474251D01*
X167194914Y-112447833D01*
X167142838Y-112442490D01*
X167121107Y-112443097D01*
X167104469Y-112448178D01*
X167089563Y-112462145D01*
X167073027Y-112489411D01*
X167051502Y-112534388D01*
X167021626Y-112601489D01*
X167021476Y-112601829D01*
X166993187Y-112663593D01*
X166968067Y-112714241D01*
X166948821Y-112748596D01*
X166938152Y-112761482D01*
X166938066Y-112761486D01*
X166914834Y-112750128D01*
X166889226Y-112723569D01*
X166870779Y-112693077D01*
X166867114Y-112677630D01*
X166879788Y-112635485D01*
X166911529Y-112599192D01*
X166946428Y-112581483D01*
X166972155Y-112564448D01*
X167001454Y-112531078D01*
X167026765Y-112491851D01*
X167040529Y-112457244D01*
X167041286Y-112450007D01*
X167028840Y-112441861D01*
X166997028Y-112441370D01*
X166954134Y-112447357D01*
X166908442Y-112458643D01*
X166868239Y-112474050D01*
X166866678Y-112474829D01*
X166801938Y-112521196D01*
X166757903Y-112581289D01*
X166736289Y-112649535D01*
X166738815Y-112720362D01*
X166767196Y-112788196D01*
X166769192Y-112791212D01*
X166817552Y-112844573D01*
X166880648Y-112879660D01*
X166963613Y-112899078D01*
X166986922Y-112901684D01*
X167096945Y-112906299D01*
X167148252Y-112900767D01*
X167148252Y-112761486D01*
X167116247Y-112759676D01*
X167106907Y-112749778D01*
X167113895Y-112725102D01*
X167130413Y-112686205D01*
X167151119Y-112642725D01*
X167151667Y-112641644D01*
X167171051Y-112604791D01*
X167183987Y-112590000D01*
X167197549Y-112593647D01*
X167215368Y-112609005D01*
X167241155Y-112648077D01*
X167243050Y-112690154D01*
X167224283Y-112727897D01*
X167188085Y-112753966D01*
X167148252Y-112761486D01*
X167148252Y-112900767D01*
X167184973Y-112896806D01*
X167254788Y-112872450D01*
X167303698Y-112838544D01*
X167353122Y-112777347D01*
X167377641Y-112709937D01*
X167379203Y-112641120D01*
X167359761Y-112575697D01*
G37*
X167359761Y-112575697D02*
X167321265Y-112518473D01*
X167265665Y-112474251D01*
X167194914Y-112447833D01*
X167142838Y-112442490D01*
X167121107Y-112443097D01*
X167104469Y-112448178D01*
X167089563Y-112462145D01*
X167073027Y-112489411D01*
X167051502Y-112534388D01*
X167021626Y-112601489D01*
X167021476Y-112601829D01*
X166993187Y-112663593D01*
X166968067Y-112714241D01*
X166948821Y-112748596D01*
X166938152Y-112761482D01*
X166938066Y-112761486D01*
X166914834Y-112750128D01*
X166889226Y-112723569D01*
X166870779Y-112693077D01*
X166867114Y-112677630D01*
X166879788Y-112635485D01*
X166911529Y-112599192D01*
X166946428Y-112581483D01*
X166972155Y-112564448D01*
X167001454Y-112531078D01*
X167026765Y-112491851D01*
X167040529Y-112457244D01*
X167041286Y-112450007D01*
X167028840Y-112441861D01*
X166997028Y-112441370D01*
X166954134Y-112447357D01*
X166908442Y-112458643D01*
X166868239Y-112474050D01*
X166866678Y-112474829D01*
X166801938Y-112521196D01*
X166757903Y-112581289D01*
X166736289Y-112649535D01*
X166738815Y-112720362D01*
X166767196Y-112788196D01*
X166769192Y-112791212D01*
X166817552Y-112844573D01*
X166880648Y-112879660D01*
X166963613Y-112899078D01*
X166986922Y-112901684D01*
X167096945Y-112906299D01*
X167148252Y-112900767D01*
X167148252Y-112761486D01*
X167116247Y-112759676D01*
X167106907Y-112749778D01*
X167113895Y-112725102D01*
X167130413Y-112686205D01*
X167151119Y-112642725D01*
X167151667Y-112641644D01*
X167171051Y-112604791D01*
X167183987Y-112590000D01*
X167197549Y-112593647D01*
X167215368Y-112609005D01*
X167241155Y-112648077D01*
X167243050Y-112690154D01*
X167224283Y-112727897D01*
X167188085Y-112753966D01*
X167148252Y-112761486D01*
X167148252Y-112900767D01*
X167184973Y-112896806D01*
X167254788Y-112872450D01*
X167303698Y-112838544D01*
X167353122Y-112777347D01*
X167377641Y-112709937D01*
X167379203Y-112641120D01*
X167359761Y-112575697D01*
G36*
X167369038Y-113702885D02*
G01*
X167333267Y-113634855D01*
X167275699Y-113584649D01*
X167238688Y-113566815D01*
X167183118Y-113552937D01*
X167112904Y-113545833D01*
X167036273Y-113545160D01*
X166961448Y-113550573D01*
X166896658Y-113561730D01*
X166850127Y-113578286D01*
X166842113Y-113583374D01*
X166782293Y-113643645D01*
X166746465Y-113715231D01*
X166735980Y-113792908D01*
X166752190Y-113871452D01*
X166761908Y-113893311D01*
X166791857Y-113935878D01*
X166831567Y-113973237D01*
X166836603Y-113976768D01*
X166860876Y-113991119D01*
X166886822Y-114000606D01*
X166920978Y-114006210D01*
X166969881Y-114008914D01*
X167040065Y-114009701D01*
X167055800Y-114009714D01*
X167060808Y-114009678D01*
X167060808Y-113864571D01*
X166994570Y-113863727D01*
X166950614Y-113860404D01*
X166922221Y-113853417D01*
X166902675Y-113841584D01*
X166896143Y-113835543D01*
X166871320Y-113800814D01*
X166872452Y-113767097D01*
X166893984Y-113733005D01*
X166916971Y-113712671D01*
X166950522Y-113700629D01*
X167003431Y-113693866D01*
X167009601Y-113693402D01*
X167105487Y-113692248D01*
X167176701Y-113704312D01*
X167222806Y-113729430D01*
X167243365Y-113767440D01*
X167244486Y-113781008D01*
X167238848Y-113816636D01*
X167219314Y-113841006D01*
X167181958Y-113855907D01*
X167122850Y-113863125D01*
X167060808Y-113864571D01*
X167060808Y-114009678D01*
X167130587Y-114009174D01*
X167182841Y-114006904D01*
X167219051Y-114001932D01*
X167245701Y-113993287D01*
X167269278Y-113979995D01*
X167273662Y-113977057D01*
X167332751Y-113927687D01*
X167367053Y-113873891D01*
X167380669Y-113808398D01*
X167381335Y-113786158D01*
X167369038Y-113702885D01*
G37*
X167369038Y-113702885D02*
X167333267Y-113634855D01*
X167275699Y-113584649D01*
X167238688Y-113566815D01*
X167183118Y-113552937D01*
X167112904Y-113545833D01*
X167036273Y-113545160D01*
X166961448Y-113550573D01*
X166896658Y-113561730D01*
X166850127Y-113578286D01*
X166842113Y-113583374D01*
X166782293Y-113643645D01*
X166746465Y-113715231D01*
X166735980Y-113792908D01*
X166752190Y-113871452D01*
X166761908Y-113893311D01*
X166791857Y-113935878D01*
X166831567Y-113973237D01*
X166836603Y-113976768D01*
X166860876Y-113991119D01*
X166886822Y-114000606D01*
X166920978Y-114006210D01*
X166969881Y-114008914D01*
X167040065Y-114009701D01*
X167055800Y-114009714D01*
X167060808Y-114009678D01*
X167060808Y-113864571D01*
X166994570Y-113863727D01*
X166950614Y-113860404D01*
X166922221Y-113853417D01*
X166902675Y-113841584D01*
X166896143Y-113835543D01*
X166871320Y-113800814D01*
X166872452Y-113767097D01*
X166893984Y-113733005D01*
X166916971Y-113712671D01*
X166950522Y-113700629D01*
X167003431Y-113693866D01*
X167009601Y-113693402D01*
X167105487Y-113692248D01*
X167176701Y-113704312D01*
X167222806Y-113729430D01*
X167243365Y-113767440D01*
X167244486Y-113781008D01*
X167238848Y-113816636D01*
X167219314Y-113841006D01*
X167181958Y-113855907D01*
X167122850Y-113863125D01*
X167060808Y-113864571D01*
X167060808Y-114009678D01*
X167130587Y-114009174D01*
X167182841Y-114006904D01*
X167219051Y-114001932D01*
X167245701Y-113993287D01*
X167269278Y-113979995D01*
X167273662Y-113977057D01*
X167332751Y-113927687D01*
X167367053Y-113873891D01*
X167380669Y-113808398D01*
X167381335Y-113786158D01*
X167369038Y-113702885D01*
G36*
X167363220Y-112027907D02*
G01*
X167336277Y-111981328D01*
X167309534Y-111948943D01*
X167281516Y-111925258D01*
X167247252Y-111908941D01*
X167201773Y-111898661D01*
X167140108Y-111893086D01*
X167057289Y-111890884D01*
X166997754Y-111890629D01*
X166778609Y-111890629D01*
X166750956Y-111952314D01*
X166723303Y-112014000D01*
X166963330Y-112021257D01*
X167052972Y-112024256D01*
X167118038Y-112027402D01*
X167162974Y-112031299D01*
X167192230Y-112036553D01*
X167210252Y-112043769D01*
X167221489Y-112053550D01*
X167223921Y-112056688D01*
X167242917Y-112104239D01*
X167235400Y-112152303D01*
X167215457Y-112180914D01*
X167201325Y-112192553D01*
X167182780Y-112200609D01*
X167154666Y-112205729D01*
X167111827Y-112208559D01*
X167049105Y-112209744D01*
X166983739Y-112209943D01*
X166901732Y-112209982D01*
X166843684Y-112211386D01*
X166804535Y-112216086D01*
X166779220Y-112226013D01*
X166762677Y-112243097D01*
X166749844Y-112269268D01*
X166736509Y-112304225D01*
X166721993Y-112342404D01*
X166979611Y-112337859D01*
X167072481Y-112336029D01*
X167141111Y-112333888D01*
X167190289Y-112330819D01*
X167224802Y-112326206D01*
X167249438Y-112319432D01*
X167268984Y-112309881D01*
X167286230Y-112298366D01*
X167341320Y-112242810D01*
X167373178Y-112175020D01*
X167380809Y-112101287D01*
X167363220Y-112027907D01*
G37*
X167363220Y-112027907D02*
X167336277Y-111981328D01*
X167309534Y-111948943D01*
X167281516Y-111925258D01*
X167247252Y-111908941D01*
X167201773Y-111898661D01*
X167140108Y-111893086D01*
X167057289Y-111890884D01*
X166997754Y-111890629D01*
X166778609Y-111890629D01*
X166750956Y-111952314D01*
X166723303Y-112014000D01*
X166963330Y-112021257D01*
X167052972Y-112024256D01*
X167118038Y-112027402D01*
X167162974Y-112031299D01*
X167192230Y-112036553D01*
X167210252Y-112043769D01*
X167221489Y-112053550D01*
X167223921Y-112056688D01*
X167242917Y-112104239D01*
X167235400Y-112152303D01*
X167215457Y-112180914D01*
X167201325Y-112192553D01*
X167182780Y-112200609D01*
X167154666Y-112205729D01*
X167111827Y-112208559D01*
X167049105Y-112209744D01*
X166983739Y-112209943D01*
X166901732Y-112209982D01*
X166843684Y-112211386D01*
X166804535Y-112216086D01*
X166779220Y-112226013D01*
X166762677Y-112243097D01*
X166749844Y-112269268D01*
X166736509Y-112304225D01*
X166721993Y-112342404D01*
X166979611Y-112337859D01*
X167072481Y-112336029D01*
X167141111Y-112333888D01*
X167190289Y-112330819D01*
X167224802Y-112326206D01*
X167249438Y-112319432D01*
X167268984Y-112309881D01*
X167286230Y-112298366D01*
X167341320Y-112242810D01*
X167373178Y-112175020D01*
X167380809Y-112101287D01*
X167363220Y-112027907D01*
G36*
X167371082Y-113144256D02*
G01*
X167343432Y-113088799D01*
X167292520Y-113039852D01*
X167273662Y-113026371D01*
X167248985Y-113011686D01*
X167222184Y-113002158D01*
X167186413Y-112996707D01*
X167134831Y-112994253D01*
X167066733Y-112993714D01*
X166973412Y-112996148D01*
X166903343Y-113004606D01*
X166851069Y-113020826D01*
X166811131Y-113046546D01*
X166778071Y-113083503D01*
X166776114Y-113086218D01*
X166756092Y-113122640D01*
X166746185Y-113166498D01*
X166743743Y-113222276D01*
X166743743Y-113312952D01*
X166655717Y-113312990D01*
X166606692Y-113313834D01*
X166577935Y-113318976D01*
X166560689Y-113332413D01*
X166546192Y-113358142D01*
X166543231Y-113364321D01*
X166529352Y-113393236D01*
X166520586Y-113415624D01*
X166519829Y-113432271D01*
X166529977Y-113443964D01*
X166553927Y-113451490D01*
X166594574Y-113455634D01*
X166654814Y-113457185D01*
X166737545Y-113456929D01*
X166845661Y-113455651D01*
X166878000Y-113455252D01*
X166989476Y-113453815D01*
X167062397Y-113452528D01*
X167062397Y-113313029D01*
X167000501Y-113312245D01*
X166960003Y-113308760D01*
X166933292Y-113300876D01*
X166912756Y-113286895D01*
X166902740Y-113277403D01*
X166873433Y-113238596D01*
X166871048Y-113204237D01*
X166895250Y-113168784D01*
X166896143Y-113167886D01*
X166914847Y-113153461D01*
X166940268Y-113144687D01*
X166979416Y-113140261D01*
X167039303Y-113138882D01*
X167052570Y-113138857D01*
X167135099Y-113142188D01*
X167192309Y-113153031D01*
X167227234Y-113172660D01*
X167242906Y-113202350D01*
X167244486Y-113219509D01*
X167237074Y-113260234D01*
X167212670Y-113288168D01*
X167168020Y-113304983D01*
X167099870Y-113312350D01*
X167062397Y-113313029D01*
X167062397Y-113452528D01*
X167075755Y-113452292D01*
X167140667Y-113450323D01*
X167188042Y-113447550D01*
X167221710Y-113443612D01*
X167245502Y-113438151D01*
X167263247Y-113430808D01*
X167278776Y-113421223D01*
X167284619Y-113417113D01*
X167339815Y-113362595D01*
X167371110Y-113293664D01*
X167379835Y-113213928D01*
X167371082Y-113144256D01*
G37*
X167371082Y-113144256D02*
X167343432Y-113088799D01*
X167292520Y-113039852D01*
X167273662Y-113026371D01*
X167248985Y-113011686D01*
X167222184Y-113002158D01*
X167186413Y-112996707D01*
X167134831Y-112994253D01*
X167066733Y-112993714D01*
X166973412Y-112996148D01*
X166903343Y-113004606D01*
X166851069Y-113020826D01*
X166811131Y-113046546D01*
X166778071Y-113083503D01*
X166776114Y-113086218D01*
X166756092Y-113122640D01*
X166746185Y-113166498D01*
X166743743Y-113222276D01*
X166743743Y-113312952D01*
X166655717Y-113312990D01*
X166606692Y-113313834D01*
X166577935Y-113318976D01*
X166560689Y-113332413D01*
X166546192Y-113358142D01*
X166543231Y-113364321D01*
X166529352Y-113393236D01*
X166520586Y-113415624D01*
X166519829Y-113432271D01*
X166529977Y-113443964D01*
X166553927Y-113451490D01*
X166594574Y-113455634D01*
X166654814Y-113457185D01*
X166737545Y-113456929D01*
X166845661Y-113455651D01*
X166878000Y-113455252D01*
X166989476Y-113453815D01*
X167062397Y-113452528D01*
X167062397Y-113313029D01*
X167000501Y-113312245D01*
X166960003Y-113308760D01*
X166933292Y-113300876D01*
X166912756Y-113286895D01*
X166902740Y-113277403D01*
X166873433Y-113238596D01*
X166871048Y-113204237D01*
X166895250Y-113168784D01*
X166896143Y-113167886D01*
X166914847Y-113153461D01*
X166940268Y-113144687D01*
X166979416Y-113140261D01*
X167039303Y-113138882D01*
X167052570Y-113138857D01*
X167135099Y-113142188D01*
X167192309Y-113153031D01*
X167227234Y-113172660D01*
X167242906Y-113202350D01*
X167244486Y-113219509D01*
X167237074Y-113260234D01*
X167212670Y-113288168D01*
X167168020Y-113304983D01*
X167099870Y-113312350D01*
X167062397Y-113313029D01*
X167062397Y-113452528D01*
X167075755Y-113452292D01*
X167140667Y-113450323D01*
X167188042Y-113447550D01*
X167221710Y-113443612D01*
X167245502Y-113438151D01*
X167263247Y-113430808D01*
X167278776Y-113421223D01*
X167284619Y-113417113D01*
X167339815Y-113362595D01*
X167371110Y-113293664D01*
X167379835Y-113213928D01*
X167371082Y-113144256D01*
%TD*%
M02*
