%TF.GenerationSoftware,KiCad,Pcbnew,(5.1.7)-1*%
%TF.CreationDate,2020-11-29T11:25:41+01:00*%
%TF.ProjectId,PickitUp,5069636b-6974-4557-902e-6b696361645f,rev?*%
%TF.SameCoordinates,Original*%
%TF.FileFunction,Soldermask,Bot*%
%TF.FilePolarity,Negative*%
%FSLAX46Y46*%
G04 Gerber Fmt 4.6, Leading zero omitted, Abs format (unit mm)*
G04 Created by KiCad (PCBNEW (5.1.7)-1) date 2020-11-29 11:25:41*
%MOMM*%
%LPD*%
G01*
G04 APERTURE LIST*
%ADD10C,1.700000*%
%ADD11R,1.700000X1.700000*%
%ADD12O,1.700000X1.700000*%
%ADD13R,1.000000X1.000000*%
%ADD14O,1.000000X1.000000*%
G04 APERTURE END LIST*
D10*
%TO.C,J3*%
X187452000Y-86868000D03*
X187452000Y-89408000D03*
X187452000Y-91948000D03*
X187452000Y-94488000D03*
X187452000Y-97028000D03*
X187452000Y-99568000D03*
X187452000Y-102108000D03*
X187452000Y-104648000D03*
X187452000Y-107188000D03*
X187452000Y-109728000D03*
X189992000Y-86868000D03*
X189992000Y-89408000D03*
X189992000Y-91948000D03*
X189992000Y-94488000D03*
X189992000Y-97028000D03*
X189992000Y-99568000D03*
X189992000Y-102108000D03*
X189992000Y-104648000D03*
X189992000Y-107188000D03*
G36*
G01*
X190842000Y-109128000D02*
X190842000Y-110328000D01*
G75*
G02*
X190592000Y-110578000I-250000J0D01*
G01*
X189392000Y-110578000D01*
G75*
G02*
X189142000Y-110328000I0J250000D01*
G01*
X189142000Y-109128000D01*
G75*
G02*
X189392000Y-108878000I250000J0D01*
G01*
X190592000Y-108878000D01*
G75*
G02*
X190842000Y-109128000I0J-250000D01*
G01*
G37*
%TD*%
D11*
%TO.C,J1*%
X196850000Y-107188000D03*
D12*
X196850000Y-104648000D03*
X196850000Y-102108000D03*
X196850000Y-99568000D03*
X196850000Y-97028000D03*
X196850000Y-94488000D03*
X196850000Y-91948000D03*
D10*
X196850000Y-89408000D03*
%TD*%
D12*
%TO.C,J7*%
X162941000Y-101981000D03*
X162941000Y-99441000D03*
X162941000Y-96901000D03*
D11*
X162941000Y-94361000D03*
%TD*%
D13*
%TO.C,J5*%
X163576000Y-88138000D03*
D14*
X162306000Y-88138000D03*
X163576000Y-86868000D03*
X162306000Y-86868000D03*
X163576000Y-85598000D03*
X162306000Y-85598000D03*
X163576000Y-84328000D03*
X162306000Y-84328000D03*
X163576000Y-83058000D03*
X162306000Y-83058000D03*
%TD*%
D10*
%TO.C,J4*%
X173736000Y-84328000D03*
X173736000Y-86868000D03*
X173736000Y-89408000D03*
X173736000Y-91948000D03*
X173736000Y-94488000D03*
X176276000Y-84328000D03*
X176276000Y-86868000D03*
X176276000Y-89408000D03*
X176276000Y-91948000D03*
G36*
G01*
X177126000Y-93888000D02*
X177126000Y-95088000D01*
G75*
G02*
X176876000Y-95338000I-250000J0D01*
G01*
X175676000Y-95338000D01*
G75*
G02*
X175426000Y-95088000I0J250000D01*
G01*
X175426000Y-93888000D01*
G75*
G02*
X175676000Y-93638000I250000J0D01*
G01*
X176876000Y-93638000D01*
G75*
G02*
X177126000Y-93888000I0J-250000D01*
G01*
G37*
%TD*%
%TO.C,J6*%
X173736000Y-107188000D03*
X173736000Y-109728000D03*
X173736000Y-112268000D03*
X176276000Y-107188000D03*
X176276000Y-109728000D03*
G36*
G01*
X177126000Y-111668000D02*
X177126000Y-112868000D01*
G75*
G02*
X176876000Y-113118000I-250000J0D01*
G01*
X175676000Y-113118000D01*
G75*
G02*
X175426000Y-112868000I0J250000D01*
G01*
X175426000Y-111668000D01*
G75*
G02*
X175676000Y-111418000I250000J0D01*
G01*
X176876000Y-111418000D01*
G75*
G02*
X177126000Y-111668000I0J-250000D01*
G01*
G37*
%TD*%
D13*
%TO.C,J2*%
X163576000Y-113538000D03*
D14*
X162306000Y-113538000D03*
X163576000Y-112268000D03*
X162306000Y-112268000D03*
X163576000Y-110998000D03*
X162306000Y-110998000D03*
X163576000Y-109728000D03*
X162306000Y-109728000D03*
X163576000Y-108458000D03*
X162306000Y-108458000D03*
%TD*%
M02*
