%TF.GenerationSoftware,KiCad,Pcbnew,(5.1.7)-1*%
%TF.CreationDate,2020-11-29T11:25:41+01:00*%
%TF.ProjectId,PickitUp,5069636b-6974-4557-902e-6b696361645f,rev?*%
%TF.SameCoordinates,Original*%
%TF.FileFunction,Copper,L1,Top*%
%TF.FilePolarity,Positive*%
%FSLAX46Y46*%
G04 Gerber Fmt 4.6, Leading zero omitted, Abs format (unit mm)*
G04 Created by KiCad (PCBNEW (5.1.7)-1) date 2020-11-29 11:25:41*
%MOMM*%
%LPD*%
G01*
G04 APERTURE LIST*
%TA.AperFunction,EtchedComponent*%
%ADD10C,0.100000*%
%TD*%
%TA.AperFunction,ComponentPad*%
%ADD11C,1.700000*%
%TD*%
%TA.AperFunction,SMDPad,CuDef*%
%ADD12R,1.000000X1.500000*%
%TD*%
%TA.AperFunction,ComponentPad*%
%ADD13R,1.700000X1.700000*%
%TD*%
%TA.AperFunction,ComponentPad*%
%ADD14O,1.700000X1.700000*%
%TD*%
%TA.AperFunction,ComponentPad*%
%ADD15R,1.000000X1.000000*%
%TD*%
%TA.AperFunction,ComponentPad*%
%ADD16O,1.000000X1.000000*%
%TD*%
%TA.AperFunction,ViaPad*%
%ADD17C,0.800000*%
%TD*%
%TA.AperFunction,Conductor*%
%ADD18C,0.250000*%
%TD*%
%TA.AperFunction,Conductor*%
%ADD19C,0.500000*%
%TD*%
%TA.AperFunction,Conductor*%
%ADD20C,1.000000*%
%TD*%
%TA.AperFunction,Conductor*%
%ADD21C,0.254000*%
%TD*%
%TA.AperFunction,Conductor*%
%ADD22C,0.100000*%
%TD*%
G04 APERTURE END LIST*
D10*
%TO.C,JP1*%
G36*
X199020000Y-84882000D02*
G01*
X198520000Y-84882000D01*
X198520000Y-84282000D01*
X199020000Y-84282000D01*
X199020000Y-84882000D01*
G37*
%TD*%
%TO.P,R1,2*%
%TO.N,Net-(D1-Pad1)*%
%TA.AperFunction,SMDPad,CuDef*%
G36*
G01*
X197625000Y-112512000D02*
X197625000Y-111262000D01*
G75*
G02*
X197875000Y-111012000I250000J0D01*
G01*
X198800000Y-111012000D01*
G75*
G02*
X199050000Y-111262000I0J-250000D01*
G01*
X199050000Y-112512000D01*
G75*
G02*
X198800000Y-112762000I-250000J0D01*
G01*
X197875000Y-112762000D01*
G75*
G02*
X197625000Y-112512000I0J250000D01*
G01*
G37*
%TD.AperFunction*%
%TO.P,R1,1*%
%TO.N,/VDD*%
%TA.AperFunction,SMDPad,CuDef*%
G36*
G01*
X194650000Y-112512000D02*
X194650000Y-111262000D01*
G75*
G02*
X194900000Y-111012000I250000J0D01*
G01*
X195825000Y-111012000D01*
G75*
G02*
X196075000Y-111262000I0J-250000D01*
G01*
X196075000Y-112512000D01*
G75*
G02*
X195825000Y-112762000I-250000J0D01*
G01*
X194900000Y-112762000D01*
G75*
G02*
X194650000Y-112512000I0J250000D01*
G01*
G37*
%TD.AperFunction*%
%TD*%
%TO.P,D1,2*%
%TO.N,/GND*%
%TA.AperFunction,SMDPad,CuDef*%
G36*
G01*
X196075000Y-114056000D02*
X196075000Y-115306000D01*
G75*
G02*
X195825000Y-115556000I-250000J0D01*
G01*
X194900000Y-115556000D01*
G75*
G02*
X194650000Y-115306000I0J250000D01*
G01*
X194650000Y-114056000D01*
G75*
G02*
X194900000Y-113806000I250000J0D01*
G01*
X195825000Y-113806000D01*
G75*
G02*
X196075000Y-114056000I0J-250000D01*
G01*
G37*
%TD.AperFunction*%
%TO.P,D1,1*%
%TO.N,Net-(D1-Pad1)*%
%TA.AperFunction,SMDPad,CuDef*%
G36*
G01*
X199050000Y-114056000D02*
X199050000Y-115306000D01*
G75*
G02*
X198800000Y-115556000I-250000J0D01*
G01*
X197875000Y-115556000D01*
G75*
G02*
X197625000Y-115306000I0J250000D01*
G01*
X197625000Y-114056000D01*
G75*
G02*
X197875000Y-113806000I250000J0D01*
G01*
X198800000Y-113806000D01*
G75*
G02*
X199050000Y-114056000I0J-250000D01*
G01*
G37*
%TD.AperFunction*%
%TD*%
D11*
%TO.P,J3,20*%
%TO.N,/GND*%
X187452000Y-86868000D03*
%TO.P,J3,18*%
X187452000Y-89408000D03*
%TO.P,J3,16*%
X187452000Y-91948000D03*
%TO.P,J3,14*%
X187452000Y-94488000D03*
%TO.P,J3,12*%
X187452000Y-97028000D03*
%TO.P,J3,10*%
X187452000Y-99568000D03*
%TO.P,J3,8*%
X187452000Y-102108000D03*
%TO.P,J3,6*%
X187452000Y-104648000D03*
%TO.P,J3,4*%
X187452000Y-107188000D03*
%TO.P,J3,2*%
%TO.N,N/C*%
X187452000Y-109728000D03*
%TO.P,J3,19*%
X189992000Y-86868000D03*
%TO.P,J3,17*%
X189992000Y-89408000D03*
%TO.P,J3,15*%
%TO.N,/RESET*%
X189992000Y-91948000D03*
%TO.P,J3,13*%
%TO.N,/PGD*%
X189992000Y-94488000D03*
%TO.P,J3,11*%
%TO.N,N/C*%
X189992000Y-97028000D03*
%TO.P,J3,9*%
%TO.N,/PGC*%
X189992000Y-99568000D03*
%TO.P,J3,7*%
%TO.N,/TMS*%
X189992000Y-102108000D03*
%TO.P,J3,5*%
%TO.N,/TDI*%
X189992000Y-104648000D03*
%TO.P,J3,3*%
%TO.N,N/C*%
X189992000Y-107188000D03*
%TO.P,J3,1*%
%TO.N,/VDD*%
%TA.AperFunction,ComponentPad*%
G36*
G01*
X190842000Y-109128000D02*
X190842000Y-110328000D01*
G75*
G02*
X190592000Y-110578000I-250000J0D01*
G01*
X189392000Y-110578000D01*
G75*
G02*
X189142000Y-110328000I0J250000D01*
G01*
X189142000Y-109128000D01*
G75*
G02*
X189392000Y-108878000I250000J0D01*
G01*
X190592000Y-108878000D01*
G75*
G02*
X190842000Y-109128000I0J-250000D01*
G01*
G37*
%TD.AperFunction*%
%TD*%
D12*
%TO.P,JP1,2*%
%TO.N,/RESET*%
X198120000Y-84582000D03*
%TO.P,JP1,3*%
%TO.N,/AUX*%
X196820000Y-84582000D03*
%TO.P,JP1,1*%
%TO.N,/MCLR*%
X199420000Y-84582000D03*
%TD*%
D13*
%TO.P,J1,1*%
%TO.N,/MCLR*%
X196850000Y-107188000D03*
D14*
%TO.P,J1,2*%
%TO.N,/VDD*%
X196850000Y-104648000D03*
%TO.P,J1,3*%
%TO.N,/GND*%
X196850000Y-102108000D03*
%TO.P,J1,4*%
%TO.N,/PGD*%
X196850000Y-99568000D03*
%TO.P,J1,5*%
%TO.N,/PGC*%
X196850000Y-97028000D03*
%TO.P,J1,6*%
%TO.N,/AUX*%
X196850000Y-94488000D03*
%TO.P,J1,7*%
%TO.N,/TDI*%
X196850000Y-91948000D03*
D11*
%TO.P,J1,8*%
%TO.N,/TMS*%
X196850000Y-89408000D03*
%TD*%
D14*
%TO.P,J7,4*%
%TO.N,/TMS*%
X162941000Y-101981000D03*
%TO.P,J7,3*%
%TO.N,/TDI*%
X162941000Y-99441000D03*
%TO.P,J7,2*%
%TO.N,/GND*%
X162941000Y-96901000D03*
D13*
%TO.P,J7,1*%
%TO.N,/VDD*%
X162941000Y-94361000D03*
%TD*%
D15*
%TO.P,J5,1*%
%TO.N,/VDD*%
X163576000Y-88138000D03*
D16*
%TO.P,J5,2*%
%TO.N,/TMS*%
X162306000Y-88138000D03*
%TO.P,J5,3*%
%TO.N,/GND*%
X163576000Y-86868000D03*
%TO.P,J5,4*%
%TO.N,/PGC*%
X162306000Y-86868000D03*
%TO.P,J5,5*%
%TO.N,/GND*%
X163576000Y-85598000D03*
%TO.P,J5,6*%
%TO.N,/PGD*%
X162306000Y-85598000D03*
%TO.P,J5,7*%
%TO.N,N/C*%
X163576000Y-84328000D03*
%TO.P,J5,8*%
%TO.N,/TDI*%
X162306000Y-84328000D03*
%TO.P,J5,9*%
%TO.N,N/C*%
X163576000Y-83058000D03*
%TO.P,J5,10*%
%TO.N,/RESET*%
X162306000Y-83058000D03*
%TD*%
D11*
%TO.P,J4,10*%
%TO.N,/GND*%
X173736000Y-84328000D03*
%TO.P,J4,8*%
X173736000Y-86868000D03*
%TO.P,J4,6*%
X173736000Y-89408000D03*
%TO.P,J4,4*%
X173736000Y-91948000D03*
%TO.P,J4,2*%
%TO.N,/VDD*%
X173736000Y-94488000D03*
%TO.P,J4,9*%
%TO.N,/PGD*%
X176276000Y-84328000D03*
%TO.P,J4,7*%
%TO.N,/PGC*%
X176276000Y-86868000D03*
%TO.P,J4,5*%
%TO.N,/AUX*%
X176276000Y-89408000D03*
%TO.P,J4,3*%
%TO.N,N/C*%
X176276000Y-91948000D03*
%TO.P,J4,1*%
%TO.N,/TDI*%
%TA.AperFunction,ComponentPad*%
G36*
G01*
X177126000Y-93888000D02*
X177126000Y-95088000D01*
G75*
G02*
X176876000Y-95338000I-250000J0D01*
G01*
X175676000Y-95338000D01*
G75*
G02*
X175426000Y-95088000I0J250000D01*
G01*
X175426000Y-93888000D01*
G75*
G02*
X175676000Y-93638000I250000J0D01*
G01*
X176876000Y-93638000D01*
G75*
G02*
X177126000Y-93888000I0J-250000D01*
G01*
G37*
%TD.AperFunction*%
%TD*%
%TO.P,J6,6*%
%TO.N,/GND*%
X173736000Y-107188000D03*
%TO.P,J6,4*%
%TO.N,/TDI*%
X173736000Y-109728000D03*
%TO.P,J6,2*%
%TO.N,/VDD*%
X173736000Y-112268000D03*
%TO.P,J6,5*%
%TO.N,/AUX*%
X176276000Y-107188000D03*
%TO.P,J6,3*%
%TO.N,/PGC*%
X176276000Y-109728000D03*
%TO.P,J6,1*%
%TO.N,/PGD*%
%TA.AperFunction,ComponentPad*%
G36*
G01*
X177126000Y-111668000D02*
X177126000Y-112868000D01*
G75*
G02*
X176876000Y-113118000I-250000J0D01*
G01*
X175676000Y-113118000D01*
G75*
G02*
X175426000Y-112868000I0J250000D01*
G01*
X175426000Y-111668000D01*
G75*
G02*
X175676000Y-111418000I250000J0D01*
G01*
X176876000Y-111418000D01*
G75*
G02*
X177126000Y-111668000I0J-250000D01*
G01*
G37*
%TD.AperFunction*%
%TD*%
D15*
%TO.P,J2,1*%
%TO.N,/PGC*%
X163576000Y-113538000D03*
D16*
%TO.P,J2,2*%
%TO.N,/GND*%
X162306000Y-113538000D03*
%TO.P,J2,3*%
%TO.N,/PGD*%
X163576000Y-112268000D03*
%TO.P,J2,4*%
%TO.N,/VDD*%
X162306000Y-112268000D03*
%TO.P,J2,5*%
%TO.N,/TMS*%
X163576000Y-110998000D03*
%TO.P,J2,6*%
%TO.N,/AUX*%
X162306000Y-110998000D03*
%TO.P,J2,7*%
%TO.N,N/C*%
X163576000Y-109728000D03*
%TO.P,J2,8*%
X162306000Y-109728000D03*
%TO.P,J2,9*%
%TO.N,/TDI*%
X163576000Y-108458000D03*
%TO.P,J2,10*%
%TO.N,/GND*%
X162306000Y-108458000D03*
%TD*%
D17*
%TO.N,/TMS*%
X161036000Y-91567000D03*
%TO.N,/AUX*%
X160020000Y-104775000D03*
%TO.N,/PGC*%
X181737000Y-98298000D03*
X169291000Y-88138000D03*
X166497000Y-88138000D03*
X181737000Y-110109000D03*
%TO.N,/PGD*%
X183261000Y-95758000D03*
%TO.N,/TDI*%
X169291000Y-90106500D03*
%TD*%
D18*
%TO.N,/TMS*%
X189992000Y-102108000D02*
X189992000Y-100838000D01*
X164973000Y-110617000D02*
X164973000Y-101981000D01*
X162941000Y-101981000D02*
X164973000Y-101981000D01*
X164973000Y-101981000D02*
X164973000Y-91567000D01*
X161036000Y-91567000D02*
X164973000Y-91567000D01*
X164592000Y-110998000D02*
X164973000Y-110617000D01*
X163576000Y-110998000D02*
X164592000Y-110998000D01*
X190754000Y-100838000D02*
X189992000Y-100838000D01*
X191770000Y-100203000D02*
X191135000Y-100838000D01*
X191770000Y-92075000D02*
X191770000Y-100203000D01*
X194437000Y-89408000D02*
X191770000Y-92075000D01*
X196850000Y-89408000D02*
X194437000Y-89408000D01*
X168529000Y-91567000D02*
X164973000Y-91567000D01*
X170180000Y-93218000D02*
X168529000Y-91567000D01*
X178181000Y-93218000D02*
X170180000Y-93218000D01*
X179451000Y-94488000D02*
X178181000Y-93218000D01*
X179451000Y-99695000D02*
X179451000Y-94488000D01*
X180594000Y-100838000D02*
X179451000Y-99695000D01*
X189992000Y-100838000D02*
X180594000Y-100838000D01*
X191135000Y-100838000D02*
X190754000Y-100838000D01*
%TO.N,/AUX*%
X162306000Y-110998000D02*
X160782000Y-110998000D01*
X160782000Y-110998000D02*
X160020000Y-110236000D01*
X160020000Y-110236000D02*
X160020000Y-104775000D01*
X196820000Y-86584000D02*
X196820000Y-84582000D01*
X198628000Y-88392000D02*
X196820000Y-86584000D01*
X198628000Y-93980000D02*
X198628000Y-88392000D01*
X198120000Y-94488000D02*
X198628000Y-93980000D01*
X196850000Y-94488000D02*
X198120000Y-94488000D01*
X178054000Y-107188000D02*
X176276000Y-107188000D01*
X179324000Y-105918000D02*
X178054000Y-107188000D01*
X191643000Y-105918000D02*
X179324000Y-105918000D01*
X194310000Y-103251000D02*
X191643000Y-105918000D01*
X194310000Y-95758000D02*
X194310000Y-103251000D01*
X195580000Y-94488000D02*
X194310000Y-95758000D01*
X196850000Y-94488000D02*
X195580000Y-94488000D01*
%TO.N,/PGC*%
X188722000Y-98298000D02*
X181737000Y-98298000D01*
X189992000Y-99568000D02*
X188722000Y-98298000D01*
X168148000Y-113538000D02*
X170688000Y-110998000D01*
X163576000Y-113538000D02*
X168148000Y-113538000D01*
X176276000Y-109728000D02*
X176276000Y-110871000D01*
X170688000Y-110998000D02*
X176149000Y-110998000D01*
X176276000Y-86868000D02*
X176276000Y-88138000D01*
X180467000Y-110998000D02*
X180848000Y-110998000D01*
X180848000Y-110998000D02*
X181737000Y-110109000D01*
X181737000Y-98298000D02*
X181737000Y-89408000D01*
X180467000Y-88138000D02*
X181737000Y-89408000D01*
X176276000Y-88138000D02*
X180467000Y-88138000D01*
X171196000Y-88138000D02*
X169291000Y-88138000D01*
X161105010Y-87249000D02*
X161486010Y-86868000D01*
X161105010Y-88586600D02*
X161105010Y-87249000D01*
X161735910Y-89217500D02*
X161105010Y-88586600D01*
X165417500Y-89217500D02*
X161735910Y-89217500D01*
X161486010Y-86868000D02*
X162306000Y-86868000D01*
X166497000Y-88138000D02*
X165417500Y-89217500D01*
X176276000Y-88138000D02*
X171196000Y-88138000D01*
X176276000Y-110998000D02*
X180467000Y-110998000D01*
X176149000Y-110998000D02*
X176276000Y-110998000D01*
X176276000Y-110998000D02*
X176276000Y-110871000D01*
%TO.N,/PGD*%
X176276000Y-84328000D02*
X176276000Y-85598000D01*
X189992000Y-94488000D02*
X188722000Y-93218000D01*
X188722000Y-93218000D02*
X183261000Y-93218000D01*
X183261000Y-89027000D02*
X183261000Y-93218000D01*
X179832000Y-85598000D02*
X183261000Y-89027000D01*
X176276000Y-85598000D02*
X179832000Y-85598000D01*
X183261000Y-95758000D02*
X183261000Y-93218000D01*
X169164000Y-85598000D02*
X176276000Y-85598000D01*
X167894000Y-86868000D02*
X169164000Y-85598000D01*
X167894000Y-88773000D02*
X167894000Y-86868000D01*
X166999490Y-89667510D02*
X167894000Y-88773000D01*
X160655000Y-88773000D02*
X161549510Y-89667510D01*
X160655000Y-86233000D02*
X160655000Y-88773000D01*
X161290000Y-85598000D02*
X160655000Y-86233000D01*
X161549510Y-89667510D02*
X166999490Y-89667510D01*
X162306000Y-85598000D02*
X161290000Y-85598000D01*
D19*
%TO.N,/GND*%
X187452000Y-102108000D02*
X184912000Y-102108000D01*
X187452000Y-104648000D02*
X184912000Y-104648000D01*
X187452000Y-99568000D02*
X184785000Y-99568000D01*
D20*
%TO.N,/VDD*%
X196850000Y-104648000D02*
X195453000Y-104648000D01*
X195453000Y-104648000D02*
X193802000Y-106299000D01*
X193675000Y-109728000D02*
X193802000Y-109855000D01*
X189992000Y-109728000D02*
X193675000Y-109728000D01*
X193802000Y-106299000D02*
X193802000Y-109855000D01*
X162941000Y-94361000D02*
X159512000Y-94361000D01*
X159512000Y-94361000D02*
X158242000Y-95631000D01*
X162306000Y-112268000D02*
X158242000Y-112268000D01*
X158242000Y-95631000D02*
X158242000Y-112268000D01*
X158242000Y-112268000D02*
X158242000Y-114554000D01*
X158242000Y-114554000D02*
X159258000Y-115570000D01*
X191262000Y-115570000D02*
X193802000Y-113030000D01*
X173736000Y-112268000D02*
X173736000Y-115570000D01*
X173736000Y-115570000D02*
X191262000Y-115570000D01*
X159258000Y-115570000D02*
X173736000Y-115570000D01*
D19*
X195362500Y-111887000D02*
X193802000Y-111887000D01*
D20*
X193802000Y-111887000D02*
X193802000Y-109855000D01*
X193802000Y-113030000D02*
X193802000Y-111887000D01*
D18*
%TO.N,/TDI*%
X161544000Y-99441000D02*
X162941000Y-99441000D01*
X161036000Y-99949000D02*
X161544000Y-99441000D01*
X161036000Y-104717998D02*
X161036000Y-99949000D01*
X163576000Y-107257998D02*
X161036000Y-104717998D01*
X163576000Y-108458000D02*
X163576000Y-107257998D01*
X160909000Y-84328000D02*
X162306000Y-84328000D01*
X160204990Y-85032010D02*
X160909000Y-84328000D01*
X160204991Y-88959401D02*
X160204990Y-85032010D01*
X176276000Y-94488000D02*
X176276000Y-101854000D01*
X189992000Y-104648000D02*
X189992000Y-103378000D01*
X189992000Y-103378000D02*
X185293000Y-103378000D01*
X191643000Y-103378000D02*
X189992000Y-103378000D01*
X177800000Y-103378000D02*
X176276000Y-101854000D01*
X185293000Y-103378000D02*
X177800000Y-103378000D01*
X185293000Y-103378000D02*
X185166000Y-103378000D01*
X193040000Y-102489000D02*
X192151000Y-103378000D01*
X195072000Y-91948000D02*
X193040000Y-93980000D01*
X193040000Y-93980000D02*
X193040000Y-102489000D01*
X196850000Y-91948000D02*
X195072000Y-91948000D01*
X161363110Y-90117520D02*
X167247980Y-90117520D01*
X160204991Y-88959401D02*
X161363110Y-90117520D01*
X167259000Y-90106500D02*
X169291000Y-90106500D01*
X167247980Y-90117520D02*
X167259000Y-90106500D01*
X161225795Y-89980205D02*
X160204991Y-88959401D01*
X192151000Y-103378000D02*
X191643000Y-103378000D01*
%TO.N,/RESET*%
X162306000Y-82296000D02*
X162306000Y-83058000D01*
X162750500Y-81851500D02*
X162306000Y-82296000D01*
X162877500Y-81851500D02*
X162750500Y-81851500D01*
X164147500Y-81851500D02*
X162877500Y-81851500D01*
X195516500Y-81851500D02*
X191960500Y-81851500D01*
X198120000Y-84582000D02*
X198120000Y-82677000D01*
X197294500Y-81851500D02*
X195516500Y-81851500D01*
X198120000Y-82677000D02*
X197294500Y-81851500D01*
X195770500Y-81851500D02*
X195516500Y-81851500D01*
X191770000Y-81915000D02*
X191706500Y-81851500D01*
X191706500Y-81851500D02*
X162877500Y-81851500D01*
X191770000Y-90170000D02*
X191770000Y-81915000D01*
X189992000Y-91948000D02*
X191770000Y-90170000D01*
X191960500Y-81851500D02*
X191706500Y-81851500D01*
%TO.N,/MCLR*%
X198755000Y-107188000D02*
X196850000Y-107188000D01*
X198755000Y-107188000D02*
X199898000Y-106045000D01*
X199898000Y-106045000D02*
X199771000Y-105918000D01*
X199771000Y-86554000D02*
X199420000Y-86203000D01*
X199771000Y-105918000D02*
X199771000Y-86554000D01*
X199420000Y-84582000D02*
X199420000Y-86203000D01*
D19*
%TO.N,Net-(D1-Pad1)*%
X198337500Y-111887000D02*
X198337500Y-114681000D01*
%TD*%
D21*
%TO.N,/GND*%
X201778001Y-118720000D02*
X155600000Y-118720000D01*
X155600000Y-95631000D01*
X157356738Y-95631000D01*
X157361000Y-95674270D01*
X157361001Y-112224717D01*
X157356738Y-112268000D01*
X157361000Y-112311273D01*
X157361001Y-114510720D01*
X157356738Y-114554000D01*
X157373749Y-114726705D01*
X157424125Y-114892774D01*
X157505932Y-115045825D01*
X157574085Y-115128869D01*
X157616026Y-115179975D01*
X157649640Y-115207561D01*
X158604439Y-116162361D01*
X158632025Y-116195975D01*
X158665637Y-116223559D01*
X158766174Y-116306068D01*
X158919225Y-116387875D01*
X159085294Y-116438252D01*
X159214727Y-116451000D01*
X159214730Y-116451000D01*
X159258000Y-116455262D01*
X159301270Y-116451000D01*
X173692727Y-116451000D01*
X173736000Y-116455262D01*
X173779273Y-116451000D01*
X191218730Y-116451000D01*
X191262000Y-116455262D01*
X191305270Y-116451000D01*
X191305273Y-116451000D01*
X191434706Y-116438252D01*
X191600775Y-116387875D01*
X191753825Y-116306068D01*
X191887975Y-116195975D01*
X191915566Y-116162355D01*
X192521921Y-115556000D01*
X194267157Y-115556000D01*
X194274513Y-115630689D01*
X194296299Y-115702508D01*
X194331678Y-115768696D01*
X194379289Y-115826711D01*
X194437304Y-115874322D01*
X194503492Y-115909701D01*
X194575311Y-115931487D01*
X194650000Y-115938843D01*
X195140250Y-115937000D01*
X195235500Y-115841750D01*
X195235500Y-114808000D01*
X195489500Y-114808000D01*
X195489500Y-115841750D01*
X195584750Y-115937000D01*
X196075000Y-115938843D01*
X196149689Y-115931487D01*
X196221508Y-115909701D01*
X196287696Y-115874322D01*
X196345711Y-115826711D01*
X196393322Y-115768696D01*
X196428701Y-115702508D01*
X196450487Y-115630689D01*
X196457843Y-115556000D01*
X196456000Y-114903250D01*
X196360750Y-114808000D01*
X195489500Y-114808000D01*
X195235500Y-114808000D01*
X194364250Y-114808000D01*
X194269000Y-114903250D01*
X194267157Y-115556000D01*
X192521921Y-115556000D01*
X194267170Y-113810752D01*
X194269000Y-114458750D01*
X194364250Y-114554000D01*
X195235500Y-114554000D01*
X195235500Y-113520250D01*
X195489500Y-113520250D01*
X195489500Y-114554000D01*
X196360750Y-114554000D01*
X196456000Y-114458750D01*
X196457843Y-113806000D01*
X196450487Y-113731311D01*
X196428701Y-113659492D01*
X196393322Y-113593304D01*
X196345711Y-113535289D01*
X196287696Y-113487678D01*
X196221508Y-113452299D01*
X196149689Y-113430513D01*
X196075000Y-113423157D01*
X195584750Y-113425000D01*
X195489500Y-113520250D01*
X195235500Y-113520250D01*
X195140250Y-113425000D01*
X194650000Y-113423157D01*
X194587518Y-113429311D01*
X194619875Y-113368775D01*
X194670252Y-113202706D01*
X194680032Y-113103409D01*
X194776538Y-113132683D01*
X194900000Y-113144843D01*
X195825000Y-113144843D01*
X195948462Y-113132683D01*
X196067179Y-113096671D01*
X196176589Y-113038190D01*
X196272488Y-112959488D01*
X196351190Y-112863589D01*
X196409671Y-112754179D01*
X196445683Y-112635462D01*
X196457843Y-112512000D01*
X196457843Y-111262000D01*
X197242157Y-111262000D01*
X197242157Y-112512000D01*
X197254317Y-112635462D01*
X197290329Y-112754179D01*
X197348810Y-112863589D01*
X197427512Y-112959488D01*
X197523411Y-113038190D01*
X197632821Y-113096671D01*
X197706500Y-113119021D01*
X197706501Y-113448979D01*
X197632821Y-113471329D01*
X197523411Y-113529810D01*
X197427512Y-113608512D01*
X197348810Y-113704411D01*
X197290329Y-113813821D01*
X197254317Y-113932538D01*
X197242157Y-114056000D01*
X197242157Y-115306000D01*
X197254317Y-115429462D01*
X197290329Y-115548179D01*
X197348810Y-115657589D01*
X197427512Y-115753488D01*
X197523411Y-115832190D01*
X197632821Y-115890671D01*
X197751538Y-115926683D01*
X197875000Y-115938843D01*
X198800000Y-115938843D01*
X198923462Y-115926683D01*
X199042179Y-115890671D01*
X199151589Y-115832190D01*
X199247488Y-115753488D01*
X199326190Y-115657589D01*
X199384671Y-115548179D01*
X199420683Y-115429462D01*
X199432843Y-115306000D01*
X199432843Y-114056000D01*
X199420683Y-113932538D01*
X199384671Y-113813821D01*
X199326190Y-113704411D01*
X199247488Y-113608512D01*
X199151589Y-113529810D01*
X199042179Y-113471329D01*
X198968500Y-113448979D01*
X198968500Y-113119021D01*
X199042179Y-113096671D01*
X199151589Y-113038190D01*
X199247488Y-112959488D01*
X199326190Y-112863589D01*
X199384671Y-112754179D01*
X199420683Y-112635462D01*
X199432843Y-112512000D01*
X199432843Y-111262000D01*
X199420683Y-111138538D01*
X199384671Y-111019821D01*
X199326190Y-110910411D01*
X199247488Y-110814512D01*
X199151589Y-110735810D01*
X199042179Y-110677329D01*
X198923462Y-110641317D01*
X198800000Y-110629157D01*
X197875000Y-110629157D01*
X197751538Y-110641317D01*
X197632821Y-110677329D01*
X197523411Y-110735810D01*
X197427512Y-110814512D01*
X197348810Y-110910411D01*
X197290329Y-111019821D01*
X197254317Y-111138538D01*
X197242157Y-111262000D01*
X196457843Y-111262000D01*
X196445683Y-111138538D01*
X196409671Y-111019821D01*
X196351190Y-110910411D01*
X196272488Y-110814512D01*
X196176589Y-110735810D01*
X196067179Y-110677329D01*
X195948462Y-110641317D01*
X195825000Y-110629157D01*
X194900000Y-110629157D01*
X194776538Y-110641317D01*
X194683000Y-110669691D01*
X194683000Y-109898269D01*
X194687262Y-109854999D01*
X194683000Y-109811727D01*
X194683000Y-106663921D01*
X195817922Y-105529000D01*
X195990103Y-105529000D01*
X196065283Y-105604180D01*
X196266903Y-105738898D01*
X196490931Y-105831693D01*
X196728757Y-105879000D01*
X196971243Y-105879000D01*
X197209069Y-105831693D01*
X197433097Y-105738898D01*
X197634717Y-105604180D01*
X197806180Y-105432717D01*
X197940898Y-105231097D01*
X198033693Y-105007069D01*
X198081000Y-104769243D01*
X198081000Y-104526757D01*
X198033693Y-104288931D01*
X197940898Y-104064903D01*
X197806180Y-103863283D01*
X197634717Y-103691820D01*
X197433097Y-103557102D01*
X197209069Y-103464307D01*
X196971243Y-103417000D01*
X196728757Y-103417000D01*
X196490931Y-103464307D01*
X196266903Y-103557102D01*
X196065283Y-103691820D01*
X195990103Y-103767000D01*
X195496270Y-103767000D01*
X195453000Y-103762738D01*
X195409730Y-103767000D01*
X195409727Y-103767000D01*
X195280294Y-103779748D01*
X195114225Y-103830125D01*
X194961174Y-103911932D01*
X194893022Y-103967863D01*
X194827025Y-104022025D01*
X194799439Y-104055639D01*
X193209645Y-105645434D01*
X193176025Y-105673025D01*
X193105952Y-105758411D01*
X193065932Y-105807175D01*
X192991833Y-105945806D01*
X192984125Y-105960226D01*
X192933748Y-106126295D01*
X192927327Y-106191492D01*
X192916738Y-106299000D01*
X192921000Y-106342270D01*
X192921001Y-108847000D01*
X191155921Y-108847000D01*
X191118190Y-108776411D01*
X191039488Y-108680512D01*
X190943589Y-108601810D01*
X190834179Y-108543329D01*
X190715462Y-108507317D01*
X190592000Y-108495157D01*
X189392000Y-108495157D01*
X189268538Y-108507317D01*
X189149821Y-108543329D01*
X189040411Y-108601810D01*
X188944512Y-108680512D01*
X188865810Y-108776411D01*
X188807329Y-108885821D01*
X188771317Y-109004538D01*
X188759157Y-109128000D01*
X188759157Y-110328000D01*
X188771317Y-110451462D01*
X188807329Y-110570179D01*
X188865810Y-110679589D01*
X188944512Y-110775488D01*
X189040411Y-110854190D01*
X189149821Y-110912671D01*
X189268538Y-110948683D01*
X189392000Y-110960843D01*
X190592000Y-110960843D01*
X190715462Y-110948683D01*
X190834179Y-110912671D01*
X190943589Y-110854190D01*
X191039488Y-110775488D01*
X191118190Y-110679589D01*
X191155921Y-110609000D01*
X192921001Y-110609000D01*
X192921000Y-111930272D01*
X192921001Y-111930281D01*
X192921000Y-112665078D01*
X190897079Y-114689000D01*
X174617000Y-114689000D01*
X174617000Y-113127897D01*
X174692180Y-113052717D01*
X174826898Y-112851097D01*
X174919693Y-112627069D01*
X174967000Y-112389243D01*
X174967000Y-112146757D01*
X174919693Y-111908931D01*
X174826898Y-111684903D01*
X174706023Y-111504000D01*
X175067614Y-111504000D01*
X175055317Y-111544538D01*
X175043157Y-111668000D01*
X175043157Y-112868000D01*
X175055317Y-112991462D01*
X175091329Y-113110179D01*
X175149810Y-113219589D01*
X175228512Y-113315488D01*
X175324411Y-113394190D01*
X175433821Y-113452671D01*
X175552538Y-113488683D01*
X175676000Y-113500843D01*
X176876000Y-113500843D01*
X176999462Y-113488683D01*
X177118179Y-113452671D01*
X177227589Y-113394190D01*
X177323488Y-113315488D01*
X177402190Y-113219589D01*
X177460671Y-113110179D01*
X177496683Y-112991462D01*
X177508843Y-112868000D01*
X177508843Y-111668000D01*
X177496683Y-111544538D01*
X177484386Y-111504000D01*
X180823154Y-111504000D01*
X180848000Y-111506447D01*
X180872846Y-111504000D01*
X180872854Y-111504000D01*
X180947193Y-111496678D01*
X181042575Y-111467745D01*
X181130479Y-111420759D01*
X181207527Y-111357527D01*
X181223376Y-111338215D01*
X181671592Y-110890000D01*
X181813922Y-110890000D01*
X181964809Y-110859987D01*
X182106942Y-110801113D01*
X182234859Y-110715642D01*
X182343642Y-110606859D01*
X182429113Y-110478942D01*
X182487987Y-110336809D01*
X182518000Y-110185922D01*
X182518000Y-110032078D01*
X182487987Y-109881191D01*
X182429113Y-109739058D01*
X182343642Y-109611141D01*
X182339258Y-109606757D01*
X186221000Y-109606757D01*
X186221000Y-109849243D01*
X186268307Y-110087069D01*
X186361102Y-110311097D01*
X186495820Y-110512717D01*
X186667283Y-110684180D01*
X186868903Y-110818898D01*
X187092931Y-110911693D01*
X187330757Y-110959000D01*
X187573243Y-110959000D01*
X187811069Y-110911693D01*
X188035097Y-110818898D01*
X188236717Y-110684180D01*
X188408180Y-110512717D01*
X188542898Y-110311097D01*
X188635693Y-110087069D01*
X188683000Y-109849243D01*
X188683000Y-109606757D01*
X188635693Y-109368931D01*
X188542898Y-109144903D01*
X188408180Y-108943283D01*
X188236717Y-108771820D01*
X188035097Y-108637102D01*
X187811069Y-108544307D01*
X187573243Y-108497000D01*
X187330757Y-108497000D01*
X187092931Y-108544307D01*
X186868903Y-108637102D01*
X186667283Y-108771820D01*
X186495820Y-108943283D01*
X186361102Y-109144903D01*
X186268307Y-109368931D01*
X186221000Y-109606757D01*
X182339258Y-109606757D01*
X182234859Y-109502358D01*
X182106942Y-109416887D01*
X181964809Y-109358013D01*
X181813922Y-109328000D01*
X181660078Y-109328000D01*
X181509191Y-109358013D01*
X181367058Y-109416887D01*
X181239141Y-109502358D01*
X181130358Y-109611141D01*
X181044887Y-109739058D01*
X180986013Y-109881191D01*
X180956000Y-110032078D01*
X180956000Y-110174408D01*
X180638409Y-110492000D01*
X177246023Y-110492000D01*
X177366898Y-110311097D01*
X177459693Y-110087069D01*
X177507000Y-109849243D01*
X177507000Y-109606757D01*
X177459693Y-109368931D01*
X177366898Y-109144903D01*
X177232180Y-108943283D01*
X177060717Y-108771820D01*
X176859097Y-108637102D01*
X176635069Y-108544307D01*
X176397243Y-108497000D01*
X176154757Y-108497000D01*
X175916931Y-108544307D01*
X175692903Y-108637102D01*
X175491283Y-108771820D01*
X175319820Y-108943283D01*
X175185102Y-109144903D01*
X175092307Y-109368931D01*
X175045000Y-109606757D01*
X175045000Y-109849243D01*
X175092307Y-110087069D01*
X175185102Y-110311097D01*
X175305977Y-110492000D01*
X174706023Y-110492000D01*
X174826898Y-110311097D01*
X174919693Y-110087069D01*
X174967000Y-109849243D01*
X174967000Y-109606757D01*
X174919693Y-109368931D01*
X174826898Y-109144903D01*
X174692180Y-108943283D01*
X174520717Y-108771820D01*
X174319097Y-108637102D01*
X174095069Y-108544307D01*
X173857243Y-108497000D01*
X173614757Y-108497000D01*
X173376931Y-108544307D01*
X173152903Y-108637102D01*
X172951283Y-108771820D01*
X172779820Y-108943283D01*
X172645102Y-109144903D01*
X172552307Y-109368931D01*
X172505000Y-109606757D01*
X172505000Y-109849243D01*
X172552307Y-110087069D01*
X172645102Y-110311097D01*
X172765977Y-110492000D01*
X170712845Y-110492000D01*
X170687999Y-110489553D01*
X170663153Y-110492000D01*
X170663146Y-110492000D01*
X170598694Y-110498348D01*
X170588806Y-110499322D01*
X170566607Y-110506056D01*
X170493425Y-110528255D01*
X170405521Y-110575241D01*
X170328473Y-110638473D01*
X170312630Y-110657778D01*
X167938409Y-113032000D01*
X164458252Y-113032000D01*
X164451487Y-112963311D01*
X164429701Y-112891492D01*
X164394322Y-112825304D01*
X164346711Y-112767289D01*
X164317806Y-112743568D01*
X164356732Y-112685310D01*
X164423144Y-112524978D01*
X164457000Y-112354771D01*
X164457000Y-112181229D01*
X164423144Y-112011022D01*
X164356732Y-111850690D01*
X164260318Y-111706395D01*
X164186923Y-111633000D01*
X164260318Y-111559605D01*
X164297472Y-111504000D01*
X164567154Y-111504000D01*
X164592000Y-111506447D01*
X164616846Y-111504000D01*
X164616854Y-111504000D01*
X164691193Y-111496678D01*
X164786575Y-111467745D01*
X164874479Y-111420759D01*
X164951527Y-111357527D01*
X164967376Y-111338215D01*
X165313220Y-110992372D01*
X165332527Y-110976527D01*
X165395759Y-110899479D01*
X165442745Y-110811575D01*
X165471678Y-110716193D01*
X165479000Y-110641854D01*
X165479000Y-110641847D01*
X165481447Y-110617001D01*
X165479000Y-110592155D01*
X165479000Y-108080100D01*
X173023505Y-108080100D01*
X173115523Y-108258078D01*
X173336207Y-108358566D01*
X173572255Y-108414069D01*
X173814596Y-108422456D01*
X174053917Y-108383402D01*
X174281020Y-108298411D01*
X174356477Y-108258078D01*
X174448495Y-108080100D01*
X173736000Y-107367605D01*
X173023505Y-108080100D01*
X165479000Y-108080100D01*
X165479000Y-107266596D01*
X172501544Y-107266596D01*
X172540598Y-107505917D01*
X172625589Y-107733020D01*
X172665922Y-107808477D01*
X172843900Y-107900495D01*
X173556395Y-107188000D01*
X173915605Y-107188000D01*
X174628100Y-107900495D01*
X174806078Y-107808477D01*
X174906566Y-107587793D01*
X174962069Y-107351745D01*
X174970456Y-107109404D01*
X174931402Y-106870083D01*
X174846411Y-106642980D01*
X174806078Y-106567523D01*
X174628100Y-106475505D01*
X173915605Y-107188000D01*
X173556395Y-107188000D01*
X172843900Y-106475505D01*
X172665922Y-106567523D01*
X172565434Y-106788207D01*
X172509931Y-107024255D01*
X172501544Y-107266596D01*
X165479000Y-107266596D01*
X165479000Y-106295900D01*
X173023505Y-106295900D01*
X173736000Y-107008395D01*
X174448495Y-106295900D01*
X174356477Y-106117922D01*
X174135793Y-106017434D01*
X173899745Y-105961931D01*
X173657404Y-105953544D01*
X173418083Y-105992598D01*
X173190980Y-106077589D01*
X173115523Y-106117922D01*
X173023505Y-106295900D01*
X165479000Y-106295900D01*
X165479000Y-102005853D01*
X165481448Y-101981000D01*
X165479000Y-101956146D01*
X165479000Y-92073000D01*
X168319409Y-92073000D01*
X169804628Y-93558220D01*
X169820473Y-93577527D01*
X169897521Y-93640759D01*
X169985425Y-93687745D01*
X170080807Y-93716678D01*
X170180000Y-93726448D01*
X170204854Y-93724000D01*
X172765977Y-93724000D01*
X172645102Y-93904903D01*
X172552307Y-94128931D01*
X172505000Y-94366757D01*
X172505000Y-94609243D01*
X172552307Y-94847069D01*
X172645102Y-95071097D01*
X172779820Y-95272717D01*
X172951283Y-95444180D01*
X173152903Y-95578898D01*
X173376931Y-95671693D01*
X173614757Y-95719000D01*
X173857243Y-95719000D01*
X174095069Y-95671693D01*
X174319097Y-95578898D01*
X174520717Y-95444180D01*
X174692180Y-95272717D01*
X174826898Y-95071097D01*
X174919693Y-94847069D01*
X174967000Y-94609243D01*
X174967000Y-94366757D01*
X174919693Y-94128931D01*
X174826898Y-93904903D01*
X174706023Y-93724000D01*
X175067614Y-93724000D01*
X175055317Y-93764538D01*
X175043157Y-93888000D01*
X175043157Y-95088000D01*
X175055317Y-95211462D01*
X175091329Y-95330179D01*
X175149810Y-95439589D01*
X175228512Y-95535488D01*
X175324411Y-95614190D01*
X175433821Y-95672671D01*
X175552538Y-95708683D01*
X175676000Y-95720843D01*
X175770000Y-95720843D01*
X175770001Y-101829144D01*
X175767553Y-101854000D01*
X175777322Y-101953192D01*
X175806255Y-102048574D01*
X175806256Y-102048575D01*
X175853242Y-102136479D01*
X175916474Y-102213527D01*
X175935780Y-102229372D01*
X177424628Y-103718220D01*
X177440473Y-103737527D01*
X177517521Y-103800759D01*
X177605425Y-103847745D01*
X177678607Y-103869944D01*
X177700806Y-103876678D01*
X177710694Y-103877652D01*
X177775146Y-103884000D01*
X177775153Y-103884000D01*
X177799999Y-103886447D01*
X177824845Y-103884000D01*
X186508392Y-103884000D01*
X186559898Y-103935506D01*
X186381922Y-104027523D01*
X186281434Y-104248207D01*
X186225931Y-104484255D01*
X186217544Y-104726596D01*
X186256598Y-104965917D01*
X186341589Y-105193020D01*
X186381922Y-105268477D01*
X186559898Y-105360494D01*
X186508392Y-105412000D01*
X179348845Y-105412000D01*
X179323999Y-105409553D01*
X179299153Y-105412000D01*
X179299146Y-105412000D01*
X179234694Y-105418348D01*
X179224806Y-105419322D01*
X179187139Y-105430748D01*
X179129425Y-105448255D01*
X179041521Y-105495241D01*
X178964473Y-105558473D01*
X178948629Y-105577779D01*
X177844409Y-106682000D01*
X177398832Y-106682000D01*
X177366898Y-106604903D01*
X177232180Y-106403283D01*
X177060717Y-106231820D01*
X176859097Y-106097102D01*
X176635069Y-106004307D01*
X176397243Y-105957000D01*
X176154757Y-105957000D01*
X175916931Y-106004307D01*
X175692903Y-106097102D01*
X175491283Y-106231820D01*
X175319820Y-106403283D01*
X175185102Y-106604903D01*
X175092307Y-106828931D01*
X175045000Y-107066757D01*
X175045000Y-107309243D01*
X175092307Y-107547069D01*
X175185102Y-107771097D01*
X175319820Y-107972717D01*
X175491283Y-108144180D01*
X175692903Y-108278898D01*
X175916931Y-108371693D01*
X176154757Y-108419000D01*
X176397243Y-108419000D01*
X176635069Y-108371693D01*
X176859097Y-108278898D01*
X177060717Y-108144180D01*
X177124797Y-108080100D01*
X186739505Y-108080100D01*
X186831523Y-108258078D01*
X187052207Y-108358566D01*
X187288255Y-108414069D01*
X187530596Y-108422456D01*
X187769917Y-108383402D01*
X187997020Y-108298411D01*
X188072477Y-108258078D01*
X188164495Y-108080100D01*
X187452000Y-107367605D01*
X186739505Y-108080100D01*
X177124797Y-108080100D01*
X177232180Y-107972717D01*
X177366898Y-107771097D01*
X177398832Y-107694000D01*
X178029154Y-107694000D01*
X178054000Y-107696447D01*
X178078846Y-107694000D01*
X178078854Y-107694000D01*
X178153193Y-107686678D01*
X178248575Y-107657745D01*
X178336479Y-107610759D01*
X178413527Y-107547527D01*
X178429376Y-107528215D01*
X179533592Y-106424000D01*
X186508392Y-106424000D01*
X186559898Y-106475506D01*
X186381922Y-106567523D01*
X186281434Y-106788207D01*
X186225931Y-107024255D01*
X186217544Y-107266596D01*
X186256598Y-107505917D01*
X186341589Y-107733020D01*
X186381922Y-107808477D01*
X186559900Y-107900495D01*
X187272395Y-107188000D01*
X187258253Y-107173858D01*
X187437858Y-106994253D01*
X187452000Y-107008395D01*
X187466143Y-106994253D01*
X187645748Y-107173858D01*
X187631605Y-107188000D01*
X188344100Y-107900495D01*
X188522078Y-107808477D01*
X188622566Y-107587793D01*
X188678069Y-107351745D01*
X188686456Y-107109404D01*
X188647402Y-106870083D01*
X188562411Y-106642980D01*
X188522078Y-106567523D01*
X188344102Y-106475506D01*
X188395608Y-106424000D01*
X189021977Y-106424000D01*
X188901102Y-106604903D01*
X188808307Y-106828931D01*
X188761000Y-107066757D01*
X188761000Y-107309243D01*
X188808307Y-107547069D01*
X188901102Y-107771097D01*
X189035820Y-107972717D01*
X189207283Y-108144180D01*
X189408903Y-108278898D01*
X189632931Y-108371693D01*
X189870757Y-108419000D01*
X190113243Y-108419000D01*
X190351069Y-108371693D01*
X190575097Y-108278898D01*
X190776717Y-108144180D01*
X190948180Y-107972717D01*
X191082898Y-107771097D01*
X191175693Y-107547069D01*
X191223000Y-107309243D01*
X191223000Y-107066757D01*
X191175693Y-106828931D01*
X191082898Y-106604903D01*
X190962023Y-106424000D01*
X191618154Y-106424000D01*
X191643000Y-106426447D01*
X191667846Y-106424000D01*
X191667854Y-106424000D01*
X191742193Y-106416678D01*
X191837575Y-106387745D01*
X191925479Y-106340759D01*
X192002527Y-106277527D01*
X192018376Y-106258215D01*
X194650220Y-103626372D01*
X194669527Y-103610527D01*
X194732759Y-103533479D01*
X194779745Y-103445575D01*
X194808678Y-103350193D01*
X194816000Y-103275854D01*
X194818448Y-103251000D01*
X194816000Y-103226146D01*
X194816000Y-102424980D01*
X195660511Y-102424980D01*
X195684866Y-102505288D01*
X195784761Y-102724961D01*
X195925592Y-102920924D01*
X196101948Y-103085647D01*
X196307051Y-103212799D01*
X196533019Y-103297495D01*
X196723000Y-103237187D01*
X196723000Y-102235000D01*
X196977000Y-102235000D01*
X196977000Y-103237187D01*
X197166981Y-103297495D01*
X197392949Y-103212799D01*
X197598052Y-103085647D01*
X197774408Y-102920924D01*
X197915239Y-102724961D01*
X198015134Y-102505288D01*
X198039489Y-102424980D01*
X197978627Y-102235000D01*
X196977000Y-102235000D01*
X196723000Y-102235000D01*
X195721373Y-102235000D01*
X195660511Y-102424980D01*
X194816000Y-102424980D01*
X194816000Y-101791020D01*
X195660511Y-101791020D01*
X195721373Y-101981000D01*
X196723000Y-101981000D01*
X196723000Y-100978813D01*
X196977000Y-100978813D01*
X196977000Y-101981000D01*
X197978627Y-101981000D01*
X198039489Y-101791020D01*
X198015134Y-101710712D01*
X197915239Y-101491039D01*
X197774408Y-101295076D01*
X197598052Y-101130353D01*
X197392949Y-101003201D01*
X197166981Y-100918505D01*
X196977000Y-100978813D01*
X196723000Y-100978813D01*
X196533019Y-100918505D01*
X196307051Y-101003201D01*
X196101948Y-101130353D01*
X195925592Y-101295076D01*
X195784761Y-101491039D01*
X195684866Y-101710712D01*
X195660511Y-101791020D01*
X194816000Y-101791020D01*
X194816000Y-99446757D01*
X195619000Y-99446757D01*
X195619000Y-99689243D01*
X195666307Y-99927069D01*
X195759102Y-100151097D01*
X195893820Y-100352717D01*
X196065283Y-100524180D01*
X196266903Y-100658898D01*
X196490931Y-100751693D01*
X196728757Y-100799000D01*
X196971243Y-100799000D01*
X197209069Y-100751693D01*
X197433097Y-100658898D01*
X197634717Y-100524180D01*
X197806180Y-100352717D01*
X197940898Y-100151097D01*
X198033693Y-99927069D01*
X198081000Y-99689243D01*
X198081000Y-99446757D01*
X198033693Y-99208931D01*
X197940898Y-98984903D01*
X197806180Y-98783283D01*
X197634717Y-98611820D01*
X197433097Y-98477102D01*
X197209069Y-98384307D01*
X196971243Y-98337000D01*
X196728757Y-98337000D01*
X196490931Y-98384307D01*
X196266903Y-98477102D01*
X196065283Y-98611820D01*
X195893820Y-98783283D01*
X195759102Y-98984903D01*
X195666307Y-99208931D01*
X195619000Y-99446757D01*
X194816000Y-99446757D01*
X194816000Y-96906757D01*
X195619000Y-96906757D01*
X195619000Y-97149243D01*
X195666307Y-97387069D01*
X195759102Y-97611097D01*
X195893820Y-97812717D01*
X196065283Y-97984180D01*
X196266903Y-98118898D01*
X196490931Y-98211693D01*
X196728757Y-98259000D01*
X196971243Y-98259000D01*
X197209069Y-98211693D01*
X197433097Y-98118898D01*
X197634717Y-97984180D01*
X197806180Y-97812717D01*
X197940898Y-97611097D01*
X198033693Y-97387069D01*
X198081000Y-97149243D01*
X198081000Y-96906757D01*
X198033693Y-96668931D01*
X197940898Y-96444903D01*
X197806180Y-96243283D01*
X197634717Y-96071820D01*
X197433097Y-95937102D01*
X197209069Y-95844307D01*
X196971243Y-95797000D01*
X196728757Y-95797000D01*
X196490931Y-95844307D01*
X196266903Y-95937102D01*
X196065283Y-96071820D01*
X195893820Y-96243283D01*
X195759102Y-96444903D01*
X195666307Y-96668931D01*
X195619000Y-96906757D01*
X194816000Y-96906757D01*
X194816000Y-95967591D01*
X195745451Y-95038141D01*
X195759102Y-95071097D01*
X195893820Y-95272717D01*
X196065283Y-95444180D01*
X196266903Y-95578898D01*
X196490931Y-95671693D01*
X196728757Y-95719000D01*
X196971243Y-95719000D01*
X197209069Y-95671693D01*
X197433097Y-95578898D01*
X197634717Y-95444180D01*
X197806180Y-95272717D01*
X197940898Y-95071097D01*
X197972832Y-94994000D01*
X198095154Y-94994000D01*
X198120000Y-94996447D01*
X198144846Y-94994000D01*
X198144854Y-94994000D01*
X198219193Y-94986678D01*
X198314575Y-94957745D01*
X198402479Y-94910759D01*
X198479527Y-94847527D01*
X198495376Y-94828215D01*
X198968222Y-94355370D01*
X198987527Y-94339527D01*
X199050759Y-94262479D01*
X199097745Y-94174575D01*
X199126678Y-94079193D01*
X199134000Y-94004854D01*
X199134000Y-94004847D01*
X199136447Y-93980001D01*
X199134000Y-93955155D01*
X199134000Y-88416845D01*
X199136447Y-88391999D01*
X199134000Y-88367153D01*
X199134000Y-88367146D01*
X199126678Y-88292807D01*
X199118108Y-88264553D01*
X199097745Y-88197425D01*
X199089463Y-88181931D01*
X199050759Y-88109521D01*
X198987527Y-88032473D01*
X198968220Y-88016628D01*
X197326000Y-86374409D01*
X197326000Y-85714252D01*
X197394689Y-85707487D01*
X197466508Y-85685701D01*
X197470000Y-85683834D01*
X197473492Y-85685701D01*
X197545311Y-85707487D01*
X197620000Y-85714843D01*
X198620000Y-85714843D01*
X198694689Y-85707487D01*
X198766508Y-85685701D01*
X198770000Y-85683834D01*
X198773492Y-85685701D01*
X198845311Y-85707487D01*
X198914001Y-85714252D01*
X198914001Y-86178144D01*
X198911553Y-86203000D01*
X198921322Y-86302192D01*
X198950255Y-86397574D01*
X198950256Y-86397575D01*
X198997242Y-86485479D01*
X199060474Y-86562527D01*
X199079780Y-86578371D01*
X199265001Y-86763593D01*
X199265000Y-105893154D01*
X199262553Y-105918000D01*
X199265000Y-105942846D01*
X199265000Y-105942853D01*
X199266753Y-105960655D01*
X198545409Y-106682000D01*
X198082843Y-106682000D01*
X198082843Y-106338000D01*
X198075487Y-106263311D01*
X198053701Y-106191492D01*
X198018322Y-106125304D01*
X197970711Y-106067289D01*
X197912696Y-106019678D01*
X197846508Y-105984299D01*
X197774689Y-105962513D01*
X197700000Y-105955157D01*
X196000000Y-105955157D01*
X195925311Y-105962513D01*
X195853492Y-105984299D01*
X195787304Y-106019678D01*
X195729289Y-106067289D01*
X195681678Y-106125304D01*
X195646299Y-106191492D01*
X195624513Y-106263311D01*
X195617157Y-106338000D01*
X195617157Y-108038000D01*
X195624513Y-108112689D01*
X195646299Y-108184508D01*
X195681678Y-108250696D01*
X195729289Y-108308711D01*
X195787304Y-108356322D01*
X195853492Y-108391701D01*
X195925311Y-108413487D01*
X196000000Y-108420843D01*
X197700000Y-108420843D01*
X197774689Y-108413487D01*
X197846508Y-108391701D01*
X197912696Y-108356322D01*
X197970711Y-108308711D01*
X198018322Y-108250696D01*
X198053701Y-108184508D01*
X198075487Y-108112689D01*
X198082843Y-108038000D01*
X198082843Y-107694000D01*
X198730154Y-107694000D01*
X198755000Y-107696447D01*
X198779846Y-107694000D01*
X198779854Y-107694000D01*
X198854193Y-107686678D01*
X198949575Y-107657745D01*
X199037479Y-107610759D01*
X199114527Y-107547527D01*
X199130376Y-107528215D01*
X200238230Y-106420362D01*
X200257526Y-106404526D01*
X200273361Y-106385231D01*
X200273370Y-106385222D01*
X200320758Y-106327479D01*
X200367745Y-106239575D01*
X200396678Y-106144194D01*
X200406447Y-106045001D01*
X200403732Y-106017434D01*
X200396678Y-105945806D01*
X200367745Y-105850426D01*
X200320758Y-105762522D01*
X200277000Y-105709202D01*
X200277000Y-86578846D01*
X200279447Y-86554000D01*
X200277000Y-86529154D01*
X200277000Y-86529146D01*
X200269678Y-86454807D01*
X200240745Y-86359425D01*
X200193759Y-86271521D01*
X200130527Y-86194473D01*
X200111220Y-86178628D01*
X199926000Y-85993409D01*
X199926000Y-85714252D01*
X199994689Y-85707487D01*
X200066508Y-85685701D01*
X200132696Y-85650322D01*
X200190711Y-85602711D01*
X200238322Y-85544696D01*
X200273701Y-85478508D01*
X200295487Y-85406689D01*
X200302843Y-85332000D01*
X200302843Y-83832000D01*
X200295487Y-83757311D01*
X200273701Y-83685492D01*
X200238322Y-83619304D01*
X200190711Y-83561289D01*
X200132696Y-83513678D01*
X200066508Y-83478299D01*
X199994689Y-83456513D01*
X199920000Y-83449157D01*
X198920000Y-83449157D01*
X198845311Y-83456513D01*
X198773492Y-83478299D01*
X198770000Y-83480166D01*
X198766508Y-83478299D01*
X198694689Y-83456513D01*
X198626000Y-83449748D01*
X198626000Y-82701845D01*
X198628447Y-82676999D01*
X198626000Y-82652153D01*
X198626000Y-82652146D01*
X198618678Y-82577807D01*
X198589745Y-82482425D01*
X198542759Y-82394521D01*
X198479527Y-82317473D01*
X198460220Y-82301628D01*
X197669876Y-81511285D01*
X197654027Y-81491973D01*
X197576979Y-81428741D01*
X197489075Y-81381755D01*
X197393693Y-81352822D01*
X197319354Y-81345500D01*
X197319346Y-81345500D01*
X197294500Y-81343053D01*
X197269654Y-81345500D01*
X191731346Y-81345500D01*
X191706500Y-81343053D01*
X191681654Y-81345500D01*
X162775354Y-81345500D01*
X162750500Y-81343052D01*
X162725646Y-81345500D01*
X162651307Y-81352822D01*
X162555925Y-81381755D01*
X162468021Y-81428741D01*
X162390973Y-81491973D01*
X162375128Y-81511280D01*
X161965785Y-81920624D01*
X161946473Y-81936473D01*
X161883241Y-82013521D01*
X161836255Y-82101426D01*
X161807322Y-82196808D01*
X161800000Y-82271147D01*
X161800000Y-82271154D01*
X161797553Y-82296000D01*
X161800000Y-82320847D01*
X161800000Y-82336528D01*
X161744395Y-82373682D01*
X161621682Y-82496395D01*
X161525268Y-82640690D01*
X161458856Y-82801022D01*
X161425000Y-82971229D01*
X161425000Y-83144771D01*
X161458856Y-83314978D01*
X161525268Y-83475310D01*
X161621682Y-83619605D01*
X161695077Y-83693000D01*
X161621682Y-83766395D01*
X161584528Y-83822000D01*
X160933845Y-83822000D01*
X160908999Y-83819553D01*
X160884153Y-83822000D01*
X160884146Y-83822000D01*
X160819694Y-83828348D01*
X160809806Y-83829322D01*
X160787607Y-83836056D01*
X160714425Y-83858255D01*
X160626521Y-83905241D01*
X160549473Y-83968473D01*
X160533628Y-83987780D01*
X159864769Y-84656640D01*
X159845463Y-84672484D01*
X159782231Y-84749532D01*
X159735245Y-84837436D01*
X159706312Y-84932818D01*
X159698990Y-85007157D01*
X159698990Y-85007164D01*
X159696543Y-85032010D01*
X159698990Y-85056856D01*
X159698992Y-88934545D01*
X159696544Y-88959401D01*
X159706313Y-89058593D01*
X159735246Y-89153975D01*
X159757118Y-89194893D01*
X159782233Y-89241880D01*
X159845465Y-89318928D01*
X159864771Y-89334772D01*
X160417521Y-89887522D01*
X160987738Y-90457740D01*
X161003583Y-90477047D01*
X161080631Y-90540279D01*
X161168535Y-90587265D01*
X161263917Y-90616198D01*
X161363110Y-90625968D01*
X161387964Y-90623520D01*
X167223134Y-90623520D01*
X167247980Y-90625967D01*
X167272826Y-90623520D01*
X167272834Y-90623520D01*
X167347173Y-90616198D01*
X167359364Y-90612500D01*
X168692499Y-90612500D01*
X168793141Y-90713142D01*
X168921058Y-90798613D01*
X169063191Y-90857487D01*
X169214078Y-90887500D01*
X169367922Y-90887500D01*
X169518809Y-90857487D01*
X169660942Y-90798613D01*
X169788859Y-90713142D01*
X169897642Y-90604359D01*
X169983113Y-90476442D01*
X170041987Y-90334309D01*
X170048791Y-90300100D01*
X173023505Y-90300100D01*
X173115523Y-90478078D01*
X173336207Y-90578566D01*
X173572255Y-90634069D01*
X173814596Y-90642456D01*
X174053917Y-90603402D01*
X174281020Y-90518411D01*
X174356477Y-90478078D01*
X174448495Y-90300100D01*
X173736000Y-89587605D01*
X173023505Y-90300100D01*
X170048791Y-90300100D01*
X170072000Y-90183422D01*
X170072000Y-90029578D01*
X170041987Y-89878691D01*
X169983113Y-89736558D01*
X169897642Y-89608641D01*
X169788859Y-89499858D01*
X169660942Y-89414387D01*
X169518809Y-89355513D01*
X169367922Y-89325500D01*
X169214078Y-89325500D01*
X169063191Y-89355513D01*
X168921058Y-89414387D01*
X168793141Y-89499858D01*
X168692499Y-89600500D01*
X167782091Y-89600500D01*
X168234220Y-89148372D01*
X168253527Y-89132527D01*
X168316759Y-89055479D01*
X168363745Y-88967575D01*
X168363745Y-88967574D01*
X168392678Y-88872194D01*
X168396595Y-88832425D01*
X168400000Y-88797854D01*
X168400000Y-88797847D01*
X168402447Y-88773001D01*
X168400000Y-88748155D01*
X168400000Y-87077591D01*
X169373592Y-86104000D01*
X172792392Y-86104000D01*
X172843898Y-86155506D01*
X172665922Y-86247523D01*
X172565434Y-86468207D01*
X172509931Y-86704255D01*
X172501544Y-86946596D01*
X172540598Y-87185917D01*
X172625589Y-87413020D01*
X172665922Y-87488477D01*
X172843898Y-87580494D01*
X172792392Y-87632000D01*
X169889501Y-87632000D01*
X169788859Y-87531358D01*
X169660942Y-87445887D01*
X169518809Y-87387013D01*
X169367922Y-87357000D01*
X169214078Y-87357000D01*
X169063191Y-87387013D01*
X168921058Y-87445887D01*
X168793141Y-87531358D01*
X168684358Y-87640141D01*
X168598887Y-87768058D01*
X168540013Y-87910191D01*
X168510000Y-88061078D01*
X168510000Y-88214922D01*
X168540013Y-88365809D01*
X168598887Y-88507942D01*
X168684358Y-88635859D01*
X168793141Y-88744642D01*
X168921058Y-88830113D01*
X169063191Y-88888987D01*
X169214078Y-88919000D01*
X169367922Y-88919000D01*
X169518809Y-88888987D01*
X169660942Y-88830113D01*
X169788859Y-88744642D01*
X169889501Y-88644000D01*
X172792392Y-88644000D01*
X172843898Y-88695506D01*
X172665922Y-88787523D01*
X172565434Y-89008207D01*
X172509931Y-89244255D01*
X172501544Y-89486596D01*
X172540598Y-89725917D01*
X172625589Y-89953020D01*
X172665922Y-90028477D01*
X172843900Y-90120495D01*
X173556395Y-89408000D01*
X173542253Y-89393858D01*
X173721858Y-89214253D01*
X173736000Y-89228395D01*
X173750143Y-89214253D01*
X173929748Y-89393858D01*
X173915605Y-89408000D01*
X174628100Y-90120495D01*
X174806078Y-90028477D01*
X174906566Y-89807793D01*
X174962069Y-89571745D01*
X174970456Y-89329404D01*
X174931402Y-89090083D01*
X174846411Y-88862980D01*
X174806078Y-88787523D01*
X174628102Y-88695506D01*
X174679608Y-88644000D01*
X175305977Y-88644000D01*
X175185102Y-88824903D01*
X175092307Y-89048931D01*
X175045000Y-89286757D01*
X175045000Y-89529243D01*
X175092307Y-89767069D01*
X175185102Y-89991097D01*
X175319820Y-90192717D01*
X175491283Y-90364180D01*
X175692903Y-90498898D01*
X175916931Y-90591693D01*
X176154757Y-90639000D01*
X176397243Y-90639000D01*
X176635069Y-90591693D01*
X176859097Y-90498898D01*
X177060717Y-90364180D01*
X177232180Y-90192717D01*
X177366898Y-89991097D01*
X177459693Y-89767069D01*
X177507000Y-89529243D01*
X177507000Y-89286757D01*
X177459693Y-89048931D01*
X177366898Y-88824903D01*
X177246023Y-88644000D01*
X180257409Y-88644000D01*
X181231001Y-89617593D01*
X181231000Y-97699499D01*
X181130358Y-97800141D01*
X181044887Y-97928058D01*
X180986013Y-98070191D01*
X180956000Y-98221078D01*
X180956000Y-98374922D01*
X180986013Y-98525809D01*
X181044887Y-98667942D01*
X181130358Y-98795859D01*
X181239141Y-98904642D01*
X181367058Y-98990113D01*
X181509191Y-99048987D01*
X181660078Y-99079000D01*
X181813922Y-99079000D01*
X181964809Y-99048987D01*
X182106942Y-98990113D01*
X182234859Y-98904642D01*
X182335501Y-98804000D01*
X186508392Y-98804000D01*
X186559898Y-98855506D01*
X186381922Y-98947523D01*
X186281434Y-99168207D01*
X186225931Y-99404255D01*
X186217544Y-99646596D01*
X186256598Y-99885917D01*
X186341589Y-100113020D01*
X186381922Y-100188477D01*
X186559898Y-100280494D01*
X186508392Y-100332000D01*
X180803592Y-100332000D01*
X179957000Y-99485409D01*
X179957000Y-94512845D01*
X179959447Y-94487999D01*
X179957000Y-94463153D01*
X179957000Y-94463146D01*
X179949678Y-94388807D01*
X179942990Y-94366757D01*
X179920745Y-94293425D01*
X179904203Y-94262478D01*
X179873759Y-94205521D01*
X179810527Y-94128473D01*
X179791220Y-94112628D01*
X178556376Y-92877785D01*
X178540527Y-92858473D01*
X178463479Y-92795241D01*
X178375575Y-92748255D01*
X178280193Y-92719322D01*
X178205854Y-92712000D01*
X178205846Y-92712000D01*
X178181000Y-92709553D01*
X178156154Y-92712000D01*
X177246023Y-92712000D01*
X177366898Y-92531097D01*
X177459693Y-92307069D01*
X177507000Y-92069243D01*
X177507000Y-91826757D01*
X177459693Y-91588931D01*
X177366898Y-91364903D01*
X177232180Y-91163283D01*
X177060717Y-90991820D01*
X176859097Y-90857102D01*
X176635069Y-90764307D01*
X176397243Y-90717000D01*
X176154757Y-90717000D01*
X175916931Y-90764307D01*
X175692903Y-90857102D01*
X175491283Y-90991820D01*
X175319820Y-91163283D01*
X175185102Y-91364903D01*
X175092307Y-91588931D01*
X175045000Y-91826757D01*
X175045000Y-92069243D01*
X175092307Y-92307069D01*
X175185102Y-92531097D01*
X175305977Y-92712000D01*
X174679608Y-92712000D01*
X174628102Y-92660494D01*
X174806078Y-92568477D01*
X174906566Y-92347793D01*
X174962069Y-92111745D01*
X174970456Y-91869404D01*
X174931402Y-91630083D01*
X174846411Y-91402980D01*
X174806078Y-91327523D01*
X174628100Y-91235505D01*
X173915605Y-91948000D01*
X173929748Y-91962143D01*
X173750143Y-92141748D01*
X173736000Y-92127605D01*
X173721858Y-92141748D01*
X173542253Y-91962143D01*
X173556395Y-91948000D01*
X172843900Y-91235505D01*
X172665922Y-91327523D01*
X172565434Y-91548207D01*
X172509931Y-91784255D01*
X172501544Y-92026596D01*
X172540598Y-92265917D01*
X172625589Y-92493020D01*
X172665922Y-92568477D01*
X172843898Y-92660494D01*
X172792392Y-92712000D01*
X170389592Y-92712000D01*
X168904376Y-91226785D01*
X168888527Y-91207473D01*
X168811479Y-91144241D01*
X168723575Y-91097255D01*
X168628193Y-91068322D01*
X168553854Y-91061000D01*
X168553846Y-91061000D01*
X168529000Y-91058553D01*
X168504154Y-91061000D01*
X164997854Y-91061000D01*
X164973000Y-91058552D01*
X164948146Y-91061000D01*
X161634501Y-91061000D01*
X161629401Y-91055900D01*
X173023505Y-91055900D01*
X173736000Y-91768395D01*
X174448495Y-91055900D01*
X174356477Y-90877922D01*
X174135793Y-90777434D01*
X173899745Y-90721931D01*
X173657404Y-90713544D01*
X173418083Y-90752598D01*
X173190980Y-90837589D01*
X173115523Y-90877922D01*
X173023505Y-91055900D01*
X161629401Y-91055900D01*
X161533859Y-90960358D01*
X161405942Y-90874887D01*
X161263809Y-90816013D01*
X161112922Y-90786000D01*
X160959078Y-90786000D01*
X160808191Y-90816013D01*
X160666058Y-90874887D01*
X160538141Y-90960358D01*
X160429358Y-91069141D01*
X160343887Y-91197058D01*
X160285013Y-91339191D01*
X160255000Y-91490078D01*
X160255000Y-91643922D01*
X160285013Y-91794809D01*
X160343887Y-91936942D01*
X160429358Y-92064859D01*
X160538141Y-92173642D01*
X160666058Y-92259113D01*
X160808191Y-92317987D01*
X160959078Y-92348000D01*
X161112922Y-92348000D01*
X161263809Y-92317987D01*
X161405942Y-92259113D01*
X161533859Y-92173642D01*
X161634501Y-92073000D01*
X164467001Y-92073000D01*
X164467000Y-101475000D01*
X164063832Y-101475000D01*
X164031898Y-101397903D01*
X163897180Y-101196283D01*
X163725717Y-101024820D01*
X163524097Y-100890102D01*
X163300069Y-100797307D01*
X163062243Y-100750000D01*
X162819757Y-100750000D01*
X162581931Y-100797307D01*
X162357903Y-100890102D01*
X162156283Y-101024820D01*
X161984820Y-101196283D01*
X161850102Y-101397903D01*
X161757307Y-101621931D01*
X161710000Y-101859757D01*
X161710000Y-102102243D01*
X161757307Y-102340069D01*
X161850102Y-102564097D01*
X161984820Y-102765717D01*
X162156283Y-102937180D01*
X162357903Y-103071898D01*
X162581931Y-103164693D01*
X162819757Y-103212000D01*
X163062243Y-103212000D01*
X163300069Y-103164693D01*
X163524097Y-103071898D01*
X163725717Y-102937180D01*
X163897180Y-102765717D01*
X164031898Y-102564097D01*
X164063832Y-102487000D01*
X164467001Y-102487000D01*
X164467000Y-110407408D01*
X164382409Y-110492000D01*
X164297472Y-110492000D01*
X164260318Y-110436395D01*
X164186923Y-110363000D01*
X164260318Y-110289605D01*
X164356732Y-110145310D01*
X164423144Y-109984978D01*
X164457000Y-109814771D01*
X164457000Y-109641229D01*
X164423144Y-109471022D01*
X164356732Y-109310690D01*
X164260318Y-109166395D01*
X164186923Y-109093000D01*
X164260318Y-109019605D01*
X164356732Y-108875310D01*
X164423144Y-108714978D01*
X164457000Y-108544771D01*
X164457000Y-108371229D01*
X164423144Y-108201022D01*
X164356732Y-108040690D01*
X164260318Y-107896395D01*
X164137605Y-107773682D01*
X164082000Y-107736528D01*
X164082000Y-107282843D01*
X164084447Y-107257997D01*
X164082000Y-107233151D01*
X164082000Y-107233144D01*
X164074678Y-107158805D01*
X164045745Y-107063423D01*
X163998759Y-106975519D01*
X163935527Y-106898471D01*
X163916220Y-106882626D01*
X161542000Y-104508407D01*
X161542000Y-100158591D01*
X161753592Y-99947000D01*
X161818168Y-99947000D01*
X161850102Y-100024097D01*
X161984820Y-100225717D01*
X162156283Y-100397180D01*
X162357903Y-100531898D01*
X162581931Y-100624693D01*
X162819757Y-100672000D01*
X163062243Y-100672000D01*
X163300069Y-100624693D01*
X163524097Y-100531898D01*
X163725717Y-100397180D01*
X163897180Y-100225717D01*
X164031898Y-100024097D01*
X164124693Y-99800069D01*
X164172000Y-99562243D01*
X164172000Y-99319757D01*
X164124693Y-99081931D01*
X164031898Y-98857903D01*
X163897180Y-98656283D01*
X163725717Y-98484820D01*
X163524097Y-98350102D01*
X163300069Y-98257307D01*
X163062243Y-98210000D01*
X162819757Y-98210000D01*
X162581931Y-98257307D01*
X162357903Y-98350102D01*
X162156283Y-98484820D01*
X161984820Y-98656283D01*
X161850102Y-98857903D01*
X161818168Y-98935000D01*
X161568845Y-98935000D01*
X161543999Y-98932553D01*
X161519153Y-98935000D01*
X161519146Y-98935000D01*
X161454694Y-98941348D01*
X161444806Y-98942322D01*
X161427661Y-98947523D01*
X161349425Y-98971255D01*
X161261521Y-99018241D01*
X161184473Y-99081473D01*
X161168628Y-99100780D01*
X160695780Y-99573629D01*
X160676474Y-99589473D01*
X160613242Y-99666521D01*
X160601097Y-99689243D01*
X160566255Y-99754426D01*
X160537322Y-99849808D01*
X160527553Y-99949000D01*
X160530001Y-99973856D01*
X160530000Y-104180499D01*
X160517859Y-104168358D01*
X160389942Y-104082887D01*
X160247809Y-104024013D01*
X160096922Y-103994000D01*
X159943078Y-103994000D01*
X159792191Y-104024013D01*
X159650058Y-104082887D01*
X159522141Y-104168358D01*
X159413358Y-104277141D01*
X159327887Y-104405058D01*
X159269013Y-104547191D01*
X159239000Y-104698078D01*
X159239000Y-104851922D01*
X159269013Y-105002809D01*
X159327887Y-105144942D01*
X159413358Y-105272859D01*
X159514001Y-105373502D01*
X159514000Y-110211154D01*
X159511553Y-110236000D01*
X159514000Y-110260846D01*
X159514000Y-110260853D01*
X159521322Y-110335192D01*
X159550255Y-110430574D01*
X159597241Y-110518479D01*
X159660473Y-110595527D01*
X159679785Y-110611376D01*
X160406628Y-111338220D01*
X160422473Y-111357527D01*
X160458386Y-111387000D01*
X159123000Y-111387000D01*
X159123000Y-97217980D01*
X161751511Y-97217980D01*
X161775866Y-97298288D01*
X161875761Y-97517961D01*
X162016592Y-97713924D01*
X162192948Y-97878647D01*
X162398051Y-98005799D01*
X162624019Y-98090495D01*
X162814000Y-98030187D01*
X162814000Y-97028000D01*
X163068000Y-97028000D01*
X163068000Y-98030187D01*
X163257981Y-98090495D01*
X163483949Y-98005799D01*
X163689052Y-97878647D01*
X163865408Y-97713924D01*
X164006239Y-97517961D01*
X164106134Y-97298288D01*
X164130489Y-97217980D01*
X164069627Y-97028000D01*
X163068000Y-97028000D01*
X162814000Y-97028000D01*
X161812373Y-97028000D01*
X161751511Y-97217980D01*
X159123000Y-97217980D01*
X159123000Y-96584020D01*
X161751511Y-96584020D01*
X161812373Y-96774000D01*
X162814000Y-96774000D01*
X162814000Y-95771813D01*
X163068000Y-95771813D01*
X163068000Y-96774000D01*
X164069627Y-96774000D01*
X164130489Y-96584020D01*
X164106134Y-96503712D01*
X164006239Y-96284039D01*
X163865408Y-96088076D01*
X163689052Y-95923353D01*
X163483949Y-95796201D01*
X163257981Y-95711505D01*
X163068000Y-95771813D01*
X162814000Y-95771813D01*
X162624019Y-95711505D01*
X162398051Y-95796201D01*
X162192948Y-95923353D01*
X162016592Y-96088076D01*
X161875761Y-96284039D01*
X161775866Y-96503712D01*
X161751511Y-96584020D01*
X159123000Y-96584020D01*
X159123000Y-95995921D01*
X159876922Y-95242000D01*
X161711210Y-95242000D01*
X161715513Y-95285689D01*
X161737299Y-95357508D01*
X161772678Y-95423696D01*
X161820289Y-95481711D01*
X161878304Y-95529322D01*
X161944492Y-95564701D01*
X162016311Y-95586487D01*
X162091000Y-95593843D01*
X163791000Y-95593843D01*
X163865689Y-95586487D01*
X163937508Y-95564701D01*
X164003696Y-95529322D01*
X164061711Y-95481711D01*
X164109322Y-95423696D01*
X164144701Y-95357508D01*
X164166487Y-95285689D01*
X164173843Y-95211000D01*
X164173843Y-93511000D01*
X164166487Y-93436311D01*
X164144701Y-93364492D01*
X164109322Y-93298304D01*
X164061711Y-93240289D01*
X164003696Y-93192678D01*
X163937508Y-93157299D01*
X163865689Y-93135513D01*
X163791000Y-93128157D01*
X162091000Y-93128157D01*
X162016311Y-93135513D01*
X161944492Y-93157299D01*
X161878304Y-93192678D01*
X161820289Y-93240289D01*
X161772678Y-93298304D01*
X161737299Y-93364492D01*
X161715513Y-93436311D01*
X161711210Y-93480000D01*
X159555269Y-93480000D01*
X159511999Y-93475738D01*
X159468729Y-93480000D01*
X159468727Y-93480000D01*
X159339294Y-93492748D01*
X159173225Y-93543125D01*
X159101981Y-93581206D01*
X159020174Y-93624932D01*
X158994721Y-93645821D01*
X158886025Y-93735025D01*
X158858439Y-93768639D01*
X157649644Y-94977434D01*
X157616025Y-95005025D01*
X157566078Y-95065887D01*
X157505932Y-95139175D01*
X157441275Y-95260141D01*
X157424125Y-95292226D01*
X157373748Y-95458295D01*
X157363394Y-95563425D01*
X157356738Y-95631000D01*
X155600000Y-95631000D01*
X155600000Y-77876000D01*
X201778000Y-77876000D01*
X201778001Y-118720000D01*
%TA.AperFunction,Conductor*%
D22*
G36*
X201778001Y-118720000D02*
G01*
X155600000Y-118720000D01*
X155600000Y-95631000D01*
X157356738Y-95631000D01*
X157361000Y-95674270D01*
X157361001Y-112224717D01*
X157356738Y-112268000D01*
X157361000Y-112311273D01*
X157361001Y-114510720D01*
X157356738Y-114554000D01*
X157373749Y-114726705D01*
X157424125Y-114892774D01*
X157505932Y-115045825D01*
X157574085Y-115128869D01*
X157616026Y-115179975D01*
X157649640Y-115207561D01*
X158604439Y-116162361D01*
X158632025Y-116195975D01*
X158665637Y-116223559D01*
X158766174Y-116306068D01*
X158919225Y-116387875D01*
X159085294Y-116438252D01*
X159214727Y-116451000D01*
X159214730Y-116451000D01*
X159258000Y-116455262D01*
X159301270Y-116451000D01*
X173692727Y-116451000D01*
X173736000Y-116455262D01*
X173779273Y-116451000D01*
X191218730Y-116451000D01*
X191262000Y-116455262D01*
X191305270Y-116451000D01*
X191305273Y-116451000D01*
X191434706Y-116438252D01*
X191600775Y-116387875D01*
X191753825Y-116306068D01*
X191887975Y-116195975D01*
X191915566Y-116162355D01*
X192521921Y-115556000D01*
X194267157Y-115556000D01*
X194274513Y-115630689D01*
X194296299Y-115702508D01*
X194331678Y-115768696D01*
X194379289Y-115826711D01*
X194437304Y-115874322D01*
X194503492Y-115909701D01*
X194575311Y-115931487D01*
X194650000Y-115938843D01*
X195140250Y-115937000D01*
X195235500Y-115841750D01*
X195235500Y-114808000D01*
X195489500Y-114808000D01*
X195489500Y-115841750D01*
X195584750Y-115937000D01*
X196075000Y-115938843D01*
X196149689Y-115931487D01*
X196221508Y-115909701D01*
X196287696Y-115874322D01*
X196345711Y-115826711D01*
X196393322Y-115768696D01*
X196428701Y-115702508D01*
X196450487Y-115630689D01*
X196457843Y-115556000D01*
X196456000Y-114903250D01*
X196360750Y-114808000D01*
X195489500Y-114808000D01*
X195235500Y-114808000D01*
X194364250Y-114808000D01*
X194269000Y-114903250D01*
X194267157Y-115556000D01*
X192521921Y-115556000D01*
X194267170Y-113810752D01*
X194269000Y-114458750D01*
X194364250Y-114554000D01*
X195235500Y-114554000D01*
X195235500Y-113520250D01*
X195489500Y-113520250D01*
X195489500Y-114554000D01*
X196360750Y-114554000D01*
X196456000Y-114458750D01*
X196457843Y-113806000D01*
X196450487Y-113731311D01*
X196428701Y-113659492D01*
X196393322Y-113593304D01*
X196345711Y-113535289D01*
X196287696Y-113487678D01*
X196221508Y-113452299D01*
X196149689Y-113430513D01*
X196075000Y-113423157D01*
X195584750Y-113425000D01*
X195489500Y-113520250D01*
X195235500Y-113520250D01*
X195140250Y-113425000D01*
X194650000Y-113423157D01*
X194587518Y-113429311D01*
X194619875Y-113368775D01*
X194670252Y-113202706D01*
X194680032Y-113103409D01*
X194776538Y-113132683D01*
X194900000Y-113144843D01*
X195825000Y-113144843D01*
X195948462Y-113132683D01*
X196067179Y-113096671D01*
X196176589Y-113038190D01*
X196272488Y-112959488D01*
X196351190Y-112863589D01*
X196409671Y-112754179D01*
X196445683Y-112635462D01*
X196457843Y-112512000D01*
X196457843Y-111262000D01*
X197242157Y-111262000D01*
X197242157Y-112512000D01*
X197254317Y-112635462D01*
X197290329Y-112754179D01*
X197348810Y-112863589D01*
X197427512Y-112959488D01*
X197523411Y-113038190D01*
X197632821Y-113096671D01*
X197706500Y-113119021D01*
X197706501Y-113448979D01*
X197632821Y-113471329D01*
X197523411Y-113529810D01*
X197427512Y-113608512D01*
X197348810Y-113704411D01*
X197290329Y-113813821D01*
X197254317Y-113932538D01*
X197242157Y-114056000D01*
X197242157Y-115306000D01*
X197254317Y-115429462D01*
X197290329Y-115548179D01*
X197348810Y-115657589D01*
X197427512Y-115753488D01*
X197523411Y-115832190D01*
X197632821Y-115890671D01*
X197751538Y-115926683D01*
X197875000Y-115938843D01*
X198800000Y-115938843D01*
X198923462Y-115926683D01*
X199042179Y-115890671D01*
X199151589Y-115832190D01*
X199247488Y-115753488D01*
X199326190Y-115657589D01*
X199384671Y-115548179D01*
X199420683Y-115429462D01*
X199432843Y-115306000D01*
X199432843Y-114056000D01*
X199420683Y-113932538D01*
X199384671Y-113813821D01*
X199326190Y-113704411D01*
X199247488Y-113608512D01*
X199151589Y-113529810D01*
X199042179Y-113471329D01*
X198968500Y-113448979D01*
X198968500Y-113119021D01*
X199042179Y-113096671D01*
X199151589Y-113038190D01*
X199247488Y-112959488D01*
X199326190Y-112863589D01*
X199384671Y-112754179D01*
X199420683Y-112635462D01*
X199432843Y-112512000D01*
X199432843Y-111262000D01*
X199420683Y-111138538D01*
X199384671Y-111019821D01*
X199326190Y-110910411D01*
X199247488Y-110814512D01*
X199151589Y-110735810D01*
X199042179Y-110677329D01*
X198923462Y-110641317D01*
X198800000Y-110629157D01*
X197875000Y-110629157D01*
X197751538Y-110641317D01*
X197632821Y-110677329D01*
X197523411Y-110735810D01*
X197427512Y-110814512D01*
X197348810Y-110910411D01*
X197290329Y-111019821D01*
X197254317Y-111138538D01*
X197242157Y-111262000D01*
X196457843Y-111262000D01*
X196445683Y-111138538D01*
X196409671Y-111019821D01*
X196351190Y-110910411D01*
X196272488Y-110814512D01*
X196176589Y-110735810D01*
X196067179Y-110677329D01*
X195948462Y-110641317D01*
X195825000Y-110629157D01*
X194900000Y-110629157D01*
X194776538Y-110641317D01*
X194683000Y-110669691D01*
X194683000Y-109898269D01*
X194687262Y-109854999D01*
X194683000Y-109811727D01*
X194683000Y-106663921D01*
X195817922Y-105529000D01*
X195990103Y-105529000D01*
X196065283Y-105604180D01*
X196266903Y-105738898D01*
X196490931Y-105831693D01*
X196728757Y-105879000D01*
X196971243Y-105879000D01*
X197209069Y-105831693D01*
X197433097Y-105738898D01*
X197634717Y-105604180D01*
X197806180Y-105432717D01*
X197940898Y-105231097D01*
X198033693Y-105007069D01*
X198081000Y-104769243D01*
X198081000Y-104526757D01*
X198033693Y-104288931D01*
X197940898Y-104064903D01*
X197806180Y-103863283D01*
X197634717Y-103691820D01*
X197433097Y-103557102D01*
X197209069Y-103464307D01*
X196971243Y-103417000D01*
X196728757Y-103417000D01*
X196490931Y-103464307D01*
X196266903Y-103557102D01*
X196065283Y-103691820D01*
X195990103Y-103767000D01*
X195496270Y-103767000D01*
X195453000Y-103762738D01*
X195409730Y-103767000D01*
X195409727Y-103767000D01*
X195280294Y-103779748D01*
X195114225Y-103830125D01*
X194961174Y-103911932D01*
X194893022Y-103967863D01*
X194827025Y-104022025D01*
X194799439Y-104055639D01*
X193209645Y-105645434D01*
X193176025Y-105673025D01*
X193105952Y-105758411D01*
X193065932Y-105807175D01*
X192991833Y-105945806D01*
X192984125Y-105960226D01*
X192933748Y-106126295D01*
X192927327Y-106191492D01*
X192916738Y-106299000D01*
X192921000Y-106342270D01*
X192921001Y-108847000D01*
X191155921Y-108847000D01*
X191118190Y-108776411D01*
X191039488Y-108680512D01*
X190943589Y-108601810D01*
X190834179Y-108543329D01*
X190715462Y-108507317D01*
X190592000Y-108495157D01*
X189392000Y-108495157D01*
X189268538Y-108507317D01*
X189149821Y-108543329D01*
X189040411Y-108601810D01*
X188944512Y-108680512D01*
X188865810Y-108776411D01*
X188807329Y-108885821D01*
X188771317Y-109004538D01*
X188759157Y-109128000D01*
X188759157Y-110328000D01*
X188771317Y-110451462D01*
X188807329Y-110570179D01*
X188865810Y-110679589D01*
X188944512Y-110775488D01*
X189040411Y-110854190D01*
X189149821Y-110912671D01*
X189268538Y-110948683D01*
X189392000Y-110960843D01*
X190592000Y-110960843D01*
X190715462Y-110948683D01*
X190834179Y-110912671D01*
X190943589Y-110854190D01*
X191039488Y-110775488D01*
X191118190Y-110679589D01*
X191155921Y-110609000D01*
X192921001Y-110609000D01*
X192921000Y-111930272D01*
X192921001Y-111930281D01*
X192921000Y-112665078D01*
X190897079Y-114689000D01*
X174617000Y-114689000D01*
X174617000Y-113127897D01*
X174692180Y-113052717D01*
X174826898Y-112851097D01*
X174919693Y-112627069D01*
X174967000Y-112389243D01*
X174967000Y-112146757D01*
X174919693Y-111908931D01*
X174826898Y-111684903D01*
X174706023Y-111504000D01*
X175067614Y-111504000D01*
X175055317Y-111544538D01*
X175043157Y-111668000D01*
X175043157Y-112868000D01*
X175055317Y-112991462D01*
X175091329Y-113110179D01*
X175149810Y-113219589D01*
X175228512Y-113315488D01*
X175324411Y-113394190D01*
X175433821Y-113452671D01*
X175552538Y-113488683D01*
X175676000Y-113500843D01*
X176876000Y-113500843D01*
X176999462Y-113488683D01*
X177118179Y-113452671D01*
X177227589Y-113394190D01*
X177323488Y-113315488D01*
X177402190Y-113219589D01*
X177460671Y-113110179D01*
X177496683Y-112991462D01*
X177508843Y-112868000D01*
X177508843Y-111668000D01*
X177496683Y-111544538D01*
X177484386Y-111504000D01*
X180823154Y-111504000D01*
X180848000Y-111506447D01*
X180872846Y-111504000D01*
X180872854Y-111504000D01*
X180947193Y-111496678D01*
X181042575Y-111467745D01*
X181130479Y-111420759D01*
X181207527Y-111357527D01*
X181223376Y-111338215D01*
X181671592Y-110890000D01*
X181813922Y-110890000D01*
X181964809Y-110859987D01*
X182106942Y-110801113D01*
X182234859Y-110715642D01*
X182343642Y-110606859D01*
X182429113Y-110478942D01*
X182487987Y-110336809D01*
X182518000Y-110185922D01*
X182518000Y-110032078D01*
X182487987Y-109881191D01*
X182429113Y-109739058D01*
X182343642Y-109611141D01*
X182339258Y-109606757D01*
X186221000Y-109606757D01*
X186221000Y-109849243D01*
X186268307Y-110087069D01*
X186361102Y-110311097D01*
X186495820Y-110512717D01*
X186667283Y-110684180D01*
X186868903Y-110818898D01*
X187092931Y-110911693D01*
X187330757Y-110959000D01*
X187573243Y-110959000D01*
X187811069Y-110911693D01*
X188035097Y-110818898D01*
X188236717Y-110684180D01*
X188408180Y-110512717D01*
X188542898Y-110311097D01*
X188635693Y-110087069D01*
X188683000Y-109849243D01*
X188683000Y-109606757D01*
X188635693Y-109368931D01*
X188542898Y-109144903D01*
X188408180Y-108943283D01*
X188236717Y-108771820D01*
X188035097Y-108637102D01*
X187811069Y-108544307D01*
X187573243Y-108497000D01*
X187330757Y-108497000D01*
X187092931Y-108544307D01*
X186868903Y-108637102D01*
X186667283Y-108771820D01*
X186495820Y-108943283D01*
X186361102Y-109144903D01*
X186268307Y-109368931D01*
X186221000Y-109606757D01*
X182339258Y-109606757D01*
X182234859Y-109502358D01*
X182106942Y-109416887D01*
X181964809Y-109358013D01*
X181813922Y-109328000D01*
X181660078Y-109328000D01*
X181509191Y-109358013D01*
X181367058Y-109416887D01*
X181239141Y-109502358D01*
X181130358Y-109611141D01*
X181044887Y-109739058D01*
X180986013Y-109881191D01*
X180956000Y-110032078D01*
X180956000Y-110174408D01*
X180638409Y-110492000D01*
X177246023Y-110492000D01*
X177366898Y-110311097D01*
X177459693Y-110087069D01*
X177507000Y-109849243D01*
X177507000Y-109606757D01*
X177459693Y-109368931D01*
X177366898Y-109144903D01*
X177232180Y-108943283D01*
X177060717Y-108771820D01*
X176859097Y-108637102D01*
X176635069Y-108544307D01*
X176397243Y-108497000D01*
X176154757Y-108497000D01*
X175916931Y-108544307D01*
X175692903Y-108637102D01*
X175491283Y-108771820D01*
X175319820Y-108943283D01*
X175185102Y-109144903D01*
X175092307Y-109368931D01*
X175045000Y-109606757D01*
X175045000Y-109849243D01*
X175092307Y-110087069D01*
X175185102Y-110311097D01*
X175305977Y-110492000D01*
X174706023Y-110492000D01*
X174826898Y-110311097D01*
X174919693Y-110087069D01*
X174967000Y-109849243D01*
X174967000Y-109606757D01*
X174919693Y-109368931D01*
X174826898Y-109144903D01*
X174692180Y-108943283D01*
X174520717Y-108771820D01*
X174319097Y-108637102D01*
X174095069Y-108544307D01*
X173857243Y-108497000D01*
X173614757Y-108497000D01*
X173376931Y-108544307D01*
X173152903Y-108637102D01*
X172951283Y-108771820D01*
X172779820Y-108943283D01*
X172645102Y-109144903D01*
X172552307Y-109368931D01*
X172505000Y-109606757D01*
X172505000Y-109849243D01*
X172552307Y-110087069D01*
X172645102Y-110311097D01*
X172765977Y-110492000D01*
X170712845Y-110492000D01*
X170687999Y-110489553D01*
X170663153Y-110492000D01*
X170663146Y-110492000D01*
X170598694Y-110498348D01*
X170588806Y-110499322D01*
X170566607Y-110506056D01*
X170493425Y-110528255D01*
X170405521Y-110575241D01*
X170328473Y-110638473D01*
X170312630Y-110657778D01*
X167938409Y-113032000D01*
X164458252Y-113032000D01*
X164451487Y-112963311D01*
X164429701Y-112891492D01*
X164394322Y-112825304D01*
X164346711Y-112767289D01*
X164317806Y-112743568D01*
X164356732Y-112685310D01*
X164423144Y-112524978D01*
X164457000Y-112354771D01*
X164457000Y-112181229D01*
X164423144Y-112011022D01*
X164356732Y-111850690D01*
X164260318Y-111706395D01*
X164186923Y-111633000D01*
X164260318Y-111559605D01*
X164297472Y-111504000D01*
X164567154Y-111504000D01*
X164592000Y-111506447D01*
X164616846Y-111504000D01*
X164616854Y-111504000D01*
X164691193Y-111496678D01*
X164786575Y-111467745D01*
X164874479Y-111420759D01*
X164951527Y-111357527D01*
X164967376Y-111338215D01*
X165313220Y-110992372D01*
X165332527Y-110976527D01*
X165395759Y-110899479D01*
X165442745Y-110811575D01*
X165471678Y-110716193D01*
X165479000Y-110641854D01*
X165479000Y-110641847D01*
X165481447Y-110617001D01*
X165479000Y-110592155D01*
X165479000Y-108080100D01*
X173023505Y-108080100D01*
X173115523Y-108258078D01*
X173336207Y-108358566D01*
X173572255Y-108414069D01*
X173814596Y-108422456D01*
X174053917Y-108383402D01*
X174281020Y-108298411D01*
X174356477Y-108258078D01*
X174448495Y-108080100D01*
X173736000Y-107367605D01*
X173023505Y-108080100D01*
X165479000Y-108080100D01*
X165479000Y-107266596D01*
X172501544Y-107266596D01*
X172540598Y-107505917D01*
X172625589Y-107733020D01*
X172665922Y-107808477D01*
X172843900Y-107900495D01*
X173556395Y-107188000D01*
X173915605Y-107188000D01*
X174628100Y-107900495D01*
X174806078Y-107808477D01*
X174906566Y-107587793D01*
X174962069Y-107351745D01*
X174970456Y-107109404D01*
X174931402Y-106870083D01*
X174846411Y-106642980D01*
X174806078Y-106567523D01*
X174628100Y-106475505D01*
X173915605Y-107188000D01*
X173556395Y-107188000D01*
X172843900Y-106475505D01*
X172665922Y-106567523D01*
X172565434Y-106788207D01*
X172509931Y-107024255D01*
X172501544Y-107266596D01*
X165479000Y-107266596D01*
X165479000Y-106295900D01*
X173023505Y-106295900D01*
X173736000Y-107008395D01*
X174448495Y-106295900D01*
X174356477Y-106117922D01*
X174135793Y-106017434D01*
X173899745Y-105961931D01*
X173657404Y-105953544D01*
X173418083Y-105992598D01*
X173190980Y-106077589D01*
X173115523Y-106117922D01*
X173023505Y-106295900D01*
X165479000Y-106295900D01*
X165479000Y-102005853D01*
X165481448Y-101981000D01*
X165479000Y-101956146D01*
X165479000Y-92073000D01*
X168319409Y-92073000D01*
X169804628Y-93558220D01*
X169820473Y-93577527D01*
X169897521Y-93640759D01*
X169985425Y-93687745D01*
X170080807Y-93716678D01*
X170180000Y-93726448D01*
X170204854Y-93724000D01*
X172765977Y-93724000D01*
X172645102Y-93904903D01*
X172552307Y-94128931D01*
X172505000Y-94366757D01*
X172505000Y-94609243D01*
X172552307Y-94847069D01*
X172645102Y-95071097D01*
X172779820Y-95272717D01*
X172951283Y-95444180D01*
X173152903Y-95578898D01*
X173376931Y-95671693D01*
X173614757Y-95719000D01*
X173857243Y-95719000D01*
X174095069Y-95671693D01*
X174319097Y-95578898D01*
X174520717Y-95444180D01*
X174692180Y-95272717D01*
X174826898Y-95071097D01*
X174919693Y-94847069D01*
X174967000Y-94609243D01*
X174967000Y-94366757D01*
X174919693Y-94128931D01*
X174826898Y-93904903D01*
X174706023Y-93724000D01*
X175067614Y-93724000D01*
X175055317Y-93764538D01*
X175043157Y-93888000D01*
X175043157Y-95088000D01*
X175055317Y-95211462D01*
X175091329Y-95330179D01*
X175149810Y-95439589D01*
X175228512Y-95535488D01*
X175324411Y-95614190D01*
X175433821Y-95672671D01*
X175552538Y-95708683D01*
X175676000Y-95720843D01*
X175770000Y-95720843D01*
X175770001Y-101829144D01*
X175767553Y-101854000D01*
X175777322Y-101953192D01*
X175806255Y-102048574D01*
X175806256Y-102048575D01*
X175853242Y-102136479D01*
X175916474Y-102213527D01*
X175935780Y-102229372D01*
X177424628Y-103718220D01*
X177440473Y-103737527D01*
X177517521Y-103800759D01*
X177605425Y-103847745D01*
X177678607Y-103869944D01*
X177700806Y-103876678D01*
X177710694Y-103877652D01*
X177775146Y-103884000D01*
X177775153Y-103884000D01*
X177799999Y-103886447D01*
X177824845Y-103884000D01*
X186508392Y-103884000D01*
X186559898Y-103935506D01*
X186381922Y-104027523D01*
X186281434Y-104248207D01*
X186225931Y-104484255D01*
X186217544Y-104726596D01*
X186256598Y-104965917D01*
X186341589Y-105193020D01*
X186381922Y-105268477D01*
X186559898Y-105360494D01*
X186508392Y-105412000D01*
X179348845Y-105412000D01*
X179323999Y-105409553D01*
X179299153Y-105412000D01*
X179299146Y-105412000D01*
X179234694Y-105418348D01*
X179224806Y-105419322D01*
X179187139Y-105430748D01*
X179129425Y-105448255D01*
X179041521Y-105495241D01*
X178964473Y-105558473D01*
X178948629Y-105577779D01*
X177844409Y-106682000D01*
X177398832Y-106682000D01*
X177366898Y-106604903D01*
X177232180Y-106403283D01*
X177060717Y-106231820D01*
X176859097Y-106097102D01*
X176635069Y-106004307D01*
X176397243Y-105957000D01*
X176154757Y-105957000D01*
X175916931Y-106004307D01*
X175692903Y-106097102D01*
X175491283Y-106231820D01*
X175319820Y-106403283D01*
X175185102Y-106604903D01*
X175092307Y-106828931D01*
X175045000Y-107066757D01*
X175045000Y-107309243D01*
X175092307Y-107547069D01*
X175185102Y-107771097D01*
X175319820Y-107972717D01*
X175491283Y-108144180D01*
X175692903Y-108278898D01*
X175916931Y-108371693D01*
X176154757Y-108419000D01*
X176397243Y-108419000D01*
X176635069Y-108371693D01*
X176859097Y-108278898D01*
X177060717Y-108144180D01*
X177124797Y-108080100D01*
X186739505Y-108080100D01*
X186831523Y-108258078D01*
X187052207Y-108358566D01*
X187288255Y-108414069D01*
X187530596Y-108422456D01*
X187769917Y-108383402D01*
X187997020Y-108298411D01*
X188072477Y-108258078D01*
X188164495Y-108080100D01*
X187452000Y-107367605D01*
X186739505Y-108080100D01*
X177124797Y-108080100D01*
X177232180Y-107972717D01*
X177366898Y-107771097D01*
X177398832Y-107694000D01*
X178029154Y-107694000D01*
X178054000Y-107696447D01*
X178078846Y-107694000D01*
X178078854Y-107694000D01*
X178153193Y-107686678D01*
X178248575Y-107657745D01*
X178336479Y-107610759D01*
X178413527Y-107547527D01*
X178429376Y-107528215D01*
X179533592Y-106424000D01*
X186508392Y-106424000D01*
X186559898Y-106475506D01*
X186381922Y-106567523D01*
X186281434Y-106788207D01*
X186225931Y-107024255D01*
X186217544Y-107266596D01*
X186256598Y-107505917D01*
X186341589Y-107733020D01*
X186381922Y-107808477D01*
X186559900Y-107900495D01*
X187272395Y-107188000D01*
X187258253Y-107173858D01*
X187437858Y-106994253D01*
X187452000Y-107008395D01*
X187466143Y-106994253D01*
X187645748Y-107173858D01*
X187631605Y-107188000D01*
X188344100Y-107900495D01*
X188522078Y-107808477D01*
X188622566Y-107587793D01*
X188678069Y-107351745D01*
X188686456Y-107109404D01*
X188647402Y-106870083D01*
X188562411Y-106642980D01*
X188522078Y-106567523D01*
X188344102Y-106475506D01*
X188395608Y-106424000D01*
X189021977Y-106424000D01*
X188901102Y-106604903D01*
X188808307Y-106828931D01*
X188761000Y-107066757D01*
X188761000Y-107309243D01*
X188808307Y-107547069D01*
X188901102Y-107771097D01*
X189035820Y-107972717D01*
X189207283Y-108144180D01*
X189408903Y-108278898D01*
X189632931Y-108371693D01*
X189870757Y-108419000D01*
X190113243Y-108419000D01*
X190351069Y-108371693D01*
X190575097Y-108278898D01*
X190776717Y-108144180D01*
X190948180Y-107972717D01*
X191082898Y-107771097D01*
X191175693Y-107547069D01*
X191223000Y-107309243D01*
X191223000Y-107066757D01*
X191175693Y-106828931D01*
X191082898Y-106604903D01*
X190962023Y-106424000D01*
X191618154Y-106424000D01*
X191643000Y-106426447D01*
X191667846Y-106424000D01*
X191667854Y-106424000D01*
X191742193Y-106416678D01*
X191837575Y-106387745D01*
X191925479Y-106340759D01*
X192002527Y-106277527D01*
X192018376Y-106258215D01*
X194650220Y-103626372D01*
X194669527Y-103610527D01*
X194732759Y-103533479D01*
X194779745Y-103445575D01*
X194808678Y-103350193D01*
X194816000Y-103275854D01*
X194818448Y-103251000D01*
X194816000Y-103226146D01*
X194816000Y-102424980D01*
X195660511Y-102424980D01*
X195684866Y-102505288D01*
X195784761Y-102724961D01*
X195925592Y-102920924D01*
X196101948Y-103085647D01*
X196307051Y-103212799D01*
X196533019Y-103297495D01*
X196723000Y-103237187D01*
X196723000Y-102235000D01*
X196977000Y-102235000D01*
X196977000Y-103237187D01*
X197166981Y-103297495D01*
X197392949Y-103212799D01*
X197598052Y-103085647D01*
X197774408Y-102920924D01*
X197915239Y-102724961D01*
X198015134Y-102505288D01*
X198039489Y-102424980D01*
X197978627Y-102235000D01*
X196977000Y-102235000D01*
X196723000Y-102235000D01*
X195721373Y-102235000D01*
X195660511Y-102424980D01*
X194816000Y-102424980D01*
X194816000Y-101791020D01*
X195660511Y-101791020D01*
X195721373Y-101981000D01*
X196723000Y-101981000D01*
X196723000Y-100978813D01*
X196977000Y-100978813D01*
X196977000Y-101981000D01*
X197978627Y-101981000D01*
X198039489Y-101791020D01*
X198015134Y-101710712D01*
X197915239Y-101491039D01*
X197774408Y-101295076D01*
X197598052Y-101130353D01*
X197392949Y-101003201D01*
X197166981Y-100918505D01*
X196977000Y-100978813D01*
X196723000Y-100978813D01*
X196533019Y-100918505D01*
X196307051Y-101003201D01*
X196101948Y-101130353D01*
X195925592Y-101295076D01*
X195784761Y-101491039D01*
X195684866Y-101710712D01*
X195660511Y-101791020D01*
X194816000Y-101791020D01*
X194816000Y-99446757D01*
X195619000Y-99446757D01*
X195619000Y-99689243D01*
X195666307Y-99927069D01*
X195759102Y-100151097D01*
X195893820Y-100352717D01*
X196065283Y-100524180D01*
X196266903Y-100658898D01*
X196490931Y-100751693D01*
X196728757Y-100799000D01*
X196971243Y-100799000D01*
X197209069Y-100751693D01*
X197433097Y-100658898D01*
X197634717Y-100524180D01*
X197806180Y-100352717D01*
X197940898Y-100151097D01*
X198033693Y-99927069D01*
X198081000Y-99689243D01*
X198081000Y-99446757D01*
X198033693Y-99208931D01*
X197940898Y-98984903D01*
X197806180Y-98783283D01*
X197634717Y-98611820D01*
X197433097Y-98477102D01*
X197209069Y-98384307D01*
X196971243Y-98337000D01*
X196728757Y-98337000D01*
X196490931Y-98384307D01*
X196266903Y-98477102D01*
X196065283Y-98611820D01*
X195893820Y-98783283D01*
X195759102Y-98984903D01*
X195666307Y-99208931D01*
X195619000Y-99446757D01*
X194816000Y-99446757D01*
X194816000Y-96906757D01*
X195619000Y-96906757D01*
X195619000Y-97149243D01*
X195666307Y-97387069D01*
X195759102Y-97611097D01*
X195893820Y-97812717D01*
X196065283Y-97984180D01*
X196266903Y-98118898D01*
X196490931Y-98211693D01*
X196728757Y-98259000D01*
X196971243Y-98259000D01*
X197209069Y-98211693D01*
X197433097Y-98118898D01*
X197634717Y-97984180D01*
X197806180Y-97812717D01*
X197940898Y-97611097D01*
X198033693Y-97387069D01*
X198081000Y-97149243D01*
X198081000Y-96906757D01*
X198033693Y-96668931D01*
X197940898Y-96444903D01*
X197806180Y-96243283D01*
X197634717Y-96071820D01*
X197433097Y-95937102D01*
X197209069Y-95844307D01*
X196971243Y-95797000D01*
X196728757Y-95797000D01*
X196490931Y-95844307D01*
X196266903Y-95937102D01*
X196065283Y-96071820D01*
X195893820Y-96243283D01*
X195759102Y-96444903D01*
X195666307Y-96668931D01*
X195619000Y-96906757D01*
X194816000Y-96906757D01*
X194816000Y-95967591D01*
X195745451Y-95038141D01*
X195759102Y-95071097D01*
X195893820Y-95272717D01*
X196065283Y-95444180D01*
X196266903Y-95578898D01*
X196490931Y-95671693D01*
X196728757Y-95719000D01*
X196971243Y-95719000D01*
X197209069Y-95671693D01*
X197433097Y-95578898D01*
X197634717Y-95444180D01*
X197806180Y-95272717D01*
X197940898Y-95071097D01*
X197972832Y-94994000D01*
X198095154Y-94994000D01*
X198120000Y-94996447D01*
X198144846Y-94994000D01*
X198144854Y-94994000D01*
X198219193Y-94986678D01*
X198314575Y-94957745D01*
X198402479Y-94910759D01*
X198479527Y-94847527D01*
X198495376Y-94828215D01*
X198968222Y-94355370D01*
X198987527Y-94339527D01*
X199050759Y-94262479D01*
X199097745Y-94174575D01*
X199126678Y-94079193D01*
X199134000Y-94004854D01*
X199134000Y-94004847D01*
X199136447Y-93980001D01*
X199134000Y-93955155D01*
X199134000Y-88416845D01*
X199136447Y-88391999D01*
X199134000Y-88367153D01*
X199134000Y-88367146D01*
X199126678Y-88292807D01*
X199118108Y-88264553D01*
X199097745Y-88197425D01*
X199089463Y-88181931D01*
X199050759Y-88109521D01*
X198987527Y-88032473D01*
X198968220Y-88016628D01*
X197326000Y-86374409D01*
X197326000Y-85714252D01*
X197394689Y-85707487D01*
X197466508Y-85685701D01*
X197470000Y-85683834D01*
X197473492Y-85685701D01*
X197545311Y-85707487D01*
X197620000Y-85714843D01*
X198620000Y-85714843D01*
X198694689Y-85707487D01*
X198766508Y-85685701D01*
X198770000Y-85683834D01*
X198773492Y-85685701D01*
X198845311Y-85707487D01*
X198914001Y-85714252D01*
X198914001Y-86178144D01*
X198911553Y-86203000D01*
X198921322Y-86302192D01*
X198950255Y-86397574D01*
X198950256Y-86397575D01*
X198997242Y-86485479D01*
X199060474Y-86562527D01*
X199079780Y-86578371D01*
X199265001Y-86763593D01*
X199265000Y-105893154D01*
X199262553Y-105918000D01*
X199265000Y-105942846D01*
X199265000Y-105942853D01*
X199266753Y-105960655D01*
X198545409Y-106682000D01*
X198082843Y-106682000D01*
X198082843Y-106338000D01*
X198075487Y-106263311D01*
X198053701Y-106191492D01*
X198018322Y-106125304D01*
X197970711Y-106067289D01*
X197912696Y-106019678D01*
X197846508Y-105984299D01*
X197774689Y-105962513D01*
X197700000Y-105955157D01*
X196000000Y-105955157D01*
X195925311Y-105962513D01*
X195853492Y-105984299D01*
X195787304Y-106019678D01*
X195729289Y-106067289D01*
X195681678Y-106125304D01*
X195646299Y-106191492D01*
X195624513Y-106263311D01*
X195617157Y-106338000D01*
X195617157Y-108038000D01*
X195624513Y-108112689D01*
X195646299Y-108184508D01*
X195681678Y-108250696D01*
X195729289Y-108308711D01*
X195787304Y-108356322D01*
X195853492Y-108391701D01*
X195925311Y-108413487D01*
X196000000Y-108420843D01*
X197700000Y-108420843D01*
X197774689Y-108413487D01*
X197846508Y-108391701D01*
X197912696Y-108356322D01*
X197970711Y-108308711D01*
X198018322Y-108250696D01*
X198053701Y-108184508D01*
X198075487Y-108112689D01*
X198082843Y-108038000D01*
X198082843Y-107694000D01*
X198730154Y-107694000D01*
X198755000Y-107696447D01*
X198779846Y-107694000D01*
X198779854Y-107694000D01*
X198854193Y-107686678D01*
X198949575Y-107657745D01*
X199037479Y-107610759D01*
X199114527Y-107547527D01*
X199130376Y-107528215D01*
X200238230Y-106420362D01*
X200257526Y-106404526D01*
X200273361Y-106385231D01*
X200273370Y-106385222D01*
X200320758Y-106327479D01*
X200367745Y-106239575D01*
X200396678Y-106144194D01*
X200406447Y-106045001D01*
X200403732Y-106017434D01*
X200396678Y-105945806D01*
X200367745Y-105850426D01*
X200320758Y-105762522D01*
X200277000Y-105709202D01*
X200277000Y-86578846D01*
X200279447Y-86554000D01*
X200277000Y-86529154D01*
X200277000Y-86529146D01*
X200269678Y-86454807D01*
X200240745Y-86359425D01*
X200193759Y-86271521D01*
X200130527Y-86194473D01*
X200111220Y-86178628D01*
X199926000Y-85993409D01*
X199926000Y-85714252D01*
X199994689Y-85707487D01*
X200066508Y-85685701D01*
X200132696Y-85650322D01*
X200190711Y-85602711D01*
X200238322Y-85544696D01*
X200273701Y-85478508D01*
X200295487Y-85406689D01*
X200302843Y-85332000D01*
X200302843Y-83832000D01*
X200295487Y-83757311D01*
X200273701Y-83685492D01*
X200238322Y-83619304D01*
X200190711Y-83561289D01*
X200132696Y-83513678D01*
X200066508Y-83478299D01*
X199994689Y-83456513D01*
X199920000Y-83449157D01*
X198920000Y-83449157D01*
X198845311Y-83456513D01*
X198773492Y-83478299D01*
X198770000Y-83480166D01*
X198766508Y-83478299D01*
X198694689Y-83456513D01*
X198626000Y-83449748D01*
X198626000Y-82701845D01*
X198628447Y-82676999D01*
X198626000Y-82652153D01*
X198626000Y-82652146D01*
X198618678Y-82577807D01*
X198589745Y-82482425D01*
X198542759Y-82394521D01*
X198479527Y-82317473D01*
X198460220Y-82301628D01*
X197669876Y-81511285D01*
X197654027Y-81491973D01*
X197576979Y-81428741D01*
X197489075Y-81381755D01*
X197393693Y-81352822D01*
X197319354Y-81345500D01*
X197319346Y-81345500D01*
X197294500Y-81343053D01*
X197269654Y-81345500D01*
X191731346Y-81345500D01*
X191706500Y-81343053D01*
X191681654Y-81345500D01*
X162775354Y-81345500D01*
X162750500Y-81343052D01*
X162725646Y-81345500D01*
X162651307Y-81352822D01*
X162555925Y-81381755D01*
X162468021Y-81428741D01*
X162390973Y-81491973D01*
X162375128Y-81511280D01*
X161965785Y-81920624D01*
X161946473Y-81936473D01*
X161883241Y-82013521D01*
X161836255Y-82101426D01*
X161807322Y-82196808D01*
X161800000Y-82271147D01*
X161800000Y-82271154D01*
X161797553Y-82296000D01*
X161800000Y-82320847D01*
X161800000Y-82336528D01*
X161744395Y-82373682D01*
X161621682Y-82496395D01*
X161525268Y-82640690D01*
X161458856Y-82801022D01*
X161425000Y-82971229D01*
X161425000Y-83144771D01*
X161458856Y-83314978D01*
X161525268Y-83475310D01*
X161621682Y-83619605D01*
X161695077Y-83693000D01*
X161621682Y-83766395D01*
X161584528Y-83822000D01*
X160933845Y-83822000D01*
X160908999Y-83819553D01*
X160884153Y-83822000D01*
X160884146Y-83822000D01*
X160819694Y-83828348D01*
X160809806Y-83829322D01*
X160787607Y-83836056D01*
X160714425Y-83858255D01*
X160626521Y-83905241D01*
X160549473Y-83968473D01*
X160533628Y-83987780D01*
X159864769Y-84656640D01*
X159845463Y-84672484D01*
X159782231Y-84749532D01*
X159735245Y-84837436D01*
X159706312Y-84932818D01*
X159698990Y-85007157D01*
X159698990Y-85007164D01*
X159696543Y-85032010D01*
X159698990Y-85056856D01*
X159698992Y-88934545D01*
X159696544Y-88959401D01*
X159706313Y-89058593D01*
X159735246Y-89153975D01*
X159757118Y-89194893D01*
X159782233Y-89241880D01*
X159845465Y-89318928D01*
X159864771Y-89334772D01*
X160417521Y-89887522D01*
X160987738Y-90457740D01*
X161003583Y-90477047D01*
X161080631Y-90540279D01*
X161168535Y-90587265D01*
X161263917Y-90616198D01*
X161363110Y-90625968D01*
X161387964Y-90623520D01*
X167223134Y-90623520D01*
X167247980Y-90625967D01*
X167272826Y-90623520D01*
X167272834Y-90623520D01*
X167347173Y-90616198D01*
X167359364Y-90612500D01*
X168692499Y-90612500D01*
X168793141Y-90713142D01*
X168921058Y-90798613D01*
X169063191Y-90857487D01*
X169214078Y-90887500D01*
X169367922Y-90887500D01*
X169518809Y-90857487D01*
X169660942Y-90798613D01*
X169788859Y-90713142D01*
X169897642Y-90604359D01*
X169983113Y-90476442D01*
X170041987Y-90334309D01*
X170048791Y-90300100D01*
X173023505Y-90300100D01*
X173115523Y-90478078D01*
X173336207Y-90578566D01*
X173572255Y-90634069D01*
X173814596Y-90642456D01*
X174053917Y-90603402D01*
X174281020Y-90518411D01*
X174356477Y-90478078D01*
X174448495Y-90300100D01*
X173736000Y-89587605D01*
X173023505Y-90300100D01*
X170048791Y-90300100D01*
X170072000Y-90183422D01*
X170072000Y-90029578D01*
X170041987Y-89878691D01*
X169983113Y-89736558D01*
X169897642Y-89608641D01*
X169788859Y-89499858D01*
X169660942Y-89414387D01*
X169518809Y-89355513D01*
X169367922Y-89325500D01*
X169214078Y-89325500D01*
X169063191Y-89355513D01*
X168921058Y-89414387D01*
X168793141Y-89499858D01*
X168692499Y-89600500D01*
X167782091Y-89600500D01*
X168234220Y-89148372D01*
X168253527Y-89132527D01*
X168316759Y-89055479D01*
X168363745Y-88967575D01*
X168363745Y-88967574D01*
X168392678Y-88872194D01*
X168396595Y-88832425D01*
X168400000Y-88797854D01*
X168400000Y-88797847D01*
X168402447Y-88773001D01*
X168400000Y-88748155D01*
X168400000Y-87077591D01*
X169373592Y-86104000D01*
X172792392Y-86104000D01*
X172843898Y-86155506D01*
X172665922Y-86247523D01*
X172565434Y-86468207D01*
X172509931Y-86704255D01*
X172501544Y-86946596D01*
X172540598Y-87185917D01*
X172625589Y-87413020D01*
X172665922Y-87488477D01*
X172843898Y-87580494D01*
X172792392Y-87632000D01*
X169889501Y-87632000D01*
X169788859Y-87531358D01*
X169660942Y-87445887D01*
X169518809Y-87387013D01*
X169367922Y-87357000D01*
X169214078Y-87357000D01*
X169063191Y-87387013D01*
X168921058Y-87445887D01*
X168793141Y-87531358D01*
X168684358Y-87640141D01*
X168598887Y-87768058D01*
X168540013Y-87910191D01*
X168510000Y-88061078D01*
X168510000Y-88214922D01*
X168540013Y-88365809D01*
X168598887Y-88507942D01*
X168684358Y-88635859D01*
X168793141Y-88744642D01*
X168921058Y-88830113D01*
X169063191Y-88888987D01*
X169214078Y-88919000D01*
X169367922Y-88919000D01*
X169518809Y-88888987D01*
X169660942Y-88830113D01*
X169788859Y-88744642D01*
X169889501Y-88644000D01*
X172792392Y-88644000D01*
X172843898Y-88695506D01*
X172665922Y-88787523D01*
X172565434Y-89008207D01*
X172509931Y-89244255D01*
X172501544Y-89486596D01*
X172540598Y-89725917D01*
X172625589Y-89953020D01*
X172665922Y-90028477D01*
X172843900Y-90120495D01*
X173556395Y-89408000D01*
X173542253Y-89393858D01*
X173721858Y-89214253D01*
X173736000Y-89228395D01*
X173750143Y-89214253D01*
X173929748Y-89393858D01*
X173915605Y-89408000D01*
X174628100Y-90120495D01*
X174806078Y-90028477D01*
X174906566Y-89807793D01*
X174962069Y-89571745D01*
X174970456Y-89329404D01*
X174931402Y-89090083D01*
X174846411Y-88862980D01*
X174806078Y-88787523D01*
X174628102Y-88695506D01*
X174679608Y-88644000D01*
X175305977Y-88644000D01*
X175185102Y-88824903D01*
X175092307Y-89048931D01*
X175045000Y-89286757D01*
X175045000Y-89529243D01*
X175092307Y-89767069D01*
X175185102Y-89991097D01*
X175319820Y-90192717D01*
X175491283Y-90364180D01*
X175692903Y-90498898D01*
X175916931Y-90591693D01*
X176154757Y-90639000D01*
X176397243Y-90639000D01*
X176635069Y-90591693D01*
X176859097Y-90498898D01*
X177060717Y-90364180D01*
X177232180Y-90192717D01*
X177366898Y-89991097D01*
X177459693Y-89767069D01*
X177507000Y-89529243D01*
X177507000Y-89286757D01*
X177459693Y-89048931D01*
X177366898Y-88824903D01*
X177246023Y-88644000D01*
X180257409Y-88644000D01*
X181231001Y-89617593D01*
X181231000Y-97699499D01*
X181130358Y-97800141D01*
X181044887Y-97928058D01*
X180986013Y-98070191D01*
X180956000Y-98221078D01*
X180956000Y-98374922D01*
X180986013Y-98525809D01*
X181044887Y-98667942D01*
X181130358Y-98795859D01*
X181239141Y-98904642D01*
X181367058Y-98990113D01*
X181509191Y-99048987D01*
X181660078Y-99079000D01*
X181813922Y-99079000D01*
X181964809Y-99048987D01*
X182106942Y-98990113D01*
X182234859Y-98904642D01*
X182335501Y-98804000D01*
X186508392Y-98804000D01*
X186559898Y-98855506D01*
X186381922Y-98947523D01*
X186281434Y-99168207D01*
X186225931Y-99404255D01*
X186217544Y-99646596D01*
X186256598Y-99885917D01*
X186341589Y-100113020D01*
X186381922Y-100188477D01*
X186559898Y-100280494D01*
X186508392Y-100332000D01*
X180803592Y-100332000D01*
X179957000Y-99485409D01*
X179957000Y-94512845D01*
X179959447Y-94487999D01*
X179957000Y-94463153D01*
X179957000Y-94463146D01*
X179949678Y-94388807D01*
X179942990Y-94366757D01*
X179920745Y-94293425D01*
X179904203Y-94262478D01*
X179873759Y-94205521D01*
X179810527Y-94128473D01*
X179791220Y-94112628D01*
X178556376Y-92877785D01*
X178540527Y-92858473D01*
X178463479Y-92795241D01*
X178375575Y-92748255D01*
X178280193Y-92719322D01*
X178205854Y-92712000D01*
X178205846Y-92712000D01*
X178181000Y-92709553D01*
X178156154Y-92712000D01*
X177246023Y-92712000D01*
X177366898Y-92531097D01*
X177459693Y-92307069D01*
X177507000Y-92069243D01*
X177507000Y-91826757D01*
X177459693Y-91588931D01*
X177366898Y-91364903D01*
X177232180Y-91163283D01*
X177060717Y-90991820D01*
X176859097Y-90857102D01*
X176635069Y-90764307D01*
X176397243Y-90717000D01*
X176154757Y-90717000D01*
X175916931Y-90764307D01*
X175692903Y-90857102D01*
X175491283Y-90991820D01*
X175319820Y-91163283D01*
X175185102Y-91364903D01*
X175092307Y-91588931D01*
X175045000Y-91826757D01*
X175045000Y-92069243D01*
X175092307Y-92307069D01*
X175185102Y-92531097D01*
X175305977Y-92712000D01*
X174679608Y-92712000D01*
X174628102Y-92660494D01*
X174806078Y-92568477D01*
X174906566Y-92347793D01*
X174962069Y-92111745D01*
X174970456Y-91869404D01*
X174931402Y-91630083D01*
X174846411Y-91402980D01*
X174806078Y-91327523D01*
X174628100Y-91235505D01*
X173915605Y-91948000D01*
X173929748Y-91962143D01*
X173750143Y-92141748D01*
X173736000Y-92127605D01*
X173721858Y-92141748D01*
X173542253Y-91962143D01*
X173556395Y-91948000D01*
X172843900Y-91235505D01*
X172665922Y-91327523D01*
X172565434Y-91548207D01*
X172509931Y-91784255D01*
X172501544Y-92026596D01*
X172540598Y-92265917D01*
X172625589Y-92493020D01*
X172665922Y-92568477D01*
X172843898Y-92660494D01*
X172792392Y-92712000D01*
X170389592Y-92712000D01*
X168904376Y-91226785D01*
X168888527Y-91207473D01*
X168811479Y-91144241D01*
X168723575Y-91097255D01*
X168628193Y-91068322D01*
X168553854Y-91061000D01*
X168553846Y-91061000D01*
X168529000Y-91058553D01*
X168504154Y-91061000D01*
X164997854Y-91061000D01*
X164973000Y-91058552D01*
X164948146Y-91061000D01*
X161634501Y-91061000D01*
X161629401Y-91055900D01*
X173023505Y-91055900D01*
X173736000Y-91768395D01*
X174448495Y-91055900D01*
X174356477Y-90877922D01*
X174135793Y-90777434D01*
X173899745Y-90721931D01*
X173657404Y-90713544D01*
X173418083Y-90752598D01*
X173190980Y-90837589D01*
X173115523Y-90877922D01*
X173023505Y-91055900D01*
X161629401Y-91055900D01*
X161533859Y-90960358D01*
X161405942Y-90874887D01*
X161263809Y-90816013D01*
X161112922Y-90786000D01*
X160959078Y-90786000D01*
X160808191Y-90816013D01*
X160666058Y-90874887D01*
X160538141Y-90960358D01*
X160429358Y-91069141D01*
X160343887Y-91197058D01*
X160285013Y-91339191D01*
X160255000Y-91490078D01*
X160255000Y-91643922D01*
X160285013Y-91794809D01*
X160343887Y-91936942D01*
X160429358Y-92064859D01*
X160538141Y-92173642D01*
X160666058Y-92259113D01*
X160808191Y-92317987D01*
X160959078Y-92348000D01*
X161112922Y-92348000D01*
X161263809Y-92317987D01*
X161405942Y-92259113D01*
X161533859Y-92173642D01*
X161634501Y-92073000D01*
X164467001Y-92073000D01*
X164467000Y-101475000D01*
X164063832Y-101475000D01*
X164031898Y-101397903D01*
X163897180Y-101196283D01*
X163725717Y-101024820D01*
X163524097Y-100890102D01*
X163300069Y-100797307D01*
X163062243Y-100750000D01*
X162819757Y-100750000D01*
X162581931Y-100797307D01*
X162357903Y-100890102D01*
X162156283Y-101024820D01*
X161984820Y-101196283D01*
X161850102Y-101397903D01*
X161757307Y-101621931D01*
X161710000Y-101859757D01*
X161710000Y-102102243D01*
X161757307Y-102340069D01*
X161850102Y-102564097D01*
X161984820Y-102765717D01*
X162156283Y-102937180D01*
X162357903Y-103071898D01*
X162581931Y-103164693D01*
X162819757Y-103212000D01*
X163062243Y-103212000D01*
X163300069Y-103164693D01*
X163524097Y-103071898D01*
X163725717Y-102937180D01*
X163897180Y-102765717D01*
X164031898Y-102564097D01*
X164063832Y-102487000D01*
X164467001Y-102487000D01*
X164467000Y-110407408D01*
X164382409Y-110492000D01*
X164297472Y-110492000D01*
X164260318Y-110436395D01*
X164186923Y-110363000D01*
X164260318Y-110289605D01*
X164356732Y-110145310D01*
X164423144Y-109984978D01*
X164457000Y-109814771D01*
X164457000Y-109641229D01*
X164423144Y-109471022D01*
X164356732Y-109310690D01*
X164260318Y-109166395D01*
X164186923Y-109093000D01*
X164260318Y-109019605D01*
X164356732Y-108875310D01*
X164423144Y-108714978D01*
X164457000Y-108544771D01*
X164457000Y-108371229D01*
X164423144Y-108201022D01*
X164356732Y-108040690D01*
X164260318Y-107896395D01*
X164137605Y-107773682D01*
X164082000Y-107736528D01*
X164082000Y-107282843D01*
X164084447Y-107257997D01*
X164082000Y-107233151D01*
X164082000Y-107233144D01*
X164074678Y-107158805D01*
X164045745Y-107063423D01*
X163998759Y-106975519D01*
X163935527Y-106898471D01*
X163916220Y-106882626D01*
X161542000Y-104508407D01*
X161542000Y-100158591D01*
X161753592Y-99947000D01*
X161818168Y-99947000D01*
X161850102Y-100024097D01*
X161984820Y-100225717D01*
X162156283Y-100397180D01*
X162357903Y-100531898D01*
X162581931Y-100624693D01*
X162819757Y-100672000D01*
X163062243Y-100672000D01*
X163300069Y-100624693D01*
X163524097Y-100531898D01*
X163725717Y-100397180D01*
X163897180Y-100225717D01*
X164031898Y-100024097D01*
X164124693Y-99800069D01*
X164172000Y-99562243D01*
X164172000Y-99319757D01*
X164124693Y-99081931D01*
X164031898Y-98857903D01*
X163897180Y-98656283D01*
X163725717Y-98484820D01*
X163524097Y-98350102D01*
X163300069Y-98257307D01*
X163062243Y-98210000D01*
X162819757Y-98210000D01*
X162581931Y-98257307D01*
X162357903Y-98350102D01*
X162156283Y-98484820D01*
X161984820Y-98656283D01*
X161850102Y-98857903D01*
X161818168Y-98935000D01*
X161568845Y-98935000D01*
X161543999Y-98932553D01*
X161519153Y-98935000D01*
X161519146Y-98935000D01*
X161454694Y-98941348D01*
X161444806Y-98942322D01*
X161427661Y-98947523D01*
X161349425Y-98971255D01*
X161261521Y-99018241D01*
X161184473Y-99081473D01*
X161168628Y-99100780D01*
X160695780Y-99573629D01*
X160676474Y-99589473D01*
X160613242Y-99666521D01*
X160601097Y-99689243D01*
X160566255Y-99754426D01*
X160537322Y-99849808D01*
X160527553Y-99949000D01*
X160530001Y-99973856D01*
X160530000Y-104180499D01*
X160517859Y-104168358D01*
X160389942Y-104082887D01*
X160247809Y-104024013D01*
X160096922Y-103994000D01*
X159943078Y-103994000D01*
X159792191Y-104024013D01*
X159650058Y-104082887D01*
X159522141Y-104168358D01*
X159413358Y-104277141D01*
X159327887Y-104405058D01*
X159269013Y-104547191D01*
X159239000Y-104698078D01*
X159239000Y-104851922D01*
X159269013Y-105002809D01*
X159327887Y-105144942D01*
X159413358Y-105272859D01*
X159514001Y-105373502D01*
X159514000Y-110211154D01*
X159511553Y-110236000D01*
X159514000Y-110260846D01*
X159514000Y-110260853D01*
X159521322Y-110335192D01*
X159550255Y-110430574D01*
X159597241Y-110518479D01*
X159660473Y-110595527D01*
X159679785Y-110611376D01*
X160406628Y-111338220D01*
X160422473Y-111357527D01*
X160458386Y-111387000D01*
X159123000Y-111387000D01*
X159123000Y-97217980D01*
X161751511Y-97217980D01*
X161775866Y-97298288D01*
X161875761Y-97517961D01*
X162016592Y-97713924D01*
X162192948Y-97878647D01*
X162398051Y-98005799D01*
X162624019Y-98090495D01*
X162814000Y-98030187D01*
X162814000Y-97028000D01*
X163068000Y-97028000D01*
X163068000Y-98030187D01*
X163257981Y-98090495D01*
X163483949Y-98005799D01*
X163689052Y-97878647D01*
X163865408Y-97713924D01*
X164006239Y-97517961D01*
X164106134Y-97298288D01*
X164130489Y-97217980D01*
X164069627Y-97028000D01*
X163068000Y-97028000D01*
X162814000Y-97028000D01*
X161812373Y-97028000D01*
X161751511Y-97217980D01*
X159123000Y-97217980D01*
X159123000Y-96584020D01*
X161751511Y-96584020D01*
X161812373Y-96774000D01*
X162814000Y-96774000D01*
X162814000Y-95771813D01*
X163068000Y-95771813D01*
X163068000Y-96774000D01*
X164069627Y-96774000D01*
X164130489Y-96584020D01*
X164106134Y-96503712D01*
X164006239Y-96284039D01*
X163865408Y-96088076D01*
X163689052Y-95923353D01*
X163483949Y-95796201D01*
X163257981Y-95711505D01*
X163068000Y-95771813D01*
X162814000Y-95771813D01*
X162624019Y-95711505D01*
X162398051Y-95796201D01*
X162192948Y-95923353D01*
X162016592Y-96088076D01*
X161875761Y-96284039D01*
X161775866Y-96503712D01*
X161751511Y-96584020D01*
X159123000Y-96584020D01*
X159123000Y-95995921D01*
X159876922Y-95242000D01*
X161711210Y-95242000D01*
X161715513Y-95285689D01*
X161737299Y-95357508D01*
X161772678Y-95423696D01*
X161820289Y-95481711D01*
X161878304Y-95529322D01*
X161944492Y-95564701D01*
X162016311Y-95586487D01*
X162091000Y-95593843D01*
X163791000Y-95593843D01*
X163865689Y-95586487D01*
X163937508Y-95564701D01*
X164003696Y-95529322D01*
X164061711Y-95481711D01*
X164109322Y-95423696D01*
X164144701Y-95357508D01*
X164166487Y-95285689D01*
X164173843Y-95211000D01*
X164173843Y-93511000D01*
X164166487Y-93436311D01*
X164144701Y-93364492D01*
X164109322Y-93298304D01*
X164061711Y-93240289D01*
X164003696Y-93192678D01*
X163937508Y-93157299D01*
X163865689Y-93135513D01*
X163791000Y-93128157D01*
X162091000Y-93128157D01*
X162016311Y-93135513D01*
X161944492Y-93157299D01*
X161878304Y-93192678D01*
X161820289Y-93240289D01*
X161772678Y-93298304D01*
X161737299Y-93364492D01*
X161715513Y-93436311D01*
X161711210Y-93480000D01*
X159555269Y-93480000D01*
X159511999Y-93475738D01*
X159468729Y-93480000D01*
X159468727Y-93480000D01*
X159339294Y-93492748D01*
X159173225Y-93543125D01*
X159101981Y-93581206D01*
X159020174Y-93624932D01*
X158994721Y-93645821D01*
X158886025Y-93735025D01*
X158858439Y-93768639D01*
X157649644Y-94977434D01*
X157616025Y-95005025D01*
X157566078Y-95065887D01*
X157505932Y-95139175D01*
X157441275Y-95260141D01*
X157424125Y-95292226D01*
X157373748Y-95458295D01*
X157363394Y-95563425D01*
X157356738Y-95631000D01*
X155600000Y-95631000D01*
X155600000Y-77876000D01*
X201778000Y-77876000D01*
X201778001Y-118720000D01*
G37*
%TD.AperFunction*%
D21*
X172645102Y-111684903D02*
X172552307Y-111908931D01*
X172505000Y-112146757D01*
X172505000Y-112389243D01*
X172552307Y-112627069D01*
X172645102Y-112851097D01*
X172779820Y-113052717D01*
X172855000Y-113127897D01*
X172855001Y-114689000D01*
X159622922Y-114689000D01*
X159123000Y-114189079D01*
X159123000Y-113799816D01*
X161464802Y-113799816D01*
X161526046Y-113947691D01*
X161620959Y-114091980D01*
X161742198Y-114214980D01*
X161885103Y-114311964D01*
X162044183Y-114379205D01*
X162179000Y-114314556D01*
X162179000Y-113665000D01*
X161530581Y-113665000D01*
X161464802Y-113799816D01*
X159123000Y-113799816D01*
X159123000Y-113149000D01*
X161517477Y-113149000D01*
X161464802Y-113276184D01*
X161530581Y-113411000D01*
X162179000Y-113411000D01*
X162179000Y-113391000D01*
X162433000Y-113391000D01*
X162433000Y-113411000D01*
X162453000Y-113411000D01*
X162453000Y-113665000D01*
X162433000Y-113665000D01*
X162433000Y-114314556D01*
X162567817Y-114379205D01*
X162726897Y-114311964D01*
X162778961Y-114276630D01*
X162805289Y-114308711D01*
X162863304Y-114356322D01*
X162929492Y-114391701D01*
X163001311Y-114413487D01*
X163076000Y-114420843D01*
X164076000Y-114420843D01*
X164150689Y-114413487D01*
X164222508Y-114391701D01*
X164288696Y-114356322D01*
X164346711Y-114308711D01*
X164394322Y-114250696D01*
X164429701Y-114184508D01*
X164451487Y-114112689D01*
X164458252Y-114044000D01*
X168123154Y-114044000D01*
X168148000Y-114046447D01*
X168172846Y-114044000D01*
X168172854Y-114044000D01*
X168247193Y-114036678D01*
X168342575Y-114007745D01*
X168430479Y-113960759D01*
X168507527Y-113897527D01*
X168523376Y-113878215D01*
X170897592Y-111504000D01*
X172765977Y-111504000D01*
X172645102Y-111684903D01*
%TA.AperFunction,Conductor*%
D22*
G36*
X172645102Y-111684903D02*
G01*
X172552307Y-111908931D01*
X172505000Y-112146757D01*
X172505000Y-112389243D01*
X172552307Y-112627069D01*
X172645102Y-112851097D01*
X172779820Y-113052717D01*
X172855000Y-113127897D01*
X172855001Y-114689000D01*
X159622922Y-114689000D01*
X159123000Y-114189079D01*
X159123000Y-113799816D01*
X161464802Y-113799816D01*
X161526046Y-113947691D01*
X161620959Y-114091980D01*
X161742198Y-114214980D01*
X161885103Y-114311964D01*
X162044183Y-114379205D01*
X162179000Y-114314556D01*
X162179000Y-113665000D01*
X161530581Y-113665000D01*
X161464802Y-113799816D01*
X159123000Y-113799816D01*
X159123000Y-113149000D01*
X161517477Y-113149000D01*
X161464802Y-113276184D01*
X161530581Y-113411000D01*
X162179000Y-113411000D01*
X162179000Y-113391000D01*
X162433000Y-113391000D01*
X162433000Y-113411000D01*
X162453000Y-113411000D01*
X162453000Y-113665000D01*
X162433000Y-113665000D01*
X162433000Y-114314556D01*
X162567817Y-114379205D01*
X162726897Y-114311964D01*
X162778961Y-114276630D01*
X162805289Y-114308711D01*
X162863304Y-114356322D01*
X162929492Y-114391701D01*
X163001311Y-114413487D01*
X163076000Y-114420843D01*
X164076000Y-114420843D01*
X164150689Y-114413487D01*
X164222508Y-114391701D01*
X164288696Y-114356322D01*
X164346711Y-114308711D01*
X164394322Y-114250696D01*
X164429701Y-114184508D01*
X164451487Y-114112689D01*
X164458252Y-114044000D01*
X168123154Y-114044000D01*
X168148000Y-114046447D01*
X168172846Y-114044000D01*
X168172854Y-114044000D01*
X168247193Y-114036678D01*
X168342575Y-114007745D01*
X168430479Y-113960759D01*
X168507527Y-113897527D01*
X168523376Y-113878215D01*
X170897592Y-111504000D01*
X172765977Y-111504000D01*
X172645102Y-111684903D01*
G37*
%TD.AperFunction*%
D21*
X163070001Y-107467591D02*
X163070001Y-107736528D01*
X163014395Y-107773682D01*
X162937935Y-107850142D01*
X162869802Y-107781020D01*
X162726897Y-107684036D01*
X162567817Y-107616795D01*
X162433000Y-107681444D01*
X162433000Y-108331000D01*
X162453000Y-108331000D01*
X162453000Y-108585000D01*
X162433000Y-108585000D01*
X162433000Y-108605000D01*
X162179000Y-108605000D01*
X162179000Y-108585000D01*
X161530581Y-108585000D01*
X161464802Y-108719816D01*
X161526046Y-108867691D01*
X161620959Y-109011980D01*
X161697969Y-109090108D01*
X161621682Y-109166395D01*
X161525268Y-109310690D01*
X161458856Y-109471022D01*
X161425000Y-109641229D01*
X161425000Y-109814771D01*
X161458856Y-109984978D01*
X161525268Y-110145310D01*
X161621682Y-110289605D01*
X161695077Y-110363000D01*
X161621682Y-110436395D01*
X161584528Y-110492000D01*
X160991592Y-110492000D01*
X160526000Y-110026409D01*
X160526000Y-108196184D01*
X161464802Y-108196184D01*
X161530581Y-108331000D01*
X162179000Y-108331000D01*
X162179000Y-107681444D01*
X162044183Y-107616795D01*
X161885103Y-107684036D01*
X161742198Y-107781020D01*
X161620959Y-107904020D01*
X161526046Y-108048309D01*
X161464802Y-108196184D01*
X160526000Y-108196184D01*
X160526000Y-105373501D01*
X160626642Y-105272859D01*
X160712113Y-105144942D01*
X160722435Y-105120024D01*
X163070001Y-107467591D01*
%TA.AperFunction,Conductor*%
D22*
G36*
X163070001Y-107467591D02*
G01*
X163070001Y-107736528D01*
X163014395Y-107773682D01*
X162937935Y-107850142D01*
X162869802Y-107781020D01*
X162726897Y-107684036D01*
X162567817Y-107616795D01*
X162433000Y-107681444D01*
X162433000Y-108331000D01*
X162453000Y-108331000D01*
X162453000Y-108585000D01*
X162433000Y-108585000D01*
X162433000Y-108605000D01*
X162179000Y-108605000D01*
X162179000Y-108585000D01*
X161530581Y-108585000D01*
X161464802Y-108719816D01*
X161526046Y-108867691D01*
X161620959Y-109011980D01*
X161697969Y-109090108D01*
X161621682Y-109166395D01*
X161525268Y-109310690D01*
X161458856Y-109471022D01*
X161425000Y-109641229D01*
X161425000Y-109814771D01*
X161458856Y-109984978D01*
X161525268Y-110145310D01*
X161621682Y-110289605D01*
X161695077Y-110363000D01*
X161621682Y-110436395D01*
X161584528Y-110492000D01*
X160991592Y-110492000D01*
X160526000Y-110026409D01*
X160526000Y-108196184D01*
X161464802Y-108196184D01*
X161530581Y-108331000D01*
X162179000Y-108331000D01*
X162179000Y-107681444D01*
X162044183Y-107616795D01*
X161885103Y-107684036D01*
X161742198Y-107781020D01*
X161620959Y-107904020D01*
X161526046Y-108048309D01*
X161464802Y-108196184D01*
X160526000Y-108196184D01*
X160526000Y-105373501D01*
X160626642Y-105272859D01*
X160712113Y-105144942D01*
X160722435Y-105120024D01*
X163070001Y-107467591D01*
G37*
%TD.AperFunction*%
D21*
X191264000Y-89960408D02*
X190428167Y-90796242D01*
X190351069Y-90764307D01*
X190113243Y-90717000D01*
X189870757Y-90717000D01*
X189632931Y-90764307D01*
X189408903Y-90857102D01*
X189207283Y-90991820D01*
X189035820Y-91163283D01*
X188901102Y-91364903D01*
X188808307Y-91588931D01*
X188761000Y-91826757D01*
X188761000Y-92069243D01*
X188808307Y-92307069D01*
X188901102Y-92531097D01*
X189035820Y-92732717D01*
X189207283Y-92904180D01*
X189408903Y-93038898D01*
X189632931Y-93131693D01*
X189870757Y-93179000D01*
X190113243Y-93179000D01*
X190351069Y-93131693D01*
X190575097Y-93038898D01*
X190776717Y-92904180D01*
X190948180Y-92732717D01*
X191082898Y-92531097D01*
X191175693Y-92307069D01*
X191223000Y-92069243D01*
X191223000Y-91826757D01*
X191175693Y-91588931D01*
X191143758Y-91511833D01*
X192110220Y-90545372D01*
X192129527Y-90529527D01*
X192192759Y-90452479D01*
X192239745Y-90364575D01*
X192268678Y-90269193D01*
X192276000Y-90194854D01*
X192276000Y-90194853D01*
X192278448Y-90170000D01*
X192276000Y-90145146D01*
X192276000Y-82357500D01*
X197084909Y-82357500D01*
X197614001Y-82886593D01*
X197614001Y-83449748D01*
X197545311Y-83456513D01*
X197473492Y-83478299D01*
X197470000Y-83480166D01*
X197466508Y-83478299D01*
X197394689Y-83456513D01*
X197320000Y-83449157D01*
X196320000Y-83449157D01*
X196245311Y-83456513D01*
X196173492Y-83478299D01*
X196107304Y-83513678D01*
X196049289Y-83561289D01*
X196001678Y-83619304D01*
X195966299Y-83685492D01*
X195944513Y-83757311D01*
X195937157Y-83832000D01*
X195937157Y-85332000D01*
X195944513Y-85406689D01*
X195966299Y-85478508D01*
X196001678Y-85544696D01*
X196049289Y-85602711D01*
X196107304Y-85650322D01*
X196173492Y-85685701D01*
X196245311Y-85707487D01*
X196314000Y-85714252D01*
X196314000Y-86559154D01*
X196311553Y-86584000D01*
X196314000Y-86608846D01*
X196314000Y-86608853D01*
X196321322Y-86683192D01*
X196350255Y-86778574D01*
X196397241Y-86866479D01*
X196460473Y-86943527D01*
X196479785Y-86959376D01*
X198122001Y-88601593D01*
X198122000Y-93770408D01*
X197954549Y-93937860D01*
X197940898Y-93904903D01*
X197806180Y-93703283D01*
X197634717Y-93531820D01*
X197433097Y-93397102D01*
X197209069Y-93304307D01*
X196971243Y-93257000D01*
X196728757Y-93257000D01*
X196490931Y-93304307D01*
X196266903Y-93397102D01*
X196065283Y-93531820D01*
X195893820Y-93703283D01*
X195759102Y-93904903D01*
X195727168Y-93982000D01*
X195604845Y-93982000D01*
X195579999Y-93979553D01*
X195555153Y-93982000D01*
X195555146Y-93982000D01*
X195490694Y-93988348D01*
X195480806Y-93989322D01*
X195429603Y-94004854D01*
X195385425Y-94018255D01*
X195297521Y-94065241D01*
X195220473Y-94128473D01*
X195204630Y-94147778D01*
X193969785Y-95382624D01*
X193950473Y-95398473D01*
X193887241Y-95475521D01*
X193840255Y-95563426D01*
X193811322Y-95658808D01*
X193804000Y-95733147D01*
X193804000Y-95733154D01*
X193801553Y-95758000D01*
X193804000Y-95782846D01*
X193804001Y-103041407D01*
X191433409Y-105412000D01*
X190962023Y-105412000D01*
X191082898Y-105231097D01*
X191175693Y-105007069D01*
X191223000Y-104769243D01*
X191223000Y-104526757D01*
X191175693Y-104288931D01*
X191082898Y-104064903D01*
X190962023Y-103884000D01*
X192126154Y-103884000D01*
X192151000Y-103886447D01*
X192175846Y-103884000D01*
X192175854Y-103884000D01*
X192250193Y-103876678D01*
X192345575Y-103847745D01*
X192433479Y-103800759D01*
X192510527Y-103737527D01*
X192526376Y-103718215D01*
X193380220Y-102864372D01*
X193399527Y-102848527D01*
X193462759Y-102771479D01*
X193509745Y-102683575D01*
X193538678Y-102588193D01*
X193546000Y-102513854D01*
X193548448Y-102489000D01*
X193546000Y-102464146D01*
X193546000Y-94189591D01*
X195281592Y-92454000D01*
X195727168Y-92454000D01*
X195759102Y-92531097D01*
X195893820Y-92732717D01*
X196065283Y-92904180D01*
X196266903Y-93038898D01*
X196490931Y-93131693D01*
X196728757Y-93179000D01*
X196971243Y-93179000D01*
X197209069Y-93131693D01*
X197433097Y-93038898D01*
X197634717Y-92904180D01*
X197806180Y-92732717D01*
X197940898Y-92531097D01*
X198033693Y-92307069D01*
X198081000Y-92069243D01*
X198081000Y-91826757D01*
X198033693Y-91588931D01*
X197940898Y-91364903D01*
X197806180Y-91163283D01*
X197634717Y-90991820D01*
X197433097Y-90857102D01*
X197209069Y-90764307D01*
X196971243Y-90717000D01*
X196728757Y-90717000D01*
X196490931Y-90764307D01*
X196266903Y-90857102D01*
X196065283Y-90991820D01*
X195893820Y-91163283D01*
X195759102Y-91364903D01*
X195727168Y-91442000D01*
X195096846Y-91442000D01*
X195072000Y-91439553D01*
X195047154Y-91442000D01*
X195047146Y-91442000D01*
X194972807Y-91449322D01*
X194877425Y-91478255D01*
X194789521Y-91525241D01*
X194712473Y-91588473D01*
X194696629Y-91607779D01*
X192699785Y-93604624D01*
X192680473Y-93620473D01*
X192617241Y-93697521D01*
X192570255Y-93785426D01*
X192541322Y-93880808D01*
X192534000Y-93955147D01*
X192534000Y-93955154D01*
X192531553Y-93980000D01*
X192534000Y-94004846D01*
X192534001Y-102279407D01*
X191941409Y-102872000D01*
X190962023Y-102872000D01*
X191082898Y-102691097D01*
X191175693Y-102467069D01*
X191223000Y-102229243D01*
X191223000Y-101986757D01*
X191175693Y-101748931D01*
X191082898Y-101524903D01*
X190962023Y-101344000D01*
X191110154Y-101344000D01*
X191135000Y-101346447D01*
X191159846Y-101344000D01*
X191159854Y-101344000D01*
X191234193Y-101336678D01*
X191329575Y-101307745D01*
X191417479Y-101260759D01*
X191494527Y-101197527D01*
X191510376Y-101178215D01*
X192110220Y-100578372D01*
X192129527Y-100562527D01*
X192192759Y-100485479D01*
X192239745Y-100397575D01*
X192268678Y-100302193D01*
X192276000Y-100227854D01*
X192278448Y-100203000D01*
X192276000Y-100178146D01*
X192276000Y-92284591D01*
X194646592Y-89914000D01*
X195727168Y-89914000D01*
X195759102Y-89991097D01*
X195893820Y-90192717D01*
X196065283Y-90364180D01*
X196266903Y-90498898D01*
X196490931Y-90591693D01*
X196728757Y-90639000D01*
X196971243Y-90639000D01*
X197209069Y-90591693D01*
X197433097Y-90498898D01*
X197634717Y-90364180D01*
X197806180Y-90192717D01*
X197940898Y-89991097D01*
X198033693Y-89767069D01*
X198081000Y-89529243D01*
X198081000Y-89286757D01*
X198033693Y-89048931D01*
X197940898Y-88824903D01*
X197806180Y-88623283D01*
X197634717Y-88451820D01*
X197433097Y-88317102D01*
X197209069Y-88224307D01*
X196971243Y-88177000D01*
X196728757Y-88177000D01*
X196490931Y-88224307D01*
X196266903Y-88317102D01*
X196065283Y-88451820D01*
X195893820Y-88623283D01*
X195759102Y-88824903D01*
X195727168Y-88902000D01*
X194461854Y-88902000D01*
X194437000Y-88899552D01*
X194412146Y-88902000D01*
X194337807Y-88909322D01*
X194242425Y-88938255D01*
X194154521Y-88985241D01*
X194077473Y-89048473D01*
X194061630Y-89067778D01*
X191429785Y-91699624D01*
X191410473Y-91715473D01*
X191347241Y-91792521D01*
X191300255Y-91880426D01*
X191271322Y-91975808D01*
X191264000Y-92050147D01*
X191264000Y-92050154D01*
X191261553Y-92075000D01*
X191264000Y-92099846D01*
X191264001Y-99993407D01*
X191035751Y-100221658D01*
X191082898Y-100151097D01*
X191175693Y-99927069D01*
X191223000Y-99689243D01*
X191223000Y-99446757D01*
X191175693Y-99208931D01*
X191082898Y-98984903D01*
X190948180Y-98783283D01*
X190776717Y-98611820D01*
X190575097Y-98477102D01*
X190351069Y-98384307D01*
X190113243Y-98337000D01*
X189870757Y-98337000D01*
X189632931Y-98384307D01*
X189555833Y-98416242D01*
X189097376Y-97957785D01*
X189081527Y-97938473D01*
X189004479Y-97875241D01*
X188916575Y-97828255D01*
X188821193Y-97799322D01*
X188746854Y-97792000D01*
X188746846Y-97792000D01*
X188722000Y-97789553D01*
X188697154Y-97792000D01*
X188395608Y-97792000D01*
X188344102Y-97740494D01*
X188522078Y-97648477D01*
X188622566Y-97427793D01*
X188678069Y-97191745D01*
X188686456Y-96949404D01*
X188679497Y-96906757D01*
X188761000Y-96906757D01*
X188761000Y-97149243D01*
X188808307Y-97387069D01*
X188901102Y-97611097D01*
X189035820Y-97812717D01*
X189207283Y-97984180D01*
X189408903Y-98118898D01*
X189632931Y-98211693D01*
X189870757Y-98259000D01*
X190113243Y-98259000D01*
X190351069Y-98211693D01*
X190575097Y-98118898D01*
X190776717Y-97984180D01*
X190948180Y-97812717D01*
X191082898Y-97611097D01*
X191175693Y-97387069D01*
X191223000Y-97149243D01*
X191223000Y-96906757D01*
X191175693Y-96668931D01*
X191082898Y-96444903D01*
X190948180Y-96243283D01*
X190776717Y-96071820D01*
X190575097Y-95937102D01*
X190351069Y-95844307D01*
X190113243Y-95797000D01*
X189870757Y-95797000D01*
X189632931Y-95844307D01*
X189408903Y-95937102D01*
X189207283Y-96071820D01*
X189035820Y-96243283D01*
X188901102Y-96444903D01*
X188808307Y-96668931D01*
X188761000Y-96906757D01*
X188679497Y-96906757D01*
X188647402Y-96710083D01*
X188562411Y-96482980D01*
X188522078Y-96407523D01*
X188344100Y-96315505D01*
X187631605Y-97028000D01*
X187645748Y-97042143D01*
X187466143Y-97221748D01*
X187452000Y-97207605D01*
X187437858Y-97221748D01*
X187258253Y-97042143D01*
X187272395Y-97028000D01*
X186559900Y-96315505D01*
X186381922Y-96407523D01*
X186281434Y-96628207D01*
X186225931Y-96864255D01*
X186217544Y-97106596D01*
X186256598Y-97345917D01*
X186341589Y-97573020D01*
X186381922Y-97648477D01*
X186559898Y-97740494D01*
X186508392Y-97792000D01*
X182335501Y-97792000D01*
X182243000Y-97699499D01*
X182243000Y-89432845D01*
X182245447Y-89407999D01*
X182243000Y-89383153D01*
X182243000Y-89383146D01*
X182235678Y-89308807D01*
X182228990Y-89286757D01*
X182206745Y-89213425D01*
X182182909Y-89168832D01*
X182159759Y-89125521D01*
X182096527Y-89048473D01*
X182077220Y-89032628D01*
X180842376Y-87797785D01*
X180826527Y-87778473D01*
X180749479Y-87715241D01*
X180661575Y-87668255D01*
X180566193Y-87639322D01*
X180491854Y-87632000D01*
X180491846Y-87632000D01*
X180467000Y-87629553D01*
X180442154Y-87632000D01*
X177246023Y-87632000D01*
X177366898Y-87451097D01*
X177459693Y-87227069D01*
X177507000Y-86989243D01*
X177507000Y-86746757D01*
X177459693Y-86508931D01*
X177366898Y-86284903D01*
X177246023Y-86104000D01*
X179622409Y-86104000D01*
X182755000Y-89236592D01*
X182755001Y-93193136D01*
X182752552Y-93218000D01*
X182755001Y-93242864D01*
X182755000Y-95159499D01*
X182654358Y-95260141D01*
X182568887Y-95388058D01*
X182510013Y-95530191D01*
X182480000Y-95681078D01*
X182480000Y-95834922D01*
X182510013Y-95985809D01*
X182568887Y-96127942D01*
X182654358Y-96255859D01*
X182763141Y-96364642D01*
X182891058Y-96450113D01*
X183033191Y-96508987D01*
X183184078Y-96539000D01*
X183337922Y-96539000D01*
X183488809Y-96508987D01*
X183630942Y-96450113D01*
X183758859Y-96364642D01*
X183867642Y-96255859D01*
X183947795Y-96135900D01*
X186739505Y-96135900D01*
X187452000Y-96848395D01*
X188164495Y-96135900D01*
X188072477Y-95957922D01*
X187851793Y-95857434D01*
X187615745Y-95801931D01*
X187373404Y-95793544D01*
X187134083Y-95832598D01*
X186906980Y-95917589D01*
X186831523Y-95957922D01*
X186739505Y-96135900D01*
X183947795Y-96135900D01*
X183953113Y-96127942D01*
X184011987Y-95985809D01*
X184042000Y-95834922D01*
X184042000Y-95681078D01*
X184011987Y-95530191D01*
X183953113Y-95388058D01*
X183947796Y-95380100D01*
X186739505Y-95380100D01*
X186831523Y-95558078D01*
X187052207Y-95658566D01*
X187288255Y-95714069D01*
X187530596Y-95722456D01*
X187769917Y-95683402D01*
X187997020Y-95598411D01*
X188072477Y-95558078D01*
X188164495Y-95380100D01*
X187452000Y-94667605D01*
X186739505Y-95380100D01*
X183947796Y-95380100D01*
X183867642Y-95260141D01*
X183767000Y-95159499D01*
X183767000Y-93724000D01*
X186508392Y-93724000D01*
X186559898Y-93775506D01*
X186381922Y-93867523D01*
X186281434Y-94088207D01*
X186225931Y-94324255D01*
X186217544Y-94566596D01*
X186256598Y-94805917D01*
X186341589Y-95033020D01*
X186381922Y-95108477D01*
X186559900Y-95200495D01*
X187272395Y-94488000D01*
X187258253Y-94473858D01*
X187437858Y-94294253D01*
X187452000Y-94308395D01*
X187466143Y-94294253D01*
X187645748Y-94473858D01*
X187631605Y-94488000D01*
X188344100Y-95200495D01*
X188522078Y-95108477D01*
X188622566Y-94887793D01*
X188678069Y-94651745D01*
X188686456Y-94409404D01*
X188647402Y-94170083D01*
X188562411Y-93942980D01*
X188522078Y-93867523D01*
X188344102Y-93775506D01*
X188395608Y-93724000D01*
X188512409Y-93724000D01*
X188840242Y-94051833D01*
X188808307Y-94128931D01*
X188761000Y-94366757D01*
X188761000Y-94609243D01*
X188808307Y-94847069D01*
X188901102Y-95071097D01*
X189035820Y-95272717D01*
X189207283Y-95444180D01*
X189408903Y-95578898D01*
X189632931Y-95671693D01*
X189870757Y-95719000D01*
X190113243Y-95719000D01*
X190351069Y-95671693D01*
X190575097Y-95578898D01*
X190776717Y-95444180D01*
X190948180Y-95272717D01*
X191082898Y-95071097D01*
X191175693Y-94847069D01*
X191223000Y-94609243D01*
X191223000Y-94366757D01*
X191175693Y-94128931D01*
X191082898Y-93904903D01*
X190948180Y-93703283D01*
X190776717Y-93531820D01*
X190575097Y-93397102D01*
X190351069Y-93304307D01*
X190113243Y-93257000D01*
X189870757Y-93257000D01*
X189632931Y-93304307D01*
X189555833Y-93336242D01*
X189097376Y-92877785D01*
X189081527Y-92858473D01*
X189004479Y-92795241D01*
X188916575Y-92748255D01*
X188821193Y-92719322D01*
X188746854Y-92712000D01*
X188746846Y-92712000D01*
X188722000Y-92709553D01*
X188697154Y-92712000D01*
X188395608Y-92712000D01*
X188344102Y-92660494D01*
X188522078Y-92568477D01*
X188622566Y-92347793D01*
X188678069Y-92111745D01*
X188686456Y-91869404D01*
X188647402Y-91630083D01*
X188562411Y-91402980D01*
X188522078Y-91327523D01*
X188344100Y-91235505D01*
X187631605Y-91948000D01*
X187645748Y-91962143D01*
X187466143Y-92141748D01*
X187452000Y-92127605D01*
X187437858Y-92141748D01*
X187258253Y-91962143D01*
X187272395Y-91948000D01*
X186559900Y-91235505D01*
X186381922Y-91327523D01*
X186281434Y-91548207D01*
X186225931Y-91784255D01*
X186217544Y-92026596D01*
X186256598Y-92265917D01*
X186341589Y-92493020D01*
X186381922Y-92568477D01*
X186559898Y-92660494D01*
X186508392Y-92712000D01*
X183767000Y-92712000D01*
X183767000Y-91055900D01*
X186739505Y-91055900D01*
X187452000Y-91768395D01*
X188164495Y-91055900D01*
X188072477Y-90877922D01*
X187851793Y-90777434D01*
X187615745Y-90721931D01*
X187373404Y-90713544D01*
X187134083Y-90752598D01*
X186906980Y-90837589D01*
X186831523Y-90877922D01*
X186739505Y-91055900D01*
X183767000Y-91055900D01*
X183767000Y-90300100D01*
X186739505Y-90300100D01*
X186831523Y-90478078D01*
X187052207Y-90578566D01*
X187288255Y-90634069D01*
X187530596Y-90642456D01*
X187769917Y-90603402D01*
X187997020Y-90518411D01*
X188072477Y-90478078D01*
X188164495Y-90300100D01*
X187452000Y-89587605D01*
X186739505Y-90300100D01*
X183767000Y-90300100D01*
X183767000Y-89486596D01*
X186217544Y-89486596D01*
X186256598Y-89725917D01*
X186341589Y-89953020D01*
X186381922Y-90028477D01*
X186559900Y-90120495D01*
X187272395Y-89408000D01*
X187631605Y-89408000D01*
X188344100Y-90120495D01*
X188522078Y-90028477D01*
X188622566Y-89807793D01*
X188678069Y-89571745D01*
X188686456Y-89329404D01*
X188679497Y-89286757D01*
X188761000Y-89286757D01*
X188761000Y-89529243D01*
X188808307Y-89767069D01*
X188901102Y-89991097D01*
X189035820Y-90192717D01*
X189207283Y-90364180D01*
X189408903Y-90498898D01*
X189632931Y-90591693D01*
X189870757Y-90639000D01*
X190113243Y-90639000D01*
X190351069Y-90591693D01*
X190575097Y-90498898D01*
X190776717Y-90364180D01*
X190948180Y-90192717D01*
X191082898Y-89991097D01*
X191175693Y-89767069D01*
X191223000Y-89529243D01*
X191223000Y-89286757D01*
X191175693Y-89048931D01*
X191082898Y-88824903D01*
X190948180Y-88623283D01*
X190776717Y-88451820D01*
X190575097Y-88317102D01*
X190351069Y-88224307D01*
X190113243Y-88177000D01*
X189870757Y-88177000D01*
X189632931Y-88224307D01*
X189408903Y-88317102D01*
X189207283Y-88451820D01*
X189035820Y-88623283D01*
X188901102Y-88824903D01*
X188808307Y-89048931D01*
X188761000Y-89286757D01*
X188679497Y-89286757D01*
X188647402Y-89090083D01*
X188562411Y-88862980D01*
X188522078Y-88787523D01*
X188344100Y-88695505D01*
X187631605Y-89408000D01*
X187272395Y-89408000D01*
X186559900Y-88695505D01*
X186381922Y-88787523D01*
X186281434Y-89008207D01*
X186225931Y-89244255D01*
X186217544Y-89486596D01*
X183767000Y-89486596D01*
X183767000Y-89051845D01*
X183769447Y-89026999D01*
X183767000Y-89002153D01*
X183767000Y-89002146D01*
X183759678Y-88927807D01*
X183730745Y-88832425D01*
X183683759Y-88744521D01*
X183620527Y-88667473D01*
X183601220Y-88651628D01*
X183465492Y-88515900D01*
X186739505Y-88515900D01*
X187452000Y-89228395D01*
X188164495Y-88515900D01*
X188072477Y-88337922D01*
X187851793Y-88237434D01*
X187615745Y-88181931D01*
X187373404Y-88173544D01*
X187134083Y-88212598D01*
X186906980Y-88297589D01*
X186831523Y-88337922D01*
X186739505Y-88515900D01*
X183465492Y-88515900D01*
X182709692Y-87760100D01*
X186739505Y-87760100D01*
X186831523Y-87938078D01*
X187052207Y-88038566D01*
X187288255Y-88094069D01*
X187530596Y-88102456D01*
X187769917Y-88063402D01*
X187997020Y-87978411D01*
X188072477Y-87938078D01*
X188164495Y-87760100D01*
X187452000Y-87047605D01*
X186739505Y-87760100D01*
X182709692Y-87760100D01*
X181896188Y-86946596D01*
X186217544Y-86946596D01*
X186256598Y-87185917D01*
X186341589Y-87413020D01*
X186381922Y-87488477D01*
X186559900Y-87580495D01*
X187272395Y-86868000D01*
X187631605Y-86868000D01*
X188344100Y-87580495D01*
X188522078Y-87488477D01*
X188622566Y-87267793D01*
X188678069Y-87031745D01*
X188686456Y-86789404D01*
X188679497Y-86746757D01*
X188761000Y-86746757D01*
X188761000Y-86989243D01*
X188808307Y-87227069D01*
X188901102Y-87451097D01*
X189035820Y-87652717D01*
X189207283Y-87824180D01*
X189408903Y-87958898D01*
X189632931Y-88051693D01*
X189870757Y-88099000D01*
X190113243Y-88099000D01*
X190351069Y-88051693D01*
X190575097Y-87958898D01*
X190776717Y-87824180D01*
X190948180Y-87652717D01*
X191082898Y-87451097D01*
X191175693Y-87227069D01*
X191223000Y-86989243D01*
X191223000Y-86746757D01*
X191175693Y-86508931D01*
X191082898Y-86284903D01*
X190948180Y-86083283D01*
X190776717Y-85911820D01*
X190575097Y-85777102D01*
X190351069Y-85684307D01*
X190113243Y-85637000D01*
X189870757Y-85637000D01*
X189632931Y-85684307D01*
X189408903Y-85777102D01*
X189207283Y-85911820D01*
X189035820Y-86083283D01*
X188901102Y-86284903D01*
X188808307Y-86508931D01*
X188761000Y-86746757D01*
X188679497Y-86746757D01*
X188647402Y-86550083D01*
X188562411Y-86322980D01*
X188522078Y-86247523D01*
X188344100Y-86155505D01*
X187631605Y-86868000D01*
X187272395Y-86868000D01*
X186559900Y-86155505D01*
X186381922Y-86247523D01*
X186281434Y-86468207D01*
X186225931Y-86704255D01*
X186217544Y-86946596D01*
X181896188Y-86946596D01*
X180925492Y-85975900D01*
X186739505Y-85975900D01*
X187452000Y-86688395D01*
X188164495Y-85975900D01*
X188072477Y-85797922D01*
X187851793Y-85697434D01*
X187615745Y-85641931D01*
X187373404Y-85633544D01*
X187134083Y-85672598D01*
X186906980Y-85757589D01*
X186831523Y-85797922D01*
X186739505Y-85975900D01*
X180925492Y-85975900D01*
X180207376Y-85257785D01*
X180191527Y-85238473D01*
X180114479Y-85175241D01*
X180026575Y-85128255D01*
X179931193Y-85099322D01*
X179856854Y-85092000D01*
X179856846Y-85092000D01*
X179832000Y-85089553D01*
X179807154Y-85092000D01*
X177246023Y-85092000D01*
X177366898Y-84911097D01*
X177459693Y-84687069D01*
X177507000Y-84449243D01*
X177507000Y-84206757D01*
X177459693Y-83968931D01*
X177366898Y-83744903D01*
X177232180Y-83543283D01*
X177060717Y-83371820D01*
X176859097Y-83237102D01*
X176635069Y-83144307D01*
X176397243Y-83097000D01*
X176154757Y-83097000D01*
X175916931Y-83144307D01*
X175692903Y-83237102D01*
X175491283Y-83371820D01*
X175319820Y-83543283D01*
X175185102Y-83744903D01*
X175092307Y-83968931D01*
X175045000Y-84206757D01*
X175045000Y-84449243D01*
X175092307Y-84687069D01*
X175185102Y-84911097D01*
X175305977Y-85092000D01*
X174679608Y-85092000D01*
X174628102Y-85040494D01*
X174806078Y-84948477D01*
X174906566Y-84727793D01*
X174962069Y-84491745D01*
X174970456Y-84249404D01*
X174931402Y-84010083D01*
X174846411Y-83782980D01*
X174806078Y-83707523D01*
X174628100Y-83615505D01*
X173915605Y-84328000D01*
X173929748Y-84342143D01*
X173750143Y-84521748D01*
X173736000Y-84507605D01*
X173721858Y-84521748D01*
X173542253Y-84342143D01*
X173556395Y-84328000D01*
X172843900Y-83615505D01*
X172665922Y-83707523D01*
X172565434Y-83928207D01*
X172509931Y-84164255D01*
X172501544Y-84406596D01*
X172540598Y-84645917D01*
X172625589Y-84873020D01*
X172665922Y-84948477D01*
X172843898Y-85040494D01*
X172792392Y-85092000D01*
X169188845Y-85092000D01*
X169163999Y-85089553D01*
X169139153Y-85092000D01*
X169139146Y-85092000D01*
X169074694Y-85098348D01*
X169064806Y-85099322D01*
X169020648Y-85112717D01*
X168969425Y-85128255D01*
X168881521Y-85175241D01*
X168804473Y-85238473D01*
X168788628Y-85257780D01*
X167553780Y-86492629D01*
X167534474Y-86508473D01*
X167471242Y-86585521D01*
X167449734Y-86625759D01*
X167424255Y-86673426D01*
X167395322Y-86768808D01*
X167385553Y-86868000D01*
X167388001Y-86892856D01*
X167388000Y-88563408D01*
X166789899Y-89161510D01*
X166189081Y-89161510D01*
X166431592Y-88919000D01*
X166573922Y-88919000D01*
X166724809Y-88888987D01*
X166866942Y-88830113D01*
X166994859Y-88744642D01*
X167103642Y-88635859D01*
X167189113Y-88507942D01*
X167247987Y-88365809D01*
X167278000Y-88214922D01*
X167278000Y-88061078D01*
X167247987Y-87910191D01*
X167189113Y-87768058D01*
X167103642Y-87640141D01*
X166994859Y-87531358D01*
X166866942Y-87445887D01*
X166724809Y-87387013D01*
X166573922Y-87357000D01*
X166420078Y-87357000D01*
X166269191Y-87387013D01*
X166127058Y-87445887D01*
X165999141Y-87531358D01*
X165890358Y-87640141D01*
X165804887Y-87768058D01*
X165746013Y-87910191D01*
X165716000Y-88061078D01*
X165716000Y-88203408D01*
X165207909Y-88711500D01*
X164451604Y-88711500D01*
X164458843Y-88638000D01*
X164458843Y-87638000D01*
X164451487Y-87563311D01*
X164429701Y-87491492D01*
X164394322Y-87425304D01*
X164346711Y-87367289D01*
X164314438Y-87340804D01*
X164355954Y-87277691D01*
X164417198Y-87129816D01*
X164351419Y-86995000D01*
X163703000Y-86995000D01*
X163703000Y-87015000D01*
X163449000Y-87015000D01*
X163449000Y-86995000D01*
X163429000Y-86995000D01*
X163429000Y-86741000D01*
X163449000Y-86741000D01*
X163449000Y-85725000D01*
X163703000Y-85725000D01*
X163703000Y-86741000D01*
X164351419Y-86741000D01*
X164417198Y-86606184D01*
X164355954Y-86458309D01*
X164261041Y-86314020D01*
X164181181Y-86233000D01*
X164261041Y-86151980D01*
X164355954Y-86007691D01*
X164417198Y-85859816D01*
X164351419Y-85725000D01*
X163703000Y-85725000D01*
X163449000Y-85725000D01*
X163429000Y-85725000D01*
X163429000Y-85471000D01*
X163449000Y-85471000D01*
X163449000Y-85451000D01*
X163703000Y-85451000D01*
X163703000Y-85471000D01*
X164351419Y-85471000D01*
X164417198Y-85336184D01*
X164355954Y-85188309D01*
X164261041Y-85044020D01*
X164184031Y-84965892D01*
X164260318Y-84889605D01*
X164356732Y-84745310D01*
X164423144Y-84584978D01*
X164457000Y-84414771D01*
X164457000Y-84241229D01*
X164423144Y-84071022D01*
X164356732Y-83910690D01*
X164260318Y-83766395D01*
X164186923Y-83693000D01*
X164260318Y-83619605D01*
X164356732Y-83475310D01*
X164373056Y-83435900D01*
X173023505Y-83435900D01*
X173736000Y-84148395D01*
X174448495Y-83435900D01*
X174356477Y-83257922D01*
X174135793Y-83157434D01*
X173899745Y-83101931D01*
X173657404Y-83093544D01*
X173418083Y-83132598D01*
X173190980Y-83217589D01*
X173115523Y-83257922D01*
X173023505Y-83435900D01*
X164373056Y-83435900D01*
X164423144Y-83314978D01*
X164457000Y-83144771D01*
X164457000Y-82971229D01*
X164423144Y-82801022D01*
X164356732Y-82640690D01*
X164260318Y-82496395D01*
X164137605Y-82373682D01*
X164113387Y-82357500D01*
X191264001Y-82357500D01*
X191264000Y-89960408D01*
%TA.AperFunction,Conductor*%
D22*
G36*
X191264000Y-89960408D02*
G01*
X190428167Y-90796242D01*
X190351069Y-90764307D01*
X190113243Y-90717000D01*
X189870757Y-90717000D01*
X189632931Y-90764307D01*
X189408903Y-90857102D01*
X189207283Y-90991820D01*
X189035820Y-91163283D01*
X188901102Y-91364903D01*
X188808307Y-91588931D01*
X188761000Y-91826757D01*
X188761000Y-92069243D01*
X188808307Y-92307069D01*
X188901102Y-92531097D01*
X189035820Y-92732717D01*
X189207283Y-92904180D01*
X189408903Y-93038898D01*
X189632931Y-93131693D01*
X189870757Y-93179000D01*
X190113243Y-93179000D01*
X190351069Y-93131693D01*
X190575097Y-93038898D01*
X190776717Y-92904180D01*
X190948180Y-92732717D01*
X191082898Y-92531097D01*
X191175693Y-92307069D01*
X191223000Y-92069243D01*
X191223000Y-91826757D01*
X191175693Y-91588931D01*
X191143758Y-91511833D01*
X192110220Y-90545372D01*
X192129527Y-90529527D01*
X192192759Y-90452479D01*
X192239745Y-90364575D01*
X192268678Y-90269193D01*
X192276000Y-90194854D01*
X192276000Y-90194853D01*
X192278448Y-90170000D01*
X192276000Y-90145146D01*
X192276000Y-82357500D01*
X197084909Y-82357500D01*
X197614001Y-82886593D01*
X197614001Y-83449748D01*
X197545311Y-83456513D01*
X197473492Y-83478299D01*
X197470000Y-83480166D01*
X197466508Y-83478299D01*
X197394689Y-83456513D01*
X197320000Y-83449157D01*
X196320000Y-83449157D01*
X196245311Y-83456513D01*
X196173492Y-83478299D01*
X196107304Y-83513678D01*
X196049289Y-83561289D01*
X196001678Y-83619304D01*
X195966299Y-83685492D01*
X195944513Y-83757311D01*
X195937157Y-83832000D01*
X195937157Y-85332000D01*
X195944513Y-85406689D01*
X195966299Y-85478508D01*
X196001678Y-85544696D01*
X196049289Y-85602711D01*
X196107304Y-85650322D01*
X196173492Y-85685701D01*
X196245311Y-85707487D01*
X196314000Y-85714252D01*
X196314000Y-86559154D01*
X196311553Y-86584000D01*
X196314000Y-86608846D01*
X196314000Y-86608853D01*
X196321322Y-86683192D01*
X196350255Y-86778574D01*
X196397241Y-86866479D01*
X196460473Y-86943527D01*
X196479785Y-86959376D01*
X198122001Y-88601593D01*
X198122000Y-93770408D01*
X197954549Y-93937860D01*
X197940898Y-93904903D01*
X197806180Y-93703283D01*
X197634717Y-93531820D01*
X197433097Y-93397102D01*
X197209069Y-93304307D01*
X196971243Y-93257000D01*
X196728757Y-93257000D01*
X196490931Y-93304307D01*
X196266903Y-93397102D01*
X196065283Y-93531820D01*
X195893820Y-93703283D01*
X195759102Y-93904903D01*
X195727168Y-93982000D01*
X195604845Y-93982000D01*
X195579999Y-93979553D01*
X195555153Y-93982000D01*
X195555146Y-93982000D01*
X195490694Y-93988348D01*
X195480806Y-93989322D01*
X195429603Y-94004854D01*
X195385425Y-94018255D01*
X195297521Y-94065241D01*
X195220473Y-94128473D01*
X195204630Y-94147778D01*
X193969785Y-95382624D01*
X193950473Y-95398473D01*
X193887241Y-95475521D01*
X193840255Y-95563426D01*
X193811322Y-95658808D01*
X193804000Y-95733147D01*
X193804000Y-95733154D01*
X193801553Y-95758000D01*
X193804000Y-95782846D01*
X193804001Y-103041407D01*
X191433409Y-105412000D01*
X190962023Y-105412000D01*
X191082898Y-105231097D01*
X191175693Y-105007069D01*
X191223000Y-104769243D01*
X191223000Y-104526757D01*
X191175693Y-104288931D01*
X191082898Y-104064903D01*
X190962023Y-103884000D01*
X192126154Y-103884000D01*
X192151000Y-103886447D01*
X192175846Y-103884000D01*
X192175854Y-103884000D01*
X192250193Y-103876678D01*
X192345575Y-103847745D01*
X192433479Y-103800759D01*
X192510527Y-103737527D01*
X192526376Y-103718215D01*
X193380220Y-102864372D01*
X193399527Y-102848527D01*
X193462759Y-102771479D01*
X193509745Y-102683575D01*
X193538678Y-102588193D01*
X193546000Y-102513854D01*
X193548448Y-102489000D01*
X193546000Y-102464146D01*
X193546000Y-94189591D01*
X195281592Y-92454000D01*
X195727168Y-92454000D01*
X195759102Y-92531097D01*
X195893820Y-92732717D01*
X196065283Y-92904180D01*
X196266903Y-93038898D01*
X196490931Y-93131693D01*
X196728757Y-93179000D01*
X196971243Y-93179000D01*
X197209069Y-93131693D01*
X197433097Y-93038898D01*
X197634717Y-92904180D01*
X197806180Y-92732717D01*
X197940898Y-92531097D01*
X198033693Y-92307069D01*
X198081000Y-92069243D01*
X198081000Y-91826757D01*
X198033693Y-91588931D01*
X197940898Y-91364903D01*
X197806180Y-91163283D01*
X197634717Y-90991820D01*
X197433097Y-90857102D01*
X197209069Y-90764307D01*
X196971243Y-90717000D01*
X196728757Y-90717000D01*
X196490931Y-90764307D01*
X196266903Y-90857102D01*
X196065283Y-90991820D01*
X195893820Y-91163283D01*
X195759102Y-91364903D01*
X195727168Y-91442000D01*
X195096846Y-91442000D01*
X195072000Y-91439553D01*
X195047154Y-91442000D01*
X195047146Y-91442000D01*
X194972807Y-91449322D01*
X194877425Y-91478255D01*
X194789521Y-91525241D01*
X194712473Y-91588473D01*
X194696629Y-91607779D01*
X192699785Y-93604624D01*
X192680473Y-93620473D01*
X192617241Y-93697521D01*
X192570255Y-93785426D01*
X192541322Y-93880808D01*
X192534000Y-93955147D01*
X192534000Y-93955154D01*
X192531553Y-93980000D01*
X192534000Y-94004846D01*
X192534001Y-102279407D01*
X191941409Y-102872000D01*
X190962023Y-102872000D01*
X191082898Y-102691097D01*
X191175693Y-102467069D01*
X191223000Y-102229243D01*
X191223000Y-101986757D01*
X191175693Y-101748931D01*
X191082898Y-101524903D01*
X190962023Y-101344000D01*
X191110154Y-101344000D01*
X191135000Y-101346447D01*
X191159846Y-101344000D01*
X191159854Y-101344000D01*
X191234193Y-101336678D01*
X191329575Y-101307745D01*
X191417479Y-101260759D01*
X191494527Y-101197527D01*
X191510376Y-101178215D01*
X192110220Y-100578372D01*
X192129527Y-100562527D01*
X192192759Y-100485479D01*
X192239745Y-100397575D01*
X192268678Y-100302193D01*
X192276000Y-100227854D01*
X192278448Y-100203000D01*
X192276000Y-100178146D01*
X192276000Y-92284591D01*
X194646592Y-89914000D01*
X195727168Y-89914000D01*
X195759102Y-89991097D01*
X195893820Y-90192717D01*
X196065283Y-90364180D01*
X196266903Y-90498898D01*
X196490931Y-90591693D01*
X196728757Y-90639000D01*
X196971243Y-90639000D01*
X197209069Y-90591693D01*
X197433097Y-90498898D01*
X197634717Y-90364180D01*
X197806180Y-90192717D01*
X197940898Y-89991097D01*
X198033693Y-89767069D01*
X198081000Y-89529243D01*
X198081000Y-89286757D01*
X198033693Y-89048931D01*
X197940898Y-88824903D01*
X197806180Y-88623283D01*
X197634717Y-88451820D01*
X197433097Y-88317102D01*
X197209069Y-88224307D01*
X196971243Y-88177000D01*
X196728757Y-88177000D01*
X196490931Y-88224307D01*
X196266903Y-88317102D01*
X196065283Y-88451820D01*
X195893820Y-88623283D01*
X195759102Y-88824903D01*
X195727168Y-88902000D01*
X194461854Y-88902000D01*
X194437000Y-88899552D01*
X194412146Y-88902000D01*
X194337807Y-88909322D01*
X194242425Y-88938255D01*
X194154521Y-88985241D01*
X194077473Y-89048473D01*
X194061630Y-89067778D01*
X191429785Y-91699624D01*
X191410473Y-91715473D01*
X191347241Y-91792521D01*
X191300255Y-91880426D01*
X191271322Y-91975808D01*
X191264000Y-92050147D01*
X191264000Y-92050154D01*
X191261553Y-92075000D01*
X191264000Y-92099846D01*
X191264001Y-99993407D01*
X191035751Y-100221658D01*
X191082898Y-100151097D01*
X191175693Y-99927069D01*
X191223000Y-99689243D01*
X191223000Y-99446757D01*
X191175693Y-99208931D01*
X191082898Y-98984903D01*
X190948180Y-98783283D01*
X190776717Y-98611820D01*
X190575097Y-98477102D01*
X190351069Y-98384307D01*
X190113243Y-98337000D01*
X189870757Y-98337000D01*
X189632931Y-98384307D01*
X189555833Y-98416242D01*
X189097376Y-97957785D01*
X189081527Y-97938473D01*
X189004479Y-97875241D01*
X188916575Y-97828255D01*
X188821193Y-97799322D01*
X188746854Y-97792000D01*
X188746846Y-97792000D01*
X188722000Y-97789553D01*
X188697154Y-97792000D01*
X188395608Y-97792000D01*
X188344102Y-97740494D01*
X188522078Y-97648477D01*
X188622566Y-97427793D01*
X188678069Y-97191745D01*
X188686456Y-96949404D01*
X188679497Y-96906757D01*
X188761000Y-96906757D01*
X188761000Y-97149243D01*
X188808307Y-97387069D01*
X188901102Y-97611097D01*
X189035820Y-97812717D01*
X189207283Y-97984180D01*
X189408903Y-98118898D01*
X189632931Y-98211693D01*
X189870757Y-98259000D01*
X190113243Y-98259000D01*
X190351069Y-98211693D01*
X190575097Y-98118898D01*
X190776717Y-97984180D01*
X190948180Y-97812717D01*
X191082898Y-97611097D01*
X191175693Y-97387069D01*
X191223000Y-97149243D01*
X191223000Y-96906757D01*
X191175693Y-96668931D01*
X191082898Y-96444903D01*
X190948180Y-96243283D01*
X190776717Y-96071820D01*
X190575097Y-95937102D01*
X190351069Y-95844307D01*
X190113243Y-95797000D01*
X189870757Y-95797000D01*
X189632931Y-95844307D01*
X189408903Y-95937102D01*
X189207283Y-96071820D01*
X189035820Y-96243283D01*
X188901102Y-96444903D01*
X188808307Y-96668931D01*
X188761000Y-96906757D01*
X188679497Y-96906757D01*
X188647402Y-96710083D01*
X188562411Y-96482980D01*
X188522078Y-96407523D01*
X188344100Y-96315505D01*
X187631605Y-97028000D01*
X187645748Y-97042143D01*
X187466143Y-97221748D01*
X187452000Y-97207605D01*
X187437858Y-97221748D01*
X187258253Y-97042143D01*
X187272395Y-97028000D01*
X186559900Y-96315505D01*
X186381922Y-96407523D01*
X186281434Y-96628207D01*
X186225931Y-96864255D01*
X186217544Y-97106596D01*
X186256598Y-97345917D01*
X186341589Y-97573020D01*
X186381922Y-97648477D01*
X186559898Y-97740494D01*
X186508392Y-97792000D01*
X182335501Y-97792000D01*
X182243000Y-97699499D01*
X182243000Y-89432845D01*
X182245447Y-89407999D01*
X182243000Y-89383153D01*
X182243000Y-89383146D01*
X182235678Y-89308807D01*
X182228990Y-89286757D01*
X182206745Y-89213425D01*
X182182909Y-89168832D01*
X182159759Y-89125521D01*
X182096527Y-89048473D01*
X182077220Y-89032628D01*
X180842376Y-87797785D01*
X180826527Y-87778473D01*
X180749479Y-87715241D01*
X180661575Y-87668255D01*
X180566193Y-87639322D01*
X180491854Y-87632000D01*
X180491846Y-87632000D01*
X180467000Y-87629553D01*
X180442154Y-87632000D01*
X177246023Y-87632000D01*
X177366898Y-87451097D01*
X177459693Y-87227069D01*
X177507000Y-86989243D01*
X177507000Y-86746757D01*
X177459693Y-86508931D01*
X177366898Y-86284903D01*
X177246023Y-86104000D01*
X179622409Y-86104000D01*
X182755000Y-89236592D01*
X182755001Y-93193136D01*
X182752552Y-93218000D01*
X182755001Y-93242864D01*
X182755000Y-95159499D01*
X182654358Y-95260141D01*
X182568887Y-95388058D01*
X182510013Y-95530191D01*
X182480000Y-95681078D01*
X182480000Y-95834922D01*
X182510013Y-95985809D01*
X182568887Y-96127942D01*
X182654358Y-96255859D01*
X182763141Y-96364642D01*
X182891058Y-96450113D01*
X183033191Y-96508987D01*
X183184078Y-96539000D01*
X183337922Y-96539000D01*
X183488809Y-96508987D01*
X183630942Y-96450113D01*
X183758859Y-96364642D01*
X183867642Y-96255859D01*
X183947795Y-96135900D01*
X186739505Y-96135900D01*
X187452000Y-96848395D01*
X188164495Y-96135900D01*
X188072477Y-95957922D01*
X187851793Y-95857434D01*
X187615745Y-95801931D01*
X187373404Y-95793544D01*
X187134083Y-95832598D01*
X186906980Y-95917589D01*
X186831523Y-95957922D01*
X186739505Y-96135900D01*
X183947795Y-96135900D01*
X183953113Y-96127942D01*
X184011987Y-95985809D01*
X184042000Y-95834922D01*
X184042000Y-95681078D01*
X184011987Y-95530191D01*
X183953113Y-95388058D01*
X183947796Y-95380100D01*
X186739505Y-95380100D01*
X186831523Y-95558078D01*
X187052207Y-95658566D01*
X187288255Y-95714069D01*
X187530596Y-95722456D01*
X187769917Y-95683402D01*
X187997020Y-95598411D01*
X188072477Y-95558078D01*
X188164495Y-95380100D01*
X187452000Y-94667605D01*
X186739505Y-95380100D01*
X183947796Y-95380100D01*
X183867642Y-95260141D01*
X183767000Y-95159499D01*
X183767000Y-93724000D01*
X186508392Y-93724000D01*
X186559898Y-93775506D01*
X186381922Y-93867523D01*
X186281434Y-94088207D01*
X186225931Y-94324255D01*
X186217544Y-94566596D01*
X186256598Y-94805917D01*
X186341589Y-95033020D01*
X186381922Y-95108477D01*
X186559900Y-95200495D01*
X187272395Y-94488000D01*
X187258253Y-94473858D01*
X187437858Y-94294253D01*
X187452000Y-94308395D01*
X187466143Y-94294253D01*
X187645748Y-94473858D01*
X187631605Y-94488000D01*
X188344100Y-95200495D01*
X188522078Y-95108477D01*
X188622566Y-94887793D01*
X188678069Y-94651745D01*
X188686456Y-94409404D01*
X188647402Y-94170083D01*
X188562411Y-93942980D01*
X188522078Y-93867523D01*
X188344102Y-93775506D01*
X188395608Y-93724000D01*
X188512409Y-93724000D01*
X188840242Y-94051833D01*
X188808307Y-94128931D01*
X188761000Y-94366757D01*
X188761000Y-94609243D01*
X188808307Y-94847069D01*
X188901102Y-95071097D01*
X189035820Y-95272717D01*
X189207283Y-95444180D01*
X189408903Y-95578898D01*
X189632931Y-95671693D01*
X189870757Y-95719000D01*
X190113243Y-95719000D01*
X190351069Y-95671693D01*
X190575097Y-95578898D01*
X190776717Y-95444180D01*
X190948180Y-95272717D01*
X191082898Y-95071097D01*
X191175693Y-94847069D01*
X191223000Y-94609243D01*
X191223000Y-94366757D01*
X191175693Y-94128931D01*
X191082898Y-93904903D01*
X190948180Y-93703283D01*
X190776717Y-93531820D01*
X190575097Y-93397102D01*
X190351069Y-93304307D01*
X190113243Y-93257000D01*
X189870757Y-93257000D01*
X189632931Y-93304307D01*
X189555833Y-93336242D01*
X189097376Y-92877785D01*
X189081527Y-92858473D01*
X189004479Y-92795241D01*
X188916575Y-92748255D01*
X188821193Y-92719322D01*
X188746854Y-92712000D01*
X188746846Y-92712000D01*
X188722000Y-92709553D01*
X188697154Y-92712000D01*
X188395608Y-92712000D01*
X188344102Y-92660494D01*
X188522078Y-92568477D01*
X188622566Y-92347793D01*
X188678069Y-92111745D01*
X188686456Y-91869404D01*
X188647402Y-91630083D01*
X188562411Y-91402980D01*
X188522078Y-91327523D01*
X188344100Y-91235505D01*
X187631605Y-91948000D01*
X187645748Y-91962143D01*
X187466143Y-92141748D01*
X187452000Y-92127605D01*
X187437858Y-92141748D01*
X187258253Y-91962143D01*
X187272395Y-91948000D01*
X186559900Y-91235505D01*
X186381922Y-91327523D01*
X186281434Y-91548207D01*
X186225931Y-91784255D01*
X186217544Y-92026596D01*
X186256598Y-92265917D01*
X186341589Y-92493020D01*
X186381922Y-92568477D01*
X186559898Y-92660494D01*
X186508392Y-92712000D01*
X183767000Y-92712000D01*
X183767000Y-91055900D01*
X186739505Y-91055900D01*
X187452000Y-91768395D01*
X188164495Y-91055900D01*
X188072477Y-90877922D01*
X187851793Y-90777434D01*
X187615745Y-90721931D01*
X187373404Y-90713544D01*
X187134083Y-90752598D01*
X186906980Y-90837589D01*
X186831523Y-90877922D01*
X186739505Y-91055900D01*
X183767000Y-91055900D01*
X183767000Y-90300100D01*
X186739505Y-90300100D01*
X186831523Y-90478078D01*
X187052207Y-90578566D01*
X187288255Y-90634069D01*
X187530596Y-90642456D01*
X187769917Y-90603402D01*
X187997020Y-90518411D01*
X188072477Y-90478078D01*
X188164495Y-90300100D01*
X187452000Y-89587605D01*
X186739505Y-90300100D01*
X183767000Y-90300100D01*
X183767000Y-89486596D01*
X186217544Y-89486596D01*
X186256598Y-89725917D01*
X186341589Y-89953020D01*
X186381922Y-90028477D01*
X186559900Y-90120495D01*
X187272395Y-89408000D01*
X187631605Y-89408000D01*
X188344100Y-90120495D01*
X188522078Y-90028477D01*
X188622566Y-89807793D01*
X188678069Y-89571745D01*
X188686456Y-89329404D01*
X188679497Y-89286757D01*
X188761000Y-89286757D01*
X188761000Y-89529243D01*
X188808307Y-89767069D01*
X188901102Y-89991097D01*
X189035820Y-90192717D01*
X189207283Y-90364180D01*
X189408903Y-90498898D01*
X189632931Y-90591693D01*
X189870757Y-90639000D01*
X190113243Y-90639000D01*
X190351069Y-90591693D01*
X190575097Y-90498898D01*
X190776717Y-90364180D01*
X190948180Y-90192717D01*
X191082898Y-89991097D01*
X191175693Y-89767069D01*
X191223000Y-89529243D01*
X191223000Y-89286757D01*
X191175693Y-89048931D01*
X191082898Y-88824903D01*
X190948180Y-88623283D01*
X190776717Y-88451820D01*
X190575097Y-88317102D01*
X190351069Y-88224307D01*
X190113243Y-88177000D01*
X189870757Y-88177000D01*
X189632931Y-88224307D01*
X189408903Y-88317102D01*
X189207283Y-88451820D01*
X189035820Y-88623283D01*
X188901102Y-88824903D01*
X188808307Y-89048931D01*
X188761000Y-89286757D01*
X188679497Y-89286757D01*
X188647402Y-89090083D01*
X188562411Y-88862980D01*
X188522078Y-88787523D01*
X188344100Y-88695505D01*
X187631605Y-89408000D01*
X187272395Y-89408000D01*
X186559900Y-88695505D01*
X186381922Y-88787523D01*
X186281434Y-89008207D01*
X186225931Y-89244255D01*
X186217544Y-89486596D01*
X183767000Y-89486596D01*
X183767000Y-89051845D01*
X183769447Y-89026999D01*
X183767000Y-89002153D01*
X183767000Y-89002146D01*
X183759678Y-88927807D01*
X183730745Y-88832425D01*
X183683759Y-88744521D01*
X183620527Y-88667473D01*
X183601220Y-88651628D01*
X183465492Y-88515900D01*
X186739505Y-88515900D01*
X187452000Y-89228395D01*
X188164495Y-88515900D01*
X188072477Y-88337922D01*
X187851793Y-88237434D01*
X187615745Y-88181931D01*
X187373404Y-88173544D01*
X187134083Y-88212598D01*
X186906980Y-88297589D01*
X186831523Y-88337922D01*
X186739505Y-88515900D01*
X183465492Y-88515900D01*
X182709692Y-87760100D01*
X186739505Y-87760100D01*
X186831523Y-87938078D01*
X187052207Y-88038566D01*
X187288255Y-88094069D01*
X187530596Y-88102456D01*
X187769917Y-88063402D01*
X187997020Y-87978411D01*
X188072477Y-87938078D01*
X188164495Y-87760100D01*
X187452000Y-87047605D01*
X186739505Y-87760100D01*
X182709692Y-87760100D01*
X181896188Y-86946596D01*
X186217544Y-86946596D01*
X186256598Y-87185917D01*
X186341589Y-87413020D01*
X186381922Y-87488477D01*
X186559900Y-87580495D01*
X187272395Y-86868000D01*
X187631605Y-86868000D01*
X188344100Y-87580495D01*
X188522078Y-87488477D01*
X188622566Y-87267793D01*
X188678069Y-87031745D01*
X188686456Y-86789404D01*
X188679497Y-86746757D01*
X188761000Y-86746757D01*
X188761000Y-86989243D01*
X188808307Y-87227069D01*
X188901102Y-87451097D01*
X189035820Y-87652717D01*
X189207283Y-87824180D01*
X189408903Y-87958898D01*
X189632931Y-88051693D01*
X189870757Y-88099000D01*
X190113243Y-88099000D01*
X190351069Y-88051693D01*
X190575097Y-87958898D01*
X190776717Y-87824180D01*
X190948180Y-87652717D01*
X191082898Y-87451097D01*
X191175693Y-87227069D01*
X191223000Y-86989243D01*
X191223000Y-86746757D01*
X191175693Y-86508931D01*
X191082898Y-86284903D01*
X190948180Y-86083283D01*
X190776717Y-85911820D01*
X190575097Y-85777102D01*
X190351069Y-85684307D01*
X190113243Y-85637000D01*
X189870757Y-85637000D01*
X189632931Y-85684307D01*
X189408903Y-85777102D01*
X189207283Y-85911820D01*
X189035820Y-86083283D01*
X188901102Y-86284903D01*
X188808307Y-86508931D01*
X188761000Y-86746757D01*
X188679497Y-86746757D01*
X188647402Y-86550083D01*
X188562411Y-86322980D01*
X188522078Y-86247523D01*
X188344100Y-86155505D01*
X187631605Y-86868000D01*
X187272395Y-86868000D01*
X186559900Y-86155505D01*
X186381922Y-86247523D01*
X186281434Y-86468207D01*
X186225931Y-86704255D01*
X186217544Y-86946596D01*
X181896188Y-86946596D01*
X180925492Y-85975900D01*
X186739505Y-85975900D01*
X187452000Y-86688395D01*
X188164495Y-85975900D01*
X188072477Y-85797922D01*
X187851793Y-85697434D01*
X187615745Y-85641931D01*
X187373404Y-85633544D01*
X187134083Y-85672598D01*
X186906980Y-85757589D01*
X186831523Y-85797922D01*
X186739505Y-85975900D01*
X180925492Y-85975900D01*
X180207376Y-85257785D01*
X180191527Y-85238473D01*
X180114479Y-85175241D01*
X180026575Y-85128255D01*
X179931193Y-85099322D01*
X179856854Y-85092000D01*
X179856846Y-85092000D01*
X179832000Y-85089553D01*
X179807154Y-85092000D01*
X177246023Y-85092000D01*
X177366898Y-84911097D01*
X177459693Y-84687069D01*
X177507000Y-84449243D01*
X177507000Y-84206757D01*
X177459693Y-83968931D01*
X177366898Y-83744903D01*
X177232180Y-83543283D01*
X177060717Y-83371820D01*
X176859097Y-83237102D01*
X176635069Y-83144307D01*
X176397243Y-83097000D01*
X176154757Y-83097000D01*
X175916931Y-83144307D01*
X175692903Y-83237102D01*
X175491283Y-83371820D01*
X175319820Y-83543283D01*
X175185102Y-83744903D01*
X175092307Y-83968931D01*
X175045000Y-84206757D01*
X175045000Y-84449243D01*
X175092307Y-84687069D01*
X175185102Y-84911097D01*
X175305977Y-85092000D01*
X174679608Y-85092000D01*
X174628102Y-85040494D01*
X174806078Y-84948477D01*
X174906566Y-84727793D01*
X174962069Y-84491745D01*
X174970456Y-84249404D01*
X174931402Y-84010083D01*
X174846411Y-83782980D01*
X174806078Y-83707523D01*
X174628100Y-83615505D01*
X173915605Y-84328000D01*
X173929748Y-84342143D01*
X173750143Y-84521748D01*
X173736000Y-84507605D01*
X173721858Y-84521748D01*
X173542253Y-84342143D01*
X173556395Y-84328000D01*
X172843900Y-83615505D01*
X172665922Y-83707523D01*
X172565434Y-83928207D01*
X172509931Y-84164255D01*
X172501544Y-84406596D01*
X172540598Y-84645917D01*
X172625589Y-84873020D01*
X172665922Y-84948477D01*
X172843898Y-85040494D01*
X172792392Y-85092000D01*
X169188845Y-85092000D01*
X169163999Y-85089553D01*
X169139153Y-85092000D01*
X169139146Y-85092000D01*
X169074694Y-85098348D01*
X169064806Y-85099322D01*
X169020648Y-85112717D01*
X168969425Y-85128255D01*
X168881521Y-85175241D01*
X168804473Y-85238473D01*
X168788628Y-85257780D01*
X167553780Y-86492629D01*
X167534474Y-86508473D01*
X167471242Y-86585521D01*
X167449734Y-86625759D01*
X167424255Y-86673426D01*
X167395322Y-86768808D01*
X167385553Y-86868000D01*
X167388001Y-86892856D01*
X167388000Y-88563408D01*
X166789899Y-89161510D01*
X166189081Y-89161510D01*
X166431592Y-88919000D01*
X166573922Y-88919000D01*
X166724809Y-88888987D01*
X166866942Y-88830113D01*
X166994859Y-88744642D01*
X167103642Y-88635859D01*
X167189113Y-88507942D01*
X167247987Y-88365809D01*
X167278000Y-88214922D01*
X167278000Y-88061078D01*
X167247987Y-87910191D01*
X167189113Y-87768058D01*
X167103642Y-87640141D01*
X166994859Y-87531358D01*
X166866942Y-87445887D01*
X166724809Y-87387013D01*
X166573922Y-87357000D01*
X166420078Y-87357000D01*
X166269191Y-87387013D01*
X166127058Y-87445887D01*
X165999141Y-87531358D01*
X165890358Y-87640141D01*
X165804887Y-87768058D01*
X165746013Y-87910191D01*
X165716000Y-88061078D01*
X165716000Y-88203408D01*
X165207909Y-88711500D01*
X164451604Y-88711500D01*
X164458843Y-88638000D01*
X164458843Y-87638000D01*
X164451487Y-87563311D01*
X164429701Y-87491492D01*
X164394322Y-87425304D01*
X164346711Y-87367289D01*
X164314438Y-87340804D01*
X164355954Y-87277691D01*
X164417198Y-87129816D01*
X164351419Y-86995000D01*
X163703000Y-86995000D01*
X163703000Y-87015000D01*
X163449000Y-87015000D01*
X163449000Y-86995000D01*
X163429000Y-86995000D01*
X163429000Y-86741000D01*
X163449000Y-86741000D01*
X163449000Y-85725000D01*
X163703000Y-85725000D01*
X163703000Y-86741000D01*
X164351419Y-86741000D01*
X164417198Y-86606184D01*
X164355954Y-86458309D01*
X164261041Y-86314020D01*
X164181181Y-86233000D01*
X164261041Y-86151980D01*
X164355954Y-86007691D01*
X164417198Y-85859816D01*
X164351419Y-85725000D01*
X163703000Y-85725000D01*
X163449000Y-85725000D01*
X163429000Y-85725000D01*
X163429000Y-85471000D01*
X163449000Y-85471000D01*
X163449000Y-85451000D01*
X163703000Y-85451000D01*
X163703000Y-85471000D01*
X164351419Y-85471000D01*
X164417198Y-85336184D01*
X164355954Y-85188309D01*
X164261041Y-85044020D01*
X164184031Y-84965892D01*
X164260318Y-84889605D01*
X164356732Y-84745310D01*
X164423144Y-84584978D01*
X164457000Y-84414771D01*
X164457000Y-84241229D01*
X164423144Y-84071022D01*
X164356732Y-83910690D01*
X164260318Y-83766395D01*
X164186923Y-83693000D01*
X164260318Y-83619605D01*
X164356732Y-83475310D01*
X164373056Y-83435900D01*
X173023505Y-83435900D01*
X173736000Y-84148395D01*
X174448495Y-83435900D01*
X174356477Y-83257922D01*
X174135793Y-83157434D01*
X173899745Y-83101931D01*
X173657404Y-83093544D01*
X173418083Y-83132598D01*
X173190980Y-83217589D01*
X173115523Y-83257922D01*
X173023505Y-83435900D01*
X164373056Y-83435900D01*
X164423144Y-83314978D01*
X164457000Y-83144771D01*
X164457000Y-82971229D01*
X164423144Y-82801022D01*
X164356732Y-82640690D01*
X164260318Y-82496395D01*
X164137605Y-82373682D01*
X164113387Y-82357500D01*
X191264001Y-82357500D01*
X191264000Y-89960408D01*
G37*
%TD.AperFunction*%
D21*
X187645748Y-104633858D02*
X187631605Y-104648000D01*
X187645748Y-104662143D01*
X187466143Y-104841748D01*
X187452000Y-104827605D01*
X187437858Y-104841748D01*
X187258253Y-104662143D01*
X187272395Y-104648000D01*
X187258253Y-104633858D01*
X187437858Y-104454253D01*
X187452000Y-104468395D01*
X187466143Y-104454253D01*
X187645748Y-104633858D01*
%TA.AperFunction,Conductor*%
D22*
G36*
X187645748Y-104633858D02*
G01*
X187631605Y-104648000D01*
X187645748Y-104662143D01*
X187466143Y-104841748D01*
X187452000Y-104827605D01*
X187437858Y-104841748D01*
X187258253Y-104662143D01*
X187272395Y-104648000D01*
X187258253Y-104633858D01*
X187437858Y-104454253D01*
X187452000Y-104468395D01*
X187466143Y-104454253D01*
X187645748Y-104633858D01*
G37*
%TD.AperFunction*%
D21*
X178945001Y-94697593D02*
X178945000Y-99670154D01*
X178942553Y-99695000D01*
X178945000Y-99719846D01*
X178945000Y-99719853D01*
X178952322Y-99794192D01*
X178981255Y-99889574D01*
X179028241Y-99977479D01*
X179091473Y-100054527D01*
X179110785Y-100070376D01*
X180218628Y-101178220D01*
X180234473Y-101197527D01*
X180311521Y-101260759D01*
X180399425Y-101307745D01*
X180494806Y-101336678D01*
X180504694Y-101337652D01*
X180569146Y-101344000D01*
X180569153Y-101344000D01*
X180593999Y-101346447D01*
X180618845Y-101344000D01*
X186508392Y-101344000D01*
X186559898Y-101395506D01*
X186381922Y-101487523D01*
X186281434Y-101708207D01*
X186225931Y-101944255D01*
X186217544Y-102186596D01*
X186256598Y-102425917D01*
X186341589Y-102653020D01*
X186381922Y-102728477D01*
X186559898Y-102820494D01*
X186508392Y-102872000D01*
X178009592Y-102872000D01*
X176782000Y-101644409D01*
X176782000Y-95720843D01*
X176876000Y-95720843D01*
X176999462Y-95708683D01*
X177118179Y-95672671D01*
X177227589Y-95614190D01*
X177323488Y-95535488D01*
X177402190Y-95439589D01*
X177460671Y-95330179D01*
X177496683Y-95211462D01*
X177508843Y-95088000D01*
X177508843Y-93888000D01*
X177496683Y-93764538D01*
X177484386Y-93724000D01*
X177971409Y-93724000D01*
X178945001Y-94697593D01*
%TA.AperFunction,Conductor*%
D22*
G36*
X178945001Y-94697593D02*
G01*
X178945000Y-99670154D01*
X178942553Y-99695000D01*
X178945000Y-99719846D01*
X178945000Y-99719853D01*
X178952322Y-99794192D01*
X178981255Y-99889574D01*
X179028241Y-99977479D01*
X179091473Y-100054527D01*
X179110785Y-100070376D01*
X180218628Y-101178220D01*
X180234473Y-101197527D01*
X180311521Y-101260759D01*
X180399425Y-101307745D01*
X180494806Y-101336678D01*
X180504694Y-101337652D01*
X180569146Y-101344000D01*
X180569153Y-101344000D01*
X180593999Y-101346447D01*
X180618845Y-101344000D01*
X186508392Y-101344000D01*
X186559898Y-101395506D01*
X186381922Y-101487523D01*
X186281434Y-101708207D01*
X186225931Y-101944255D01*
X186217544Y-102186596D01*
X186256598Y-102425917D01*
X186341589Y-102653020D01*
X186381922Y-102728477D01*
X186559898Y-102820494D01*
X186508392Y-102872000D01*
X178009592Y-102872000D01*
X176782000Y-101644409D01*
X176782000Y-95720843D01*
X176876000Y-95720843D01*
X176999462Y-95708683D01*
X177118179Y-95672671D01*
X177227589Y-95614190D01*
X177323488Y-95535488D01*
X177402190Y-95439589D01*
X177460671Y-95330179D01*
X177496683Y-95211462D01*
X177508843Y-95088000D01*
X177508843Y-93888000D01*
X177496683Y-93764538D01*
X177484386Y-93724000D01*
X177971409Y-93724000D01*
X178945001Y-94697593D01*
G37*
%TD.AperFunction*%
D21*
X187645748Y-102093858D02*
X187631605Y-102108000D01*
X187645748Y-102122143D01*
X187466143Y-102301748D01*
X187452000Y-102287605D01*
X187437858Y-102301748D01*
X187258253Y-102122143D01*
X187272395Y-102108000D01*
X187258253Y-102093858D01*
X187437858Y-101914253D01*
X187452000Y-101928395D01*
X187466143Y-101914253D01*
X187645748Y-102093858D01*
%TA.AperFunction,Conductor*%
D22*
G36*
X187645748Y-102093858D02*
G01*
X187631605Y-102108000D01*
X187645748Y-102122143D01*
X187466143Y-102301748D01*
X187452000Y-102287605D01*
X187437858Y-102301748D01*
X187258253Y-102122143D01*
X187272395Y-102108000D01*
X187258253Y-102093858D01*
X187437858Y-101914253D01*
X187452000Y-101928395D01*
X187466143Y-101914253D01*
X187645748Y-102093858D01*
G37*
%TD.AperFunction*%
D21*
X187645748Y-99553858D02*
X187631605Y-99568000D01*
X187645748Y-99582143D01*
X187466143Y-99761748D01*
X187452000Y-99747605D01*
X187437858Y-99761748D01*
X187258253Y-99582143D01*
X187272395Y-99568000D01*
X187258253Y-99553858D01*
X187437858Y-99374253D01*
X187452000Y-99388395D01*
X187466143Y-99374253D01*
X187645748Y-99553858D01*
%TA.AperFunction,Conductor*%
D22*
G36*
X187645748Y-99553858D02*
G01*
X187631605Y-99568000D01*
X187645748Y-99582143D01*
X187466143Y-99761748D01*
X187452000Y-99747605D01*
X187437858Y-99761748D01*
X187258253Y-99582143D01*
X187272395Y-99568000D01*
X187258253Y-99553858D01*
X187437858Y-99374253D01*
X187452000Y-99388395D01*
X187466143Y-99374253D01*
X187645748Y-99553858D01*
G37*
%TD.AperFunction*%
D21*
X173929748Y-86853858D02*
X173915605Y-86868000D01*
X173929748Y-86882143D01*
X173750143Y-87061748D01*
X173736000Y-87047605D01*
X173721858Y-87061748D01*
X173542253Y-86882143D01*
X173556395Y-86868000D01*
X173542253Y-86853858D01*
X173721858Y-86674253D01*
X173736000Y-86688395D01*
X173750143Y-86674253D01*
X173929748Y-86853858D01*
%TA.AperFunction,Conductor*%
D22*
G36*
X173929748Y-86853858D02*
G01*
X173915605Y-86868000D01*
X173929748Y-86882143D01*
X173750143Y-87061748D01*
X173736000Y-87047605D01*
X173721858Y-87061748D01*
X173542253Y-86882143D01*
X173556395Y-86868000D01*
X173542253Y-86853858D01*
X173721858Y-86674253D01*
X173736000Y-86688395D01*
X173750143Y-86674253D01*
X173929748Y-86853858D01*
G37*
%TD.AperFunction*%
%TD*%
M02*
