%TF.GenerationSoftware,KiCad,Pcbnew,(5.1.7)-1*%
%TF.CreationDate,2020-11-29T11:25:41+01:00*%
%TF.ProjectId,PickitUp,5069636b-6974-4557-902e-6b696361645f,rev?*%
%TF.SameCoordinates,Original*%
%TF.FileFunction,Legend,Top*%
%TF.FilePolarity,Positive*%
%FSLAX46Y46*%
G04 Gerber Fmt 4.6, Leading zero omitted, Abs format (unit mm)*
G04 Created by KiCad (PCBNEW (5.1.7)-1) date 2020-11-29 11:25:41*
%MOMM*%
%LPD*%
G01*
G04 APERTURE LIST*
%ADD10C,0.100000*%
%ADD11C,0.300000*%
%ADD12C,0.150000*%
%ADD13C,0.120000*%
G04 APERTURE END LIST*
D10*
X195242666Y-83835952D02*
X195242666Y-84074047D01*
X195099809Y-83788333D02*
X195599809Y-83955000D01*
X195099809Y-84121666D01*
X195599809Y-84288333D02*
X195195047Y-84288333D01*
X195147428Y-84312142D01*
X195123619Y-84335952D01*
X195099809Y-84383571D01*
X195099809Y-84478809D01*
X195123619Y-84526428D01*
X195147428Y-84550238D01*
X195195047Y-84574047D01*
X195599809Y-84574047D01*
X195599809Y-84764523D02*
X195099809Y-85097857D01*
X195599809Y-85097857D02*
X195099809Y-84764523D01*
X200687809Y-83395476D02*
X201187809Y-83395476D01*
X200830666Y-83562142D01*
X201187809Y-83728809D01*
X200687809Y-83728809D01*
X200735428Y-84252619D02*
X200711619Y-84228809D01*
X200687809Y-84157380D01*
X200687809Y-84109761D01*
X200711619Y-84038333D01*
X200759238Y-83990714D01*
X200806857Y-83966904D01*
X200902095Y-83943095D01*
X200973523Y-83943095D01*
X201068761Y-83966904D01*
X201116380Y-83990714D01*
X201164000Y-84038333D01*
X201187809Y-84109761D01*
X201187809Y-84157380D01*
X201164000Y-84228809D01*
X201140190Y-84252619D01*
X201187809Y-84395476D02*
X201187809Y-84681190D01*
X200687809Y-84538333D02*
X201187809Y-84538333D01*
X200687809Y-85133571D02*
X200925904Y-84966904D01*
X200687809Y-84847857D02*
X201187809Y-84847857D01*
X201187809Y-85038333D01*
X201164000Y-85085952D01*
X201140190Y-85109761D01*
X201092571Y-85133571D01*
X201021142Y-85133571D01*
X200973523Y-85109761D01*
X200949714Y-85085952D01*
X200925904Y-85038333D01*
X200925904Y-84847857D01*
X200687809Y-85585952D02*
X200687809Y-85347857D01*
X201187809Y-85347857D01*
X196036666Y-81573333D02*
X196274761Y-81573333D01*
X195989047Y-81716190D02*
X196155714Y-81216190D01*
X196322380Y-81716190D01*
X196774761Y-81716190D02*
X196608095Y-81478095D01*
X196489047Y-81716190D02*
X196489047Y-81216190D01*
X196679523Y-81216190D01*
X196727142Y-81240000D01*
X196750952Y-81263809D01*
X196774761Y-81311428D01*
X196774761Y-81382857D01*
X196750952Y-81430476D01*
X196727142Y-81454285D01*
X196679523Y-81478095D01*
X196489047Y-81478095D01*
X196989047Y-81716190D02*
X196989047Y-81216190D01*
X197155714Y-81573333D01*
X197322380Y-81216190D01*
X197322380Y-81716190D01*
X198346190Y-81716190D02*
X198322380Y-81716190D01*
X198274761Y-81692380D01*
X198203333Y-81620952D01*
X198084285Y-81478095D01*
X198036666Y-81406666D01*
X198012857Y-81335238D01*
X198012857Y-81287619D01*
X198036666Y-81240000D01*
X198084285Y-81216190D01*
X198108095Y-81216190D01*
X198155714Y-81240000D01*
X198179523Y-81287619D01*
X198179523Y-81311428D01*
X198155714Y-81359047D01*
X198131904Y-81382857D01*
X197989047Y-81478095D01*
X197965238Y-81501904D01*
X197941428Y-81549523D01*
X197941428Y-81620952D01*
X197965238Y-81668571D01*
X197989047Y-81692380D01*
X198036666Y-81716190D01*
X198108095Y-81716190D01*
X198155714Y-81692380D01*
X198179523Y-81668571D01*
X198250952Y-81573333D01*
X198274761Y-81501904D01*
X198274761Y-81454285D01*
X198917619Y-81692380D02*
X198989047Y-81716190D01*
X199108095Y-81716190D01*
X199155714Y-81692380D01*
X199179523Y-81668571D01*
X199203333Y-81620952D01*
X199203333Y-81573333D01*
X199179523Y-81525714D01*
X199155714Y-81501904D01*
X199108095Y-81478095D01*
X199012857Y-81454285D01*
X198965238Y-81430476D01*
X198941428Y-81406666D01*
X198917619Y-81359047D01*
X198917619Y-81311428D01*
X198941428Y-81263809D01*
X198965238Y-81240000D01*
X199012857Y-81216190D01*
X199131904Y-81216190D01*
X199203333Y-81240000D01*
X199393809Y-81573333D02*
X199631904Y-81573333D01*
X199346190Y-81716190D02*
X199512857Y-81216190D01*
X199679523Y-81716190D01*
X199846190Y-81716190D02*
X199846190Y-81216190D01*
X200012857Y-81573333D01*
X200179523Y-81216190D01*
X200179523Y-81716190D01*
X195929523Y-82566190D02*
X195762857Y-82328095D01*
X195643809Y-82566190D02*
X195643809Y-82066190D01*
X195834285Y-82066190D01*
X195881904Y-82090000D01*
X195905714Y-82113809D01*
X195929523Y-82161428D01*
X195929523Y-82232857D01*
X195905714Y-82280476D01*
X195881904Y-82304285D01*
X195834285Y-82328095D01*
X195643809Y-82328095D01*
X196143809Y-82304285D02*
X196310476Y-82304285D01*
X196381904Y-82566190D02*
X196143809Y-82566190D01*
X196143809Y-82066190D01*
X196381904Y-82066190D01*
X196572380Y-82542380D02*
X196643809Y-82566190D01*
X196762857Y-82566190D01*
X196810476Y-82542380D01*
X196834285Y-82518571D01*
X196858095Y-82470952D01*
X196858095Y-82423333D01*
X196834285Y-82375714D01*
X196810476Y-82351904D01*
X196762857Y-82328095D01*
X196667619Y-82304285D01*
X196620000Y-82280476D01*
X196596190Y-82256666D01*
X196572380Y-82209047D01*
X196572380Y-82161428D01*
X196596190Y-82113809D01*
X196620000Y-82090000D01*
X196667619Y-82066190D01*
X196786666Y-82066190D01*
X196858095Y-82090000D01*
X197072380Y-82304285D02*
X197239047Y-82304285D01*
X197310476Y-82566190D02*
X197072380Y-82566190D01*
X197072380Y-82066190D01*
X197310476Y-82066190D01*
X197453333Y-82066190D02*
X197739047Y-82066190D01*
X197596190Y-82566190D02*
X197596190Y-82066190D01*
X198262857Y-82542380D02*
X198334285Y-82566190D01*
X198453333Y-82566190D01*
X198500952Y-82542380D01*
X198524761Y-82518571D01*
X198548571Y-82470952D01*
X198548571Y-82423333D01*
X198524761Y-82375714D01*
X198500952Y-82351904D01*
X198453333Y-82328095D01*
X198358095Y-82304285D01*
X198310476Y-82280476D01*
X198286666Y-82256666D01*
X198262857Y-82209047D01*
X198262857Y-82161428D01*
X198286666Y-82113809D01*
X198310476Y-82090000D01*
X198358095Y-82066190D01*
X198477142Y-82066190D01*
X198548571Y-82090000D01*
X198834285Y-82566190D02*
X198786666Y-82542380D01*
X198762857Y-82518571D01*
X198739047Y-82470952D01*
X198739047Y-82328095D01*
X198762857Y-82280476D01*
X198786666Y-82256666D01*
X198834285Y-82232857D01*
X198905714Y-82232857D01*
X198953333Y-82256666D01*
X198977142Y-82280476D01*
X199000952Y-82328095D01*
X199000952Y-82470952D01*
X198977142Y-82518571D01*
X198953333Y-82542380D01*
X198905714Y-82566190D01*
X198834285Y-82566190D01*
X199429523Y-82232857D02*
X199429523Y-82566190D01*
X199215238Y-82232857D02*
X199215238Y-82494761D01*
X199239047Y-82542380D01*
X199286666Y-82566190D01*
X199358095Y-82566190D01*
X199405714Y-82542380D01*
X199429523Y-82518571D01*
X199667619Y-82566190D02*
X199667619Y-82232857D01*
X199667619Y-82328095D02*
X199691428Y-82280476D01*
X199715238Y-82256666D01*
X199762857Y-82232857D01*
X199810476Y-82232857D01*
X200191428Y-82542380D02*
X200143809Y-82566190D01*
X200048571Y-82566190D01*
X200000952Y-82542380D01*
X199977142Y-82518571D01*
X199953333Y-82470952D01*
X199953333Y-82328095D01*
X199977142Y-82280476D01*
X200000952Y-82256666D01*
X200048571Y-82232857D01*
X200143809Y-82232857D01*
X200191428Y-82256666D01*
X200596190Y-82542380D02*
X200548571Y-82566190D01*
X200453333Y-82566190D01*
X200405714Y-82542380D01*
X200381904Y-82494761D01*
X200381904Y-82304285D01*
X200405714Y-82256666D01*
X200453333Y-82232857D01*
X200548571Y-82232857D01*
X200596190Y-82256666D01*
X200620000Y-82304285D01*
X200620000Y-82351904D01*
X200381904Y-82399523D01*
D11*
X159083238Y-94980523D02*
X157464190Y-94980523D01*
X157273714Y-95075761D01*
X157178476Y-95171000D01*
X157083238Y-95361476D01*
X157083238Y-95742428D01*
X157178476Y-95932904D01*
X157273714Y-96028142D01*
X157464190Y-96123380D01*
X159083238Y-96123380D01*
X157654666Y-96980523D02*
X157654666Y-97932904D01*
X157083238Y-96790047D02*
X159083238Y-97456714D01*
X157083238Y-98123380D01*
X157083238Y-99932904D02*
X158035619Y-99266238D01*
X157083238Y-98790047D02*
X159083238Y-98790047D01*
X159083238Y-99551952D01*
X158988000Y-99742428D01*
X158892761Y-99837666D01*
X158702285Y-99932904D01*
X158416571Y-99932904D01*
X158226095Y-99837666D01*
X158130857Y-99742428D01*
X158035619Y-99551952D01*
X158035619Y-98790047D01*
X159083238Y-100504333D02*
X159083238Y-101647190D01*
X157083238Y-101075761D02*
X159083238Y-101075761D01*
X168322666Y-107394666D02*
X168322666Y-108347047D01*
X167751238Y-107204190D02*
X169751238Y-107870857D01*
X167751238Y-108537523D01*
X169751238Y-108918476D02*
X167751238Y-109585142D01*
X169751238Y-110251809D01*
X167751238Y-112061333D02*
X168703619Y-111394666D01*
X167751238Y-110918476D02*
X169751238Y-110918476D01*
X169751238Y-111680380D01*
X169656000Y-111870857D01*
X169560761Y-111966095D01*
X169370285Y-112061333D01*
X169084571Y-112061333D01*
X168894095Y-111966095D01*
X168798857Y-111870857D01*
X168703619Y-111680380D01*
X168703619Y-110918476D01*
X168322666Y-87074666D02*
X168322666Y-88027047D01*
X167751238Y-86884190D02*
X169751238Y-87550857D01*
X167751238Y-88217523D01*
X169751238Y-88598476D02*
X167751238Y-89265142D01*
X169751238Y-89931809D01*
X167751238Y-91741333D02*
X168703619Y-91074666D01*
X167751238Y-90598476D02*
X169751238Y-90598476D01*
X169751238Y-91360380D01*
X169656000Y-91550857D01*
X169560761Y-91646095D01*
X169370285Y-91741333D01*
X169084571Y-91741333D01*
X168894095Y-91646095D01*
X168798857Y-91550857D01*
X168703619Y-91360380D01*
X168703619Y-90598476D01*
X181916666Y-95880952D02*
X181916666Y-96833333D01*
X181345238Y-95690476D02*
X183345238Y-96357142D01*
X181345238Y-97023809D01*
X181345238Y-98833333D02*
X182297619Y-98166666D01*
X181345238Y-97690476D02*
X183345238Y-97690476D01*
X183345238Y-98452380D01*
X183250000Y-98642857D01*
X183154761Y-98738095D01*
X182964285Y-98833333D01*
X182678571Y-98833333D01*
X182488095Y-98738095D01*
X182392857Y-98642857D01*
X182297619Y-98452380D01*
X182297619Y-97690476D01*
X181345238Y-99690476D02*
X183345238Y-99690476D01*
X181916666Y-100357142D01*
X183345238Y-101023809D01*
X181345238Y-101023809D01*
D12*
X164980095Y-101814380D02*
X165551523Y-101814380D01*
X165265809Y-102814380D02*
X165265809Y-101814380D01*
X165789619Y-101814380D02*
X166456285Y-102814380D01*
X166456285Y-101814380D02*
X165789619Y-102814380D01*
X165575333Y-100274380D02*
X165242000Y-99798190D01*
X165003904Y-100274380D02*
X165003904Y-99274380D01*
X165384857Y-99274380D01*
X165480095Y-99322000D01*
X165527714Y-99369619D01*
X165575333Y-99464857D01*
X165575333Y-99607714D01*
X165527714Y-99702952D01*
X165480095Y-99750571D01*
X165384857Y-99798190D01*
X165003904Y-99798190D01*
X165908666Y-99274380D02*
X166575333Y-100274380D01*
X166575333Y-99274380D02*
X165908666Y-100274380D01*
X165230095Y-96782000D02*
X165134857Y-96734380D01*
X164992000Y-96734380D01*
X164849142Y-96782000D01*
X164753904Y-96877238D01*
X164706285Y-96972476D01*
X164658666Y-97162952D01*
X164658666Y-97305809D01*
X164706285Y-97496285D01*
X164753904Y-97591523D01*
X164849142Y-97686761D01*
X164992000Y-97734380D01*
X165087238Y-97734380D01*
X165230095Y-97686761D01*
X165277714Y-97639142D01*
X165277714Y-97305809D01*
X165087238Y-97305809D01*
X165706285Y-97734380D02*
X165706285Y-96734380D01*
X166277714Y-97734380D01*
X166277714Y-96734380D01*
X166753904Y-97734380D02*
X166753904Y-96734380D01*
X166992000Y-96734380D01*
X167134857Y-96782000D01*
X167230095Y-96877238D01*
X167277714Y-96972476D01*
X167325333Y-97162952D01*
X167325333Y-97305809D01*
X167277714Y-97496285D01*
X167230095Y-97591523D01*
X167134857Y-97686761D01*
X166992000Y-97734380D01*
X166753904Y-97734380D01*
X164658666Y-94194380D02*
X164992000Y-95194380D01*
X165325333Y-94194380D01*
X165658666Y-95194380D02*
X165658666Y-94194380D01*
X165896761Y-94194380D01*
X166039619Y-94242000D01*
X166134857Y-94337238D01*
X166182476Y-94432476D01*
X166230095Y-94622952D01*
X166230095Y-94765809D01*
X166182476Y-94956285D01*
X166134857Y-95051523D01*
X166039619Y-95146761D01*
X165896761Y-95194380D01*
X165658666Y-95194380D01*
X166658666Y-95194380D02*
X166658666Y-94194380D01*
X166896761Y-94194380D01*
X167039619Y-94242000D01*
X167134857Y-94337238D01*
X167182476Y-94432476D01*
X167230095Y-94622952D01*
X167230095Y-94765809D01*
X167182476Y-94956285D01*
X167134857Y-95051523D01*
X167039619Y-95146761D01*
X166896761Y-95194380D01*
X166658666Y-95194380D01*
D11*
X157654666Y-108664666D02*
X157654666Y-109617047D01*
X157083238Y-108474190D02*
X159083238Y-109140857D01*
X157083238Y-109807523D01*
X159083238Y-110188476D02*
X157083238Y-110855142D01*
X159083238Y-111521809D01*
X157083238Y-113331333D02*
X158035619Y-112664666D01*
X157083238Y-112188476D02*
X159083238Y-112188476D01*
X159083238Y-112950380D01*
X158988000Y-113140857D01*
X158892761Y-113236095D01*
X158702285Y-113331333D01*
X158416571Y-113331333D01*
X158226095Y-113236095D01*
X158130857Y-113140857D01*
X158035619Y-112950380D01*
X158035619Y-112188476D01*
X157178476Y-83678571D02*
X157083238Y-83964285D01*
X157083238Y-84440476D01*
X157178476Y-84630952D01*
X157273714Y-84726190D01*
X157464190Y-84821428D01*
X157654666Y-84821428D01*
X157845142Y-84726190D01*
X157940380Y-84630952D01*
X158035619Y-84440476D01*
X158130857Y-84059523D01*
X158226095Y-83869047D01*
X158321333Y-83773809D01*
X158511809Y-83678571D01*
X158702285Y-83678571D01*
X158892761Y-83773809D01*
X158988000Y-83869047D01*
X159083238Y-84059523D01*
X159083238Y-84535714D01*
X158988000Y-84821428D01*
X157654666Y-85583333D02*
X157654666Y-86535714D01*
X157083238Y-85392857D02*
X159083238Y-86059523D01*
X157083238Y-86726190D01*
X157083238Y-87392857D02*
X159083238Y-87392857D01*
X157654666Y-88059523D01*
X159083238Y-88726190D01*
X157083238Y-88726190D01*
D13*
%TO.C,R1*%
X196247936Y-112797000D02*
X197452064Y-112797000D01*
X196247936Y-110977000D02*
X197452064Y-110977000D01*
%TO.C,D1*%
X199310000Y-113546000D02*
X195250000Y-113546000D01*
X199310000Y-115816000D02*
X199310000Y-113546000D01*
X195250000Y-115816000D02*
X199310000Y-115816000D01*
%TO.C,J3*%
X194672000Y-109228000D02*
X193672000Y-109728000D01*
X194672000Y-110228000D02*
X194672000Y-109228000D01*
X193672000Y-109728000D02*
X194672000Y-110228000D01*
X191972000Y-96248000D02*
X193282000Y-96248000D01*
X191972000Y-96248000D02*
X191972000Y-96248000D01*
X191972000Y-82958000D02*
X191972000Y-96248000D01*
X185472000Y-82958000D02*
X191972000Y-82958000D01*
X185472000Y-113638000D02*
X185472000Y-82958000D01*
X191972000Y-113638000D02*
X185472000Y-113638000D01*
X191972000Y-100348000D02*
X191972000Y-113638000D01*
X193282000Y-100348000D02*
X191972000Y-100348000D01*
X193282000Y-81658000D02*
X193282000Y-114938000D01*
X184162000Y-81658000D02*
X193282000Y-81658000D01*
X184162000Y-114938000D02*
X184162000Y-81658000D01*
X193282000Y-114938000D02*
X184162000Y-114938000D01*
%TO.C,JP1*%
X200170000Y-85582000D02*
X196070000Y-85582000D01*
X196070000Y-85582000D02*
X196070000Y-83582000D01*
X196070000Y-83582000D02*
X200170000Y-83582000D01*
X200170000Y-83582000D02*
X200170000Y-85582000D01*
X199420000Y-83382000D02*
X199720000Y-83082000D01*
X199720000Y-83082000D02*
X199120000Y-83082000D01*
X199420000Y-83382000D02*
X199120000Y-83082000D01*
%TO.C,J1*%
X196850000Y-108458000D02*
X195580000Y-108458000D01*
X195580000Y-108458000D02*
X195580000Y-107188000D01*
X200950000Y-89028000D02*
X206950000Y-89028000D01*
X206950000Y-89028000D02*
X206950000Y-89788000D01*
X206950000Y-89788000D02*
X200950000Y-89788000D01*
X200950000Y-107108000D02*
X206950000Y-107108000D01*
X200950000Y-106808000D02*
X206950000Y-106808000D01*
X200950000Y-107348000D02*
X206950000Y-107348000D01*
X206950000Y-107568000D02*
X200950000Y-107568000D01*
X200950000Y-106988000D02*
X206950000Y-106988000D01*
X200950000Y-107468000D02*
X206950000Y-107468000D01*
X200950000Y-106868000D02*
X206950000Y-106868000D01*
X200950000Y-107228000D02*
X206950000Y-107228000D01*
X198290000Y-88078000D02*
X198290000Y-108518000D01*
X198290000Y-108518000D02*
X200950000Y-108518000D01*
X200950000Y-108518000D02*
X200950000Y-88078000D01*
X200950000Y-88078000D02*
X198290000Y-88078000D01*
X197960000Y-89028000D02*
X198290000Y-89028000D01*
X197960000Y-89788000D02*
X198290000Y-89788000D01*
X198290000Y-90678000D02*
X200950000Y-90678000D01*
X200950000Y-91568000D02*
X206950000Y-91568000D01*
X206950000Y-91568000D02*
X206950000Y-92328000D01*
X206950000Y-92328000D02*
X200950000Y-92328000D01*
X197892929Y-91568000D02*
X198290000Y-91568000D01*
X197892929Y-92328000D02*
X198290000Y-92328000D01*
X198290000Y-93218000D02*
X200950000Y-93218000D01*
X200950000Y-94108000D02*
X206950000Y-94108000D01*
X206950000Y-94108000D02*
X206950000Y-94868000D01*
X206950000Y-94868000D02*
X200950000Y-94868000D01*
X197892929Y-94108000D02*
X198290000Y-94108000D01*
X197892929Y-94868000D02*
X198290000Y-94868000D01*
X198290000Y-95758000D02*
X200950000Y-95758000D01*
X200950000Y-96648000D02*
X206950000Y-96648000D01*
X206950000Y-96648000D02*
X206950000Y-97408000D01*
X206950000Y-97408000D02*
X200950000Y-97408000D01*
X197892929Y-96648000D02*
X198290000Y-96648000D01*
X197892929Y-97408000D02*
X198290000Y-97408000D01*
X198290000Y-98298000D02*
X200950000Y-98298000D01*
X200950000Y-99188000D02*
X206950000Y-99188000D01*
X206950000Y-99188000D02*
X206950000Y-99948000D01*
X206950000Y-99948000D02*
X200950000Y-99948000D01*
X197892929Y-99188000D02*
X198290000Y-99188000D01*
X197892929Y-99948000D02*
X198290000Y-99948000D01*
X198290000Y-100838000D02*
X200950000Y-100838000D01*
X200950000Y-101728000D02*
X206950000Y-101728000D01*
X206950000Y-101728000D02*
X206950000Y-102488000D01*
X206950000Y-102488000D02*
X200950000Y-102488000D01*
X197892929Y-101728000D02*
X198290000Y-101728000D01*
X197892929Y-102488000D02*
X198290000Y-102488000D01*
X198290000Y-103378000D02*
X200950000Y-103378000D01*
X200950000Y-104268000D02*
X206950000Y-104268000D01*
X206950000Y-104268000D02*
X206950000Y-105028000D01*
X206950000Y-105028000D02*
X200950000Y-105028000D01*
X197892929Y-104268000D02*
X198290000Y-104268000D01*
X197892929Y-105028000D02*
X198290000Y-105028000D01*
X198290000Y-105918000D02*
X200950000Y-105918000D01*
X197892929Y-106808000D02*
X198290000Y-106808000D01*
X197892929Y-107568000D02*
X198290000Y-107568000D01*
%TO.C,J7*%
X161611000Y-93031000D02*
X162941000Y-93031000D01*
X161611000Y-94361000D02*
X161611000Y-93031000D01*
X161611000Y-95631000D02*
X164271000Y-95631000D01*
X164271000Y-95631000D02*
X164271000Y-103311000D01*
X161611000Y-95631000D02*
X161611000Y-103311000D01*
X161611000Y-103311000D02*
X164271000Y-103311000D01*
%TO.C,J5*%
X160020000Y-91948000D02*
X165866000Y-91948000D01*
X165866000Y-79248000D02*
X160016000Y-79248000D01*
X160016000Y-79248000D02*
X160016000Y-91948000D01*
X165866000Y-79248000D02*
X165866000Y-91948000D01*
X167240000Y-88638000D02*
X167240000Y-87638000D01*
X166240000Y-88138000D02*
X167240000Y-88638000D01*
X167240000Y-87638000D02*
X166240000Y-88138000D01*
X165862000Y-86360000D02*
X165227000Y-86360000D01*
X165227000Y-86360000D02*
X165227000Y-91313000D01*
X165227000Y-91313000D02*
X160655000Y-91313000D01*
X160655000Y-91313000D02*
X160655000Y-79883000D01*
X160655000Y-79883000D02*
X165227000Y-79883000D01*
X165227000Y-79883000D02*
X165227000Y-84836000D01*
X165227000Y-84836000D02*
X165862000Y-84836000D01*
%TO.C,J4*%
X180956000Y-93988000D02*
X179956000Y-94488000D01*
X180956000Y-94988000D02*
X180956000Y-93988000D01*
X179956000Y-94488000D02*
X180956000Y-94988000D01*
X178256000Y-87358000D02*
X179566000Y-87358000D01*
X178256000Y-87358000D02*
X178256000Y-87358000D01*
X178256000Y-80418000D02*
X178256000Y-87358000D01*
X171756000Y-80418000D02*
X178256000Y-80418000D01*
X171756000Y-98398000D02*
X171756000Y-80418000D01*
X178256000Y-98398000D02*
X171756000Y-98398000D01*
X178256000Y-91458000D02*
X178256000Y-98398000D01*
X179566000Y-91458000D02*
X178256000Y-91458000D01*
X179566000Y-79118000D02*
X179566000Y-99698000D01*
X170446000Y-79118000D02*
X179566000Y-79118000D01*
X170446000Y-99698000D02*
X170446000Y-79118000D01*
X179566000Y-99698000D02*
X170446000Y-99698000D01*
%TO.C,J6*%
X180956000Y-111768000D02*
X179956000Y-112268000D01*
X180956000Y-112768000D02*
X180956000Y-111768000D01*
X179956000Y-112268000D02*
X180956000Y-112768000D01*
X178256000Y-107678000D02*
X179566000Y-107678000D01*
X178256000Y-107678000D02*
X178256000Y-107678000D01*
X178256000Y-103278000D02*
X178256000Y-107678000D01*
X171756000Y-103278000D02*
X178256000Y-103278000D01*
X171756000Y-116178000D02*
X171756000Y-103278000D01*
X178256000Y-116178000D02*
X171756000Y-116178000D01*
X178256000Y-111778000D02*
X178256000Y-116178000D01*
X179566000Y-111778000D02*
X178256000Y-111778000D01*
X179566000Y-101978000D02*
X179566000Y-117478000D01*
X170446000Y-101978000D02*
X179566000Y-101978000D01*
X170446000Y-117478000D02*
X170446000Y-101978000D01*
X179566000Y-117478000D02*
X170446000Y-117478000D01*
%TO.C,J2*%
X160020000Y-117348000D02*
X165866000Y-117348000D01*
X165866000Y-104648000D02*
X160016000Y-104648000D01*
X160016000Y-104648000D02*
X160016000Y-117348000D01*
X165866000Y-104648000D02*
X165866000Y-117348000D01*
X167240000Y-114038000D02*
X167240000Y-113038000D01*
X166240000Y-113538000D02*
X167240000Y-114038000D01*
X167240000Y-113038000D02*
X166240000Y-113538000D01*
X165862000Y-111760000D02*
X165227000Y-111760000D01*
X165227000Y-111760000D02*
X165227000Y-116713000D01*
X165227000Y-116713000D02*
X160655000Y-116713000D01*
X160655000Y-116713000D02*
X160655000Y-105283000D01*
X160655000Y-105283000D02*
X165227000Y-105283000D01*
X165227000Y-105283000D02*
X165227000Y-110236000D01*
X165227000Y-110236000D02*
X165862000Y-110236000D01*
%TO.C,R1*%
D12*
X196683333Y-110519380D02*
X196350000Y-110043190D01*
X196111904Y-110519380D02*
X196111904Y-109519380D01*
X196492857Y-109519380D01*
X196588095Y-109567000D01*
X196635714Y-109614619D01*
X196683333Y-109709857D01*
X196683333Y-109852714D01*
X196635714Y-109947952D01*
X196588095Y-109995571D01*
X196492857Y-110043190D01*
X196111904Y-110043190D01*
X197635714Y-110519380D02*
X197064285Y-110519380D01*
X197350000Y-110519380D02*
X197350000Y-109519380D01*
X197254761Y-109662238D01*
X197159523Y-109757476D01*
X197064285Y-109805095D01*
%TO.C,D1*%
X196111904Y-116953380D02*
X196111904Y-115953380D01*
X196350000Y-115953380D01*
X196492857Y-116001000D01*
X196588095Y-116096238D01*
X196635714Y-116191476D01*
X196683333Y-116381952D01*
X196683333Y-116524809D01*
X196635714Y-116715285D01*
X196588095Y-116810523D01*
X196492857Y-116905761D01*
X196350000Y-116953380D01*
X196111904Y-116953380D01*
X197635714Y-116953380D02*
X197064285Y-116953380D01*
X197350000Y-116953380D02*
X197350000Y-115953380D01*
X197254761Y-116096238D01*
X197159523Y-116191476D01*
X197064285Y-116239095D01*
%TO.C,J3*%
X188388666Y-115280380D02*
X188388666Y-115994666D01*
X188341047Y-116137523D01*
X188245809Y-116232761D01*
X188102952Y-116280380D01*
X188007714Y-116280380D01*
X188769619Y-115280380D02*
X189388666Y-115280380D01*
X189055333Y-115661333D01*
X189198190Y-115661333D01*
X189293428Y-115708952D01*
X189341047Y-115756571D01*
X189388666Y-115851809D01*
X189388666Y-116089904D01*
X189341047Y-116185142D01*
X189293428Y-116232761D01*
X189198190Y-116280380D01*
X188912476Y-116280380D01*
X188817238Y-116232761D01*
X188769619Y-116185142D01*
%TO.C,JP1*%
X197286666Y-86066380D02*
X197286666Y-86780666D01*
X197239047Y-86923523D01*
X197143809Y-87018761D01*
X197000952Y-87066380D01*
X196905714Y-87066380D01*
X197762857Y-87066380D02*
X197762857Y-86066380D01*
X198143809Y-86066380D01*
X198239047Y-86114000D01*
X198286666Y-86161619D01*
X198334285Y-86256857D01*
X198334285Y-86399714D01*
X198286666Y-86494952D01*
X198239047Y-86542571D01*
X198143809Y-86590190D01*
X197762857Y-86590190D01*
X199286666Y-87066380D02*
X198715238Y-87066380D01*
X199000952Y-87066380D02*
X199000952Y-86066380D01*
X198905714Y-86209238D01*
X198810476Y-86304476D01*
X198715238Y-86352095D01*
%TO.C,J1*%
X200580666Y-109053380D02*
X200580666Y-109767666D01*
X200533047Y-109910523D01*
X200437809Y-110005761D01*
X200294952Y-110053380D01*
X200199714Y-110053380D01*
X201580666Y-110053380D02*
X201009238Y-110053380D01*
X201294952Y-110053380D02*
X201294952Y-109053380D01*
X201199714Y-109196238D01*
X201104476Y-109291476D01*
X201009238Y-109339095D01*
%TO.C,J7*%
X165357666Y-92416380D02*
X165357666Y-93130666D01*
X165310047Y-93273523D01*
X165214809Y-93368761D01*
X165071952Y-93416380D01*
X164976714Y-93416380D01*
X165738619Y-92416380D02*
X166405285Y-92416380D01*
X165976714Y-93416380D01*
%TO.C,J5*%
X166544666Y-79462380D02*
X166544666Y-80176666D01*
X166497047Y-80319523D01*
X166401809Y-80414761D01*
X166258952Y-80462380D01*
X166163714Y-80462380D01*
X167497047Y-79462380D02*
X167020857Y-79462380D01*
X166973238Y-79938571D01*
X167020857Y-79890952D01*
X167116095Y-79843333D01*
X167354190Y-79843333D01*
X167449428Y-79890952D01*
X167497047Y-79938571D01*
X167544666Y-80033809D01*
X167544666Y-80271904D01*
X167497047Y-80367142D01*
X167449428Y-80414761D01*
X167354190Y-80462380D01*
X167116095Y-80462380D01*
X167020857Y-80414761D01*
X166973238Y-80367142D01*
%TO.C,J4*%
X180768666Y-79462380D02*
X180768666Y-80176666D01*
X180721047Y-80319523D01*
X180625809Y-80414761D01*
X180482952Y-80462380D01*
X180387714Y-80462380D01*
X181673428Y-79795714D02*
X181673428Y-80462380D01*
X181435333Y-79414761D02*
X181197238Y-80129047D01*
X181816285Y-80129047D01*
%TO.C,J6*%
X180514666Y-116038380D02*
X180514666Y-116752666D01*
X180467047Y-116895523D01*
X180371809Y-116990761D01*
X180228952Y-117038380D01*
X180133714Y-117038380D01*
X181419428Y-116038380D02*
X181228952Y-116038380D01*
X181133714Y-116086000D01*
X181086095Y-116133619D01*
X180990857Y-116276476D01*
X180943238Y-116466952D01*
X180943238Y-116847904D01*
X180990857Y-116943142D01*
X181038476Y-116990761D01*
X181133714Y-117038380D01*
X181324190Y-117038380D01*
X181419428Y-116990761D01*
X181467047Y-116943142D01*
X181514666Y-116847904D01*
X181514666Y-116609809D01*
X181467047Y-116514571D01*
X181419428Y-116466952D01*
X181324190Y-116419333D01*
X181133714Y-116419333D01*
X181038476Y-116466952D01*
X180990857Y-116514571D01*
X180943238Y-116609809D01*
%TO.C,J2*%
X166798666Y-116038380D02*
X166798666Y-116752666D01*
X166751047Y-116895523D01*
X166655809Y-116990761D01*
X166512952Y-117038380D01*
X166417714Y-117038380D01*
X167227238Y-116133619D02*
X167274857Y-116086000D01*
X167370095Y-116038380D01*
X167608190Y-116038380D01*
X167703428Y-116086000D01*
X167751047Y-116133619D01*
X167798666Y-116228857D01*
X167798666Y-116324095D01*
X167751047Y-116466952D01*
X167179619Y-117038380D01*
X167798666Y-117038380D01*
%TD*%
M02*
