M48
; DRILL file {KiCad (5.1.7)-1} date 11/29/20 11:25:43
; FORMAT={-:-/ absolute / metric / decimal}
; #@! TF.CreationDate,2020-11-29T11:25:43+01:00
; #@! TF.GenerationSoftware,Kicad,Pcbnew,(5.1.7)-1
; #@! TF.FileFunction,Plated,1,2,PTH
FMAT,2
METRIC
T1C0.400
T2C0.650
T3C1.000
%
G90
G05
T1
X160.02Y-104.775
X161.036Y-91.567
X166.497Y-88.138
X169.291Y-88.138
X169.291Y-90.106
X181.737Y-98.298
X181.737Y-110.109
X183.261Y-95.758
T2
X162.306Y-108.458
X162.306Y-109.728
X162.306Y-110.998
X162.306Y-112.268
X162.306Y-113.538
X163.576Y-108.458
X163.576Y-109.728
X163.576Y-110.998
X163.576Y-112.268
X163.576Y-113.538
X162.306Y-83.058
X162.306Y-84.328
X162.306Y-85.598
X162.306Y-86.868
X162.306Y-88.138
X163.576Y-83.058
X163.576Y-84.328
X163.576Y-85.598
X163.576Y-86.868
X163.576Y-88.138
T3
X173.736Y-84.328
X173.736Y-86.868
X173.736Y-89.408
X173.736Y-91.948
X173.736Y-94.488
X176.276Y-84.328
X176.276Y-86.868
X176.276Y-89.408
X176.276Y-91.948
X176.276Y-94.488
X187.452Y-86.868
X187.452Y-89.408
X187.452Y-91.948
X187.452Y-94.488
X187.452Y-97.028
X187.452Y-99.568
X187.452Y-102.108
X187.452Y-104.648
X187.452Y-107.188
X187.452Y-109.728
X189.992Y-86.868
X189.992Y-89.408
X189.992Y-91.948
X189.992Y-94.488
X189.992Y-97.028
X189.992Y-99.568
X189.992Y-102.108
X189.992Y-104.648
X189.992Y-107.188
X189.992Y-109.728
X173.736Y-107.188
X173.736Y-109.728
X173.736Y-112.268
X176.276Y-107.188
X176.276Y-109.728
X176.276Y-112.268
X162.941Y-94.361
X162.941Y-96.901
X162.941Y-99.441
X162.941Y-101.981
X196.85Y-89.408
X196.85Y-91.948
X196.85Y-94.488
X196.85Y-97.028
X196.85Y-99.568
X196.85Y-102.108
X196.85Y-104.648
X196.85Y-107.188
T0
M30
